SplineFontDB: 3.2
FontName: NeoSpleen
FullName: NeoSpleen
FamilyName: NeoSpleen
Weight: Book
Copyright: "Copyright (c) 2025, Matthew Wilding"
Version: "1.0.0"
ItalicAngle: 0
UnderlinePosition: -100
UnderlineWidth: 40
Ascent: 832
Descent: 192
InvalidEm: 0
sfntRevision: 0x00010000
LayerCount: 2
Layer: 0 1 "Back" 1
Layer: 1 1 "Fore" 0
XUID: [1021 692 -191584965 3826193]
StyleMap: 0x0000
FSType: 0
OS2Version: 1
OS2_WeightWidthSlopeOnly: 0
OS2_UseTypoMetrics: 0
CreationTime: 1703523052
ModificationTime: 1747043372
PfmFamily: 17
TTFWeight: 400
TTFWidth: 5
LineGap: 72
VLineGap: 0
Panose: 2 0 6 9 0 0 0 0 0 0
OS2TypoAscent: 832
OS2TypoAOffset: 0
OS2TypoDescent: -192
OS2TypoDOffset: 0
OS2TypoLinegap: 0
OS2WinAscent: 832
OS2WinAOffset: 0
OS2WinDescent: 192
OS2WinDOffset: 0
HheadAscent: 832
HheadAOffset: 0
HheadDescent: -192
HheadDOffset: 0
OS2SubXSize: 665
OS2SubYSize: 716
OS2SubXOff: 0
OS2SubYOff: 143
OS2SupXSize: 665
OS2SupYSize: 716
OS2SupXOff: 0
OS2SupYOff: 491
OS2StrikeYSize: 51
OS2StrikeYPos: 265
OS2Vendor: 'PfEd'
OS2CodePages: 40000093.cdd40000
OS2UnicodeRanges: 800000af.100078e3.00040000.00000000
MarkAttachClasses: 1
DEI: 91125
ShortTable: maxp 16
  1
  0
  890
  256
  32
  71
  5
  2
  0
  1
  1
  0
  64
  0
  3
  2
EndShort
LangName: 1033 "" "" "Regular" "FontForge 2.0 : NeoSpleen : 12-5-2025" "" "Version +ACIA-1.0.0+ACIA"
GaspTable: 1 65535 2 0
Encoding: UnicodeBmp
UnicodeInterp: none
NameList: AGL For New Fonts
DisplaySize: -48
AntiAlias: 1
FitToEm: 0
WinInfo: 17 17 9
BeginChars: 65539 890

StartChar: .notdef
Encoding: 65536 -1 0
Width: 512
GlyphClass: 1
Flags: W
HStem: 0 51<102 410> 503 51<102 410>
VStem: 51 51<51 503> 410 51<51 503>
LayerCount: 2
Fore
SplineSet
102 51 m 1,0,-1
 410 51 l 1,1,-1
 410 503 l 1,2,-1
 102 503 l 1,3,-1
 102 51 l 1,0,-1
51 0 m 1,4,-1
 51 554 l 1,5,-1
 461 554 l 1,6,-1
 461 0 l 1,7,-1
 51 0 l 1,4,-1
EndSplineSet
EndChar

StartChar: EXCLAMATION
Encoding: 33 33 4
Width: 512
GlyphClass: 1
Flags: W
HStem: 0 102<216 296> 620 20G<216 296>
VStem: 216 80<0 102 204 640>
LayerCount: 2
Fore
SplineSet
216 204 m 1,0,-1
 216 640 l 1,1,-1
 296 640 l 1,2,-1
 296 204 l 1,3,-1
 216 204 l 1,0,-1
216 0 m 1,4,-1
 216 102 l 1,5,-1
 296 102 l 1,6,-1
 296 0 l 1,7,-1
 216 0 l 1,4,-1
EndSplineSet
EndChar

StartChar: NUMBER
Encoding: 35 35 6
Width: 512
GlyphClass: 1
Flags: W
HStem: 0 21G<116 180 332 396> 148 64<32 116 180 332 396 480> 428 64<32 116 180 332 396 480> 620 20G<116 180 332 396>
VStem: 116 64<0 148 212 428 492 640> 332 64<0 148 212 428 492 640>
LayerCount: 2
Fore
SplineSet
332 212 m 1,0,-1
 332 428 l 1,1,-1
 180 428 l 1,2,-1
 180 212 l 1,3,-1
 332 212 l 1,0,-1
332 0 m 1,4,-1
 332 148 l 1,5,-1
 180 148 l 1,6,-1
 180 0 l 1,7,-1
 116 0 l 1,8,-1
 116 148 l 1,9,-1
 32 148 l 1,10,-1
 32 212 l 1,11,-1
 116 212 l 1,12,-1
 116 428 l 1,13,-1
 32 428 l 1,14,-1
 32 492 l 1,15,-1
 116 492 l 1,16,-1
 116 640 l 1,17,-1
 180 640 l 1,18,-1
 180 492 l 1,19,-1
 332 492 l 1,20,-1
 332 640 l 1,21,-1
 396 640 l 1,22,-1
 396 492 l 1,23,-1
 480 492 l 1,24,-1
 480 428 l 1,25,-1
 396 428 l 1,26,-1
 396 212 l 1,27,-1
 480 212 l 1,28,-1
 480 148 l 1,29,-1
 396 148 l 1,30,-1
 396 0 l 1,31,-1
 332 0 l 1,4,-1
EndSplineSet
EndChar

StartChar: DOLLAR
Encoding: 36 36 7
Width: 512
GlyphClass: 1
Flags: W
HStem: 0 21G<222 286> 53 54<62 222 286 359.501> 299 53<151.819 222 286 370.192> 533 54<142.466 222 286 446> 620 20G<222 286>
VStem: 48 66<389.704 504.291> 222 64<0 53 107 299 352 533 587 640> 396 68<146.149 273.873>
LayerCount: 2
Fore
SplineSet
222 352 m 1,0,-1
 222 533 l 1,1,2
 210 535 210 535 205 535 c 0,3,4
 166 535 166 535 140 508.5 c 128,-1,5
 114 482 114 482 114 448 c 128,-1,6
 114 414 114 414 142 383 c 128,-1,7
 170 352 170 352 222 352 c 1,0,-1
286 107 m 1,8,9
 291 106 291 106 301 106 c 0,10,11
 343 106 343 106 369.5 140 c 128,-1,12
 396 174 396 174 396 218 c 0,13,14
 396 299 396 299 286 299 c 1,15,-1
 286 107 l 1,8,9
222 0 m 1,16,-1
 222 53 l 1,17,-1
 62 53 l 1,18,-1
 62 107 l 1,19,-1
 222 107 l 1,20,-1
 222 299 l 1,21,22
 138 299 138 299 93 345.5 c 128,-1,23
 48 392 48 392 48 448 c 0,24,25
 48 503 48 503 91 545 c 128,-1,26
 134 587 134 587 203 587 c 2,27,-1
 222 587 l 1,28,-1
 222 640 l 1,29,-1
 286 640 l 1,30,-1
 286 587 l 1,31,-1
 446 587 l 1,32,-1
 446 533 l 1,33,-1
 286 533 l 1,34,-1
 286 352 l 1,35,36
 376 352 376 352 420 316.5 c 128,-1,37
 464 281 464 281 464 219 c 0,38,39
 464 154 464 154 420.5 103.5 c 128,-1,40
 377 53 377 53 307 53 c 2,41,-1
 286 53 l 1,42,-1
 286 0 l 1,43,-1
 222 0 l 1,16,-1
EndSplineSet
EndChar

StartChar: AMPERSAND
Encoding: 38 38 9
Width: 512
GlyphClass: 1
Flags: W
HStem: 0 62<121.842 246.578> 564 66<167.31 281.682>
VStem: 41 51<92.2168 268.75> 89 59<430.708 544.251> 308 62<468 536.183>
LayerCount: 2
Fore
SplineSet
184 62 m 0,0,1
 233 62 233 62 267 105 c 2,2,-1
 311 161 l 1,3,-1
 205 297 l 1,4,-1
 179 297 l 2,5,6
 138 297 138 297 116 272 c 0,7,8
 92 246 92 246 92 204 c 2,9,-1
 92 155 l 2,10,11
 92 111 92 111 118 87 c 0,12,13
 142 62 142 62 184 62 c 0,0,1
203 0 m 2,14,15
 121 0 121 0 85 37 c 0,16,17
 41 81 41 81 41 155 c 2,18,-1
 41 204 l 2,19,20
 41 278 41 278 77 315 c 0,21,22
 97 338 97 338 112.5 346.5 c 128,-1,23
 128 355 128 355 159 357 c 1,24,-1
 135 387 l 2,25,26
 89 446 89 446 89 494 c 0,27,28
 89 568 89 568 121 598 c 0,29,30
 143 618 143 618 158.5 624 c 128,-1,31
 174 630 174 630 205 630 c 0,32,33
 260 630 260 630 294 609 c 0,34,35
 328 591 328 591 350 553 c 0,36,37
 370 515 370 515 370 468 c 1,38,-1
 308 468 l 1,39,40
 308 511 308 511 286 537 c 0,41,42
 264 564 264 564 219 564 c 0,43,44
 187 564 187 564 168 544 c 0,45,46
 148 525 148 525 148 493 c 0,47,48
 148 460 148 460 172 428 c 2,49,-1
 344 200 l 1,50,-1
 429 297 l 1,51,-1
 505 297 l 1,52,-1
 382 158 l 1,53,-1
 502 0 l 1,54,-1
 435 0 l 1,55,-1
 347 121 l 1,56,-1
 309 68 l 2,57,58
 306 65 306 65 296 52 c 128,-1,59
 286 39 286 39 281.5 34 c 128,-1,60
 277 29 277 29 268.5 21.5 c 128,-1,61
 260 14 260 14 252 10 c 0,62,63
 230 0 230 0 213 0 c 2,64,-1
 203 0 l 2,14,15
EndSplineSet
EndChar

StartChar: APOSTROPHE
Encoding: 39 39 10
Width: 512
GlyphClass: 1
Flags: W
HStem: 424 240<210 302>
VStem: 210 92<424 664>
LayerCount: 2
Fore
SplineSet
302 424 m 1,0,-1
 210 424 l 1,1,-1
 210 664 l 1,2,-1
 302 664 l 1,3,-1
 302 424 l 1,0,-1
EndSplineSet
EndChar

StartChar: LEFT
Encoding: 40 40 11
Width: 512
GlyphClass: 1
Flags: W
HStem: -128 64<252.025 384> 704 64<252.025 384>
VStem: 128 64<24.3279 615.672>
LayerCount: 2
Fore
SplineSet
192 78 m 2,0,1
 192 63 192 63 227 -0.5 c 128,-1,2
 262 -64 262 -64 274 -64 c 2,3,-1
 384 -64 l 1,4,-1
 384 -128 l 1,5,-1
 258 -128 l 2,6,7
 227 -128 227 -128 177.5 -51 c 128,-1,8
 128 26 128 26 128 62 c 2,9,-1
 128 578 l 2,10,11
 128 614 128 614 177.5 691 c 128,-1,12
 227 768 227 768 258 768 c 2,13,-1
 384 768 l 1,14,-1
 384 704 l 1,15,-1
 274 704 l 2,16,17
 262 704 262 704 227 640.5 c 128,-1,18
 192 577 192 577 192 562 c 2,19,-1
 192 78 l 2,0,1
EndSplineSet
EndChar

StartChar: RIGHT
Encoding: 41 41 12
Width: 512
GlyphClass: 1
Flags: W
HStem: -128 64<128 259.975> 704 64<128 259.975>
VStem: 320 64<24.3279 615.672>
LayerCount: 2
Fore
SplineSet
320 78 m 2,0,-1
 320 562 l 2,1,2
 320 577 320 577 285 640.5 c 128,-1,3
 250 704 250 704 238 704 c 2,4,-1
 128 704 l 1,5,-1
 128 768 l 1,6,-1
 254 768 l 2,7,8
 285 768 285 768 334.5 691 c 128,-1,9
 384 614 384 614 384 578 c 2,10,-1
 384 62 l 2,11,12
 384 26 384 26 334.5 -51 c 128,-1,13
 285 -128 285 -128 254 -128 c 2,14,-1
 128 -128 l 1,15,-1
 128 -64 l 1,16,-1
 238 -64 l 2,17,18
 250 -64 250 -64 285 -0.5 c 128,-1,19
 320 63 320 63 320 78 c 2,0,-1
EndSplineSet
EndChar

StartChar: ASTERISK
Encoding: 42 42 13
Width: 512
GlyphClass: 1
Flags: W
VStem: 218 76<360 522>
LayerCount: 2
Fore
SplineSet
169 119 m 1,0,-1
 96 166 l 1,1,-1
 198 295 l 1,2,-1
 42 339 l 1,3,-1
 70 415 l 1,4,-1
 218 360 l 1,5,-1
 211 522 l 1,6,-1
 301 522 l 1,7,-1
 294 360 l 1,8,-1
 442 415 l 1,9,-1
 470 339 l 1,10,-1
 314 295 l 1,11,-1
 416 166 l 1,12,-1
 343 119 l 1,13,-1
 256 250 l 1,14,-1
 169 119 l 1,0,-1
EndSplineSet
EndChar

StartChar: PLUS
Encoding: 43 43 14
Width: 512
GlyphClass: 1
Flags: W
HStem: 288 64<64 224 288 448>
VStem: 224 64<128 288 352 512>
LayerCount: 2
Fore
SplineSet
224 128 m 1,0,-1
 224 288 l 1,1,-1
 64 288 l 1,2,-1
 64 352 l 1,3,-1
 224 352 l 1,4,-1
 224 512 l 1,5,-1
 288 512 l 1,6,-1
 288 352 l 1,7,-1
 448 352 l 1,8,-1
 448 288 l 1,9,-1
 288 288 l 1,10,-1
 288 128 l 1,11,-1
 224 128 l 1,0,-1
EndSplineSet
EndChar

StartChar: COMMA
Encoding: 44 44 15
Width: 512
GlyphClass: 1
Flags: W
HStem: -93 190
VStem: 161 190
LayerCount: 2
Fore
SplineSet
351 31 m 1,0,-1
 227 -93 l 1,1,-1
 161 -27 l 1,2,-1
 285 97 l 1,3,-1
 351 31 l 1,0,-1
EndSplineSet
EndChar

StartChar: HYPHEN-MINUS
Encoding: 45 45 16
Width: 512
GlyphClass: 1
Flags: W
HStem: 288 64<64 448>
LayerCount: 2
Fore
SplineSet
64 288 m 1,0,-1
 64 352 l 1,1,-1
 448 352 l 1,2,-1
 448 288 l 1,3,-1
 64 288 l 1,0,-1
EndSplineSet
EndChar

StartChar: FULL
Encoding: 46 46 17
Width: 512
GlyphClass: 1
Flags: W
HStem: 0 128<208.147 303.853>
VStem: 192 128<16.1472 111.853>
LayerCount: 2
Fore
SplineSet
192 64 m 128,-1,1
 192 90 192 90 211 109 c 128,-1,2
 230 128 230 128 256 128 c 128,-1,3
 282 128 282 128 301 109 c 128,-1,4
 320 90 320 90 320 64 c 128,-1,5
 320 38 320 38 301 19 c 128,-1,6
 282 0 282 0 256 0 c 128,-1,7
 230 0 230 0 211 19 c 128,-1,0
 192 38 192 38 192 64 c 128,-1,1
EndSplineSet
EndChar

StartChar: SOLIDUS
Encoding: 47 47 18
Width: 512
GlyphClass: 1
Flags: W
LayerCount: 2
Fore
SplineSet
494 593 m 1,0,-1
 64 2 l 1,1,-1
 18 47 l 1,2,-1
 448 638 l 1,3,-1
 494 593 l 1,0,-1
EndSplineSet
EndChar

StartChar: DIGIT
Encoding: 48 48 19
Width: 512
GlyphClass: 1
Flags: W
HStem: 0 64<137.282 374.718> 576 64<137.282 374.718>
VStem: 64 64<73.2825 160 256 566.718> 384 64<73.2825 400 496 566.718>
LayerCount: 2
Fore
SplineSet
384 544 m 2,0,1
 384 558 384 558 375 567 c 128,-1,2
 366 576 366 576 352 576 c 2,3,-1
 160 576 l 2,4,5
 146 576 146 576 137 567 c 128,-1,6
 128 558 128 558 128 544 c 2,7,-1
 128 256 l 1,8,-1
 384 496 l 1,9,-1
 384 544 l 2,0,1
352 64 m 2,10,11
 366 64 366 64 375 73 c 128,-1,12
 384 82 384 82 384 96 c 2,13,-1
 384 400 l 1,14,-1
 128 160 l 1,15,-1
 128 96 l 2,16,17
 128 82 128 82 137 73 c 128,-1,18
 146 64 146 64 160 64 c 2,19,-1
 352 64 l 2,10,11
64 560 m 2,20,21
 64 593 64 593 87.5 616.5 c 128,-1,22
 111 640 111 640 144 640 c 2,23,-1
 368 640 l 2,24,25
 401 640 401 640 424.5 616.5 c 128,-1,26
 448 593 448 593 448 560 c 2,27,-1
 448 80 l 2,28,29
 448 47 448 47 424.5 23.5 c 128,-1,30
 401 0 401 0 368 0 c 2,31,-1
 144 0 l 2,32,33
 111 0 111 0 87.5 23.5 c 128,-1,34
 64 47 64 47 64 80 c 2,35,-1
 64 560 l 2,20,21
EndSplineSet
EndChar

StartChar: DIGIT
Encoding: 49 49 20
Width: 512
GlyphClass: 1
Flags: W
HStem: 0 64<106 234 298 426> 620 20G<198 298>
VStem: 234 64<64 576>
LayerCount: 2
Fore
SplineSet
92 514 m 1,0,-1
 218 640 l 1,1,-1
 298 640 l 1,2,-1
 298 64 l 1,3,-1
 426 64 l 1,4,-1
 426 0 l 1,5,-1
 106 0 l 1,6,-1
 106 64 l 1,7,-1
 234 64 l 1,8,-1
 234 576 l 1,9,-1
 124 463 l 1,10,-1
 92 514 l 1,0,-1
EndSplineSet
EndChar

StartChar: DIGIT
Encoding: 50 50 21
Width: 512
GlyphClass: 1
Flags: W
HStem: 0 64<128 374.718> 576 64<137.282 374.718>
VStem: 64 64<64 112 544 566.718> 384 64<73.2825 96 432 566.718>
LayerCount: 2
Fore
SplineSet
64 510 m 1,0,-1
 64 560 l 2,1,2
 64 593 64 593 87.5 616.5 c 128,-1,3
 111 640 111 640 144 640 c 2,4,-1
 368 640 l 2,5,6
 401 640 401 640 424.5 616.5 c 128,-1,7
 448 593 448 593 448 560 c 2,8,-1
 448 432 l 2,9,10
 448 416 448 416 432 400 c 2,11,-1
 128 112 l 1,12,-1
 128 64 l 1,13,-1
 352 64 l 2,14,15
 366 64 366 64 375 73 c 128,-1,16
 384 82 384 82 384 96 c 1,17,-1
 448 130 l 1,18,-1
 448 80 l 2,19,20
 448 47 448 47 424.5 23.5 c 128,-1,21
 401 0 401 0 368 0 c 2,22,-1
 64 0 l 1,23,-1
 64 128 l 1,24,-1
 384 432 l 1,25,-1
 384 544 l 2,26,27
 384 558 384 558 375 567 c 128,-1,28
 366 576 366 576 352 576 c 2,29,-1
 160 576 l 2,30,31
 146 576 146 576 137 567 c 128,-1,32
 128 558 128 558 128 544 c 1,33,-1
 64 510 l 1,0,-1
EndSplineSet
EndChar

StartChar: DIGIT
Encoding: 51 51 22
Width: 512
GlyphClass: 1
Flags: W
HStem: 0 64<64 374.718> 288 64<160 374.718> 576 64<64 374.718>
VStem: 384 64<73.2825 278.718 361.282 566.718>
CounterMasks: 1 e0
LayerCount: 2
Fore
SplineSet
64 64 m 1,0,-1
 352 64 l 2,1,2
 366 64 366 64 375 73 c 128,-1,3
 384 82 384 82 384 96 c 2,4,-1
 384 256 l 2,5,6
 384 270 384 270 375 279 c 128,-1,7
 366 288 366 288 352 288 c 2,8,-1
 160 288 l 1,9,-1
 160 352 l 1,10,-1
 352 352 l 2,11,12
 366 352 366 352 375 361 c 128,-1,13
 384 370 384 370 384 384 c 2,14,-1
 384 544 l 2,15,16
 384 558 384 558 375 567 c 128,-1,17
 366 576 366 576 352 576 c 2,18,-1
 64 576 l 1,19,-1
 64 640 l 1,20,-1
 368 640 l 2,21,22
 401 640 401 640 424.5 616.5 c 128,-1,23
 448 593 448 593 448 560 c 2,24,-1
 448 80 l 2,25,26
 448 47 448 47 424.5 23.5 c 128,-1,27
 401 0 401 0 368 0 c 2,28,-1
 64 0 l 1,29,-1
 64 64 l 1,0,-1
EndSplineSet
EndChar

StartChar: DIGIT
Encoding: 52 52 23
Width: 512
GlyphClass: 1
Flags: W
HStem: 0 21G<320 384> 288 64<137.282 310.718 393.282 448> 620 20G<64 128 320 384>
VStem: 64 64<361.282 640> 320 64<0 278.718 361.282 640>
LayerCount: 2
Fore
SplineSet
384 384 m 2,0,1
 384 370 384 370 393 361 c 128,-1,2
 402 352 402 352 416 352 c 2,3,-1
 448 352 l 1,4,-1
 448 288 l 1,5,-1
 416 288 l 2,6,7
 402 288 402 288 393 279 c 128,-1,8
 384 270 384 270 384 256 c 2,9,-1
 384 0 l 1,10,-1
 320 0 l 1,11,-1
 320 256 l 2,12,13
 320 270 320 270 311 279 c 128,-1,14
 302 288 302 288 288 288 c 2,15,-1
 144 288 l 2,16,17
 111 288 111 288 87.5 311.5 c 128,-1,18
 64 335 64 335 64 368 c 2,19,-1
 64 640 l 1,20,-1
 128 640 l 1,21,-1
 128 384 l 2,22,23
 128 370 128 370 137 361 c 128,-1,24
 146 352 146 352 160 352 c 2,25,-1
 288 352 l 2,26,27
 302 352 302 352 311 361 c 128,-1,28
 320 370 320 370 320 384 c 2,29,-1
 320 640 l 1,30,-1
 384 640 l 1,31,-1
 384 384 l 2,0,1
EndSplineSet
EndChar

StartChar: DIGIT
Encoding: 53 53 24
Width: 512
GlyphClass: 1
Flags: W
HStem: 0 64<137.282 374.718> 288 64<137.282 374.718> 576 64<137.282 448>
VStem: 64 64<73.2825 96 361.282 566.718> 384 64<73.2825 278.718>
CounterMasks: 1 e0
LayerCount: 2
Fore
SplineSet
128 96 m 1,0,1
 128 82 128 82 137 73 c 128,-1,2
 146 64 146 64 160 64 c 2,3,-1
 352 64 l 2,4,5
 366 64 366 64 375 73 c 128,-1,6
 384 82 384 82 384 96 c 2,7,-1
 384 256 l 2,8,9
 384 270 384 270 375 279 c 128,-1,10
 366 288 366 288 352 288 c 2,11,-1
 144 288 l 2,12,13
 111 288 111 288 87.5 311.5 c 128,-1,14
 64 335 64 335 64 368 c 2,15,-1
 64 560 l 2,16,17
 64 593 64 593 87.5 616.5 c 128,-1,18
 111 640 111 640 144 640 c 2,19,-1
 448 640 l 1,20,-1
 448 576 l 1,21,-1
 160 576 l 2,22,23
 146 576 146 576 137 567 c 128,-1,24
 128 558 128 558 128 544 c 2,25,-1
 128 384 l 2,26,27
 128 370 128 370 137 361 c 128,-1,28
 146 352 146 352 160 352 c 2,29,-1
 368 352 l 2,30,31
 401 352 401 352 424.5 328.5 c 128,-1,32
 448 305 448 305 448 272 c 2,33,-1
 448 80 l 2,34,35
 448 47 448 47 424.5 23.5 c 128,-1,36
 401 0 401 0 368 0 c 2,37,-1
 144 0 l 2,38,39
 111 0 111 0 87.5 23.5 c 128,-1,40
 64 47 64 47 64 80 c 2,41,-1
 64 130 l 1,42,-1
 128 96 l 1,0,1
EndSplineSet
EndChar

StartChar: DIGIT
Encoding: 54 54 25
Width: 512
GlyphClass: 1
Flags: W
HStem: 0 64<137.282 374.718> 288 64<137.282 374.718> 576 64<137.282 448>
VStem: 64 64<73.2825 278.718 361.282 566.718> 384 64<73.2825 278.718>
CounterMasks: 1 e0
LayerCount: 2
Fore
SplineSet
128 96 m 2,0,1
 128 82 128 82 137 73 c 128,-1,2
 146 64 146 64 160 64 c 2,3,-1
 352 64 l 2,4,5
 366 64 366 64 375 73 c 128,-1,6
 384 82 384 82 384 96 c 2,7,-1
 384 256 l 2,8,9
 384 270 384 270 375 279 c 128,-1,10
 366 288 366 288 352 288 c 2,11,-1
 160 288 l 2,12,13
 146 288 146 288 137 279 c 128,-1,14
 128 270 128 270 128 256 c 2,15,-1
 128 96 l 2,0,1
128 384 m 2,16,17
 128 370 128 370 137 361 c 128,-1,18
 146 352 146 352 160 352 c 2,19,-1
 368 352 l 2,20,21
 401 352 401 352 424.5 328.5 c 128,-1,22
 448 305 448 305 448 272 c 2,23,-1
 448 80 l 2,24,25
 448 47 448 47 424.5 23.5 c 128,-1,26
 401 0 401 0 368 0 c 2,27,-1
 144 0 l 2,28,29
 111 0 111 0 87.5 23.5 c 128,-1,30
 64 47 64 47 64 80 c 2,31,-1
 64 560 l 2,32,33
 64 593 64 593 87.5 616.5 c 128,-1,34
 111 640 111 640 144 640 c 2,35,-1
 448 640 l 1,36,-1
 448 576 l 1,37,-1
 160 576 l 2,38,39
 146 576 146 576 137 567 c 128,-1,40
 128 558 128 558 128 544 c 2,41,-1
 128 384 l 2,16,17
EndSplineSet
EndChar

StartChar: DIGIT
Encoding: 55 55 26
Width: 512
GlyphClass: 1
Flags: W
HStem: 1 21G<224 288> 576 64<64 374.718>
VStem: 224 64<1 256> 384 64<448 566.202>
LayerCount: 2
Fore
SplineSet
64 576 m 1,0,-1
 64 640 l 1,1,-1
 368 640 l 2,2,3
 402 640 402 640 425 616.5 c 128,-1,4
 448 593 448 593 448 560 c 2,5,-1
 448 448 l 1,6,-1
 288 256 l 1,7,-1
 288 1 l 1,8,-1
 224 1 l 1,9,-1
 224 256 l 1,10,-1
 384 448 l 1,11,-1
 384 544 l 2,12,13
 384 557 384 557 375 566.5 c 128,-1,14
 366 576 366 576 352 576 c 2,15,-1
 64 576 l 1,0,-1
EndSplineSet
EndChar

StartChar: DIGIT
Encoding: 56 56 27
Width: 512
GlyphClass: 1
Flags: W
HStem: 0 64<130.017 381.983> 288 64<129.45 382.55> 576 64<130.017 381.983>
VStem: 64 64<66.0171 286.55 353.45 573.983> 384 64<66.0171 286.55 353.45 573.983>
CounterMasks: 1 e0
LayerCount: 2
Fore
SplineSet
128 384 m 2,0,1
 128 371 128 371 137.5 361.5 c 128,-1,2
 147 352 147 352 160 352 c 2,3,-1
 352 352 l 2,4,5
 365 352 365 352 374.5 361.5 c 128,-1,6
 384 371 384 371 384 384 c 2,7,-1
 384 544 l 2,8,9
 384 557 384 557 374.5 566.5 c 128,-1,10
 365 576 365 576 352 576 c 2,11,-1
 160 576 l 2,12,13
 147 576 147 576 137.5 566.5 c 128,-1,14
 128 557 128 557 128 544 c 2,15,-1
 128 384 l 2,0,1
384 256 m 2,16,17
 384 269 384 269 374.5 278.5 c 128,-1,18
 365 288 365 288 352 288 c 2,19,-1
 160 288 l 2,20,21
 147 288 147 288 137.5 278.5 c 128,-1,22
 128 269 128 269 128 256 c 2,23,-1
 128 96 l 2,24,25
 128 83 128 83 137.5 73.5 c 128,-1,26
 147 64 147 64 160 64 c 2,27,-1
 352 64 l 2,28,29
 365 64 365 64 374.5 73.5 c 128,-1,30
 384 83 384 83 384 96 c 2,31,-1
 384 256 l 2,16,17
64 560 m 2,32,33
 64 593 64 593 87.5 616.5 c 128,-1,34
 111 640 111 640 144 640 c 2,35,-1
 368 640 l 2,36,37
 401 640 401 640 424.5 616.5 c 128,-1,38
 448 593 448 593 448 560 c 2,39,-1
 448 80 l 2,40,41
 448 47 448 47 424.5 23.5 c 128,-1,42
 401 0 401 0 368 0 c 2,43,-1
 144 0 l 2,44,45
 111 0 111 0 87.5 23.5 c 128,-1,46
 64 47 64 47 64 80 c 2,47,-1
 64 560 l 2,32,33
EndSplineSet
EndChar

StartChar: DIGIT
Encoding: 57 57 28
Width: 512
GlyphClass: 1
Flags: W
HStem: 0 64<64 374.718> 288 64<137.282 374.718> 576 64<137.282 374.718>
VStem: 64 64<361.282 566.718> 384 64<73.2825 278.718 361.282 566.718>
CounterMasks: 1 e0
LayerCount: 2
Fore
SplineSet
384 96 m 2,0,-1
 384 256 l 2,1,2
 384 270 384 270 375 279 c 128,-1,3
 366 288 366 288 352 288 c 2,4,-1
 144 288 l 2,5,6
 111 288 111 288 87.5 311.5 c 128,-1,7
 64 335 64 335 64 368 c 2,8,-1
 64 560 l 2,9,10
 64 593 64 593 87.5 616.5 c 128,-1,11
 111 640 111 640 144 640 c 2,12,-1
 368 640 l 2,13,14
 401 640 401 640 424.5 616.5 c 128,-1,15
 448 593 448 593 448 560 c 2,16,-1
 448 80 l 2,17,18
 448 47 448 47 424.5 23.5 c 128,-1,19
 401 0 401 0 368 0 c 2,20,-1
 64 0 l 1,21,-1
 64 64 l 1,22,-1
 352 64 l 2,23,24
 366 64 366 64 375 73 c 128,-1,25
 384 82 384 82 384 96 c 2,0,-1
384 384 m 2,26,-1
 384 544 l 2,27,28
 384 558 384 558 375 567 c 128,-1,29
 366 576 366 576 352 576 c 2,30,-1
 160 576 l 2,31,32
 146 576 146 576 137 567 c 128,-1,33
 128 558 128 558 128 544 c 2,34,-1
 128 384 l 2,35,36
 128 370 128 370 137 361 c 128,-1,37
 146 352 146 352 160 352 c 2,38,-1
 352 352 l 2,39,40
 366 352 366 352 375 361 c 128,-1,41
 384 370 384 370 384 384 c 2,26,-1
EndSplineSet
EndChar

StartChar: LESS-THAN
Encoding: 60 60 31
Width: 512
GlyphClass: 1
Flags: W
HStem: 0 21G<332 448> 620 20G<332 448>
VStem: 64 96<288 352>
LayerCount: 2
Fore
SplineSet
160 288 m 1,0,-1
 448 0 l 1,1,-1
 352 0 l 1,2,-1
 64 288 l 1,3,-1
 64 352 l 1,4,-1
 352 640 l 1,5,-1
 448 640 l 1,6,-1
 160 352 l 1,7,-1
 160 288 l 1,0,-1
EndSplineSet
EndChar

StartChar: EQUALS
Encoding: 61 61 32
Width: 512
GlyphClass: 1
Flags: W
HStem: 192 64<64 448> 384 64<64 448>
LayerCount: 2
Fore
SplineSet
64 384 m 1,0,-1
 64 448 l 1,1,-1
 448 448 l 1,2,-1
 448 384 l 1,3,-1
 64 384 l 1,0,-1
64 192 m 1,4,-1
 64 256 l 1,5,-1
 448 256 l 1,6,-1
 448 192 l 1,7,-1
 64 192 l 1,4,-1
EndSplineSet
EndChar

StartChar: GREATER-THAN
Encoding: 62 62 33
Width: 512
GlyphClass: 1
Flags: W
HStem: 0 21G<64 180> 620 20G<64 180>
VStem: 352 96<288 352>
LayerCount: 2
Fore
SplineSet
352 288 m 1,0,-1
 352 352 l 1,1,-1
 64 640 l 1,2,-1
 160 640 l 1,3,-1
 448 352 l 1,4,-1
 448 288 l 1,5,-1
 160 0 l 1,6,-1
 64 0 l 1,7,-1
 352 288 l 1,0,-1
EndSplineSet
EndChar

StartChar: QUESTION
Encoding: 63 63 34
Width: 512
GlyphClass: 1
Flags: W
HStem: 0 102<224 288> 576 64<137.282 374.718>
VStem: 64 64<512 566.718> 224 64<0 102 204 294> 384 64<448 566.718>
CounterMasks: 1 38
LayerCount: 2
Fore
SplineSet
224 330 m 1,0,-1
 384 448 l 1,1,-1
 384 544 l 2,2,3
 384 558 384 558 375 567 c 128,-1,4
 366 576 366 576 352 576 c 2,5,-1
 160 576 l 2,6,7
 146 576 146 576 137 567 c 128,-1,8
 128 558 128 558 128 544 c 2,9,-1
 128 512 l 1,10,-1
 64 512 l 1,11,-1
 64 560 l 2,12,13
 64 593 64 593 87.5 616.5 c 128,-1,14
 111 640 111 640 144 640 c 2,15,-1
 368 640 l 2,16,17
 401 640 401 640 424.5 616.5 c 128,-1,18
 448 593 448 593 448 560 c 2,19,-1
 448 415 l 1,20,-1
 288 294 l 1,21,-1
 288 204 l 1,22,-1
 224 204 l 1,23,-1
 224 330 l 1,0,-1
288 0 m 1,24,-1
 224 0 l 1,25,-1
 224 102 l 1,26,-1
 288 102 l 1,27,-1
 288 0 l 1,24,-1
EndSplineSet
EndChar

StartChar: COMMERCIAL
Encoding: 64 64 35
Width: 512
GlyphClass: 1
Flags: W
HStem: 0 64<137.282 416> 160 64<292 384> 576 64<137.282 374.718>
VStem: 64 64<73.2825 566.718> 224 68<224 480> 384 64<224 566.718>
LayerCount: 2
Fore
SplineSet
144 0 m 2,0,1
 111 0 111 0 87.5 23.5 c 128,-1,2
 64 47 64 47 64 80 c 2,3,-1
 64 560 l 2,4,5
 64 593 64 593 87.5 616.5 c 128,-1,6
 111 640 111 640 144 640 c 2,7,-1
 368 640 l 2,8,9
 401 640 401 640 424.5 616.5 c 128,-1,10
 448 593 448 593 448 560 c 2,11,-1
 448 160 l 1,12,-1
 224 160 l 1,13,-1
 224 480 l 1,14,-1
 292 480 l 1,15,-1
 292 224 l 1,16,-1
 384 224 l 1,17,-1
 384 544 l 2,18,19
 384 558 384 558 375 567 c 128,-1,20
 366 576 366 576 352 576 c 2,21,-1
 160 576 l 2,22,23
 146 576 146 576 137 567 c 128,-1,24
 128 558 128 558 128 544 c 2,25,-1
 128 96 l 2,26,27
 128 82 128 82 137 73 c 128,-1,28
 146 64 146 64 160 64 c 2,29,-1
 416 64 l 1,30,-1
 416 0 l 1,31,-1
 144 0 l 2,0,1
EndSplineSet
EndChar

StartChar: LATIN
Encoding: 65 65 36
AltUni2: 000102.ffffffff.0 000100.ffffffff.0 000102.ffffffff.0 000100.ffffffff.0
Width: 512
GlyphClass: 1
Flags: W
HStem: 0 21G<64 128 384 448> 288 64<130.259 381.771> 576 64<130.986 381.983>
VStem: 64 64<0 286.398 354.659 573.983> 384 64<0 286.086 353.602 573.983>
LayerCount: 2
Fore
SplineSet
128 384 m 2,0,1
 128 372 128 372 139 362 c 128,-1,2
 150 352 150 352 164 352 c 2,3,-1
 352 352 l 2,4,5
 365 352 365 352 374.5 362.5 c 128,-1,6
 384 373 384 373 384 387 c 2,7,-1
 384 544 l 2,8,9
 384 557 384 557 374.5 566.5 c 128,-1,10
 365 576 365 576 352 576 c 2,11,-1
 160 576 l 2,12,13
 147 576 147 576 137.5 565.5 c 128,-1,14
 128 555 128 555 128 541 c 2,15,-1
 128 384 l 2,0,1
352 288 m 2,16,-1
 160 288 l 2,17,18
 147 288 147 288 137.5 277.5 c 128,-1,19
 128 267 128 267 128 253 c 2,20,-1
 128 0 l 1,21,-1
 64 0 l 1,22,-1
 64 560 l 2,23,24
 64 593 64 593 87.5 616.5 c 128,-1,25
 111 640 111 640 144 640 c 2,26,-1
 368 640 l 2,27,28
 401 640 401 640 424.5 616.5 c 128,-1,29
 448 593 448 593 448 560 c 2,30,-1
 448 0 l 1,31,-1
 384 0 l 1,32,-1
 384 253 l 2,33,34
 384 268 384 268 373.5 278 c 128,-1,35
 363 288 363 288 352 288 c 2,16,-1
EndSplineSet
EndChar

StartChar: LATIN
Encoding: 66 66 37
Width: 512
GlyphClass: 1
Flags: W
HStem: 0 64<129.45 381.983> 320 64<129.45 382.55> 576 64<129.45 381.983>
VStem: 64 64<65.4496 318.55 385.45 574.55> 384 64<66.0171 318.406 385.594 573.983>
LayerCount: 2
Fore
SplineSet
352 64 m 2,0,1
 365 64 365 64 374.5 73.5 c 128,-1,2
 384 83 384 83 384 96 c 2,3,-1
 384 288 l 2,4,5
 384 301 384 301 374.5 310.5 c 128,-1,6
 365 320 365 320 352 320 c 2,7,-1
 160 320 l 2,8,9
 147 320 147 320 137.5 310.5 c 128,-1,10
 128 301 128 301 128 288 c 2,11,-1
 128 96 l 2,12,13
 128 83 128 83 137.5 73.5 c 128,-1,14
 147 64 147 64 160 64 c 2,15,-1
 352 64 l 2,0,1
448 80 m 2,16,17
 448 47 448 47 424.5 23.5 c 128,-1,18
 401 0 401 0 368 0 c 2,19,-1
 64 0 l 1,20,-1
 64 640 l 1,21,-1
 368 640 l 2,22,23
 401 640 401 640 424.5 616.5 c 128,-1,24
 448 593 448 593 448 560 c 2,25,-1
 448 416 l 2,26,27
 448 396 448 396 434 382 c 128,-1,28
 420 368 420 368 400 368 c 2,29,-1
 384 368 l 1,30,-1
 384 336 l 1,31,-1
 400 336 l 2,32,33
 420 336 420 336 434 322 c 128,-1,34
 448 308 448 308 448 288 c 2,35,-1
 448 80 l 2,16,17
128 416 m 2,36,37
 128 403 128 403 137.5 393.5 c 128,-1,38
 147 384 147 384 160 384 c 2,39,-1
 352 384 l 2,40,41
 365 384 365 384 374.5 393.5 c 128,-1,42
 384 403 384 403 384 416 c 2,43,-1
 384 544 l 2,44,45
 384 557 384 557 374.5 566.5 c 128,-1,46
 365 576 365 576 352 576 c 2,47,-1
 160 576 l 2,48,49
 147 576 147 576 137.5 566.5 c 128,-1,50
 128 557 128 557 128 544 c 2,51,-1
 128 416 l 2,36,37
EndSplineSet
EndChar

StartChar: LATIN
Encoding: 67 67 38
Width: 512
GlyphClass: 1
Flags: W
HStem: 0 64<130.017 448> 576 64<130.017 448>
VStem: 64 64<66.0171 573.983>
LayerCount: 2
Fore
SplineSet
64 560 m 2,0,1
 64 593 64 593 87.5 616.5 c 128,-1,2
 111 640 111 640 144 640 c 2,3,-1
 448 640 l 1,4,-1
 448 576 l 1,5,-1
 160 576 l 2,6,7
 147 576 147 576 137.5 566.5 c 128,-1,8
 128 557 128 557 128 544 c 2,9,-1
 128 96 l 2,10,11
 128 83 128 83 137.5 73.5 c 128,-1,12
 147 64 147 64 160 64 c 2,13,-1
 448 64 l 1,14,-1
 448 0 l 1,15,-1
 144 0 l 2,16,17
 111 0 111 0 87.5 23.5 c 128,-1,18
 64 47 64 47 64 80 c 2,19,-1
 64 560 l 2,0,1
EndSplineSet
EndChar

StartChar: LATIN
Encoding: 68 68 39
Width: 512
GlyphClass: 1
Flags: W
HStem: 0 64<128 381.983> 576 64<128 381.983>
VStem: 64 64<64 576> 384 64<66.0171 573.983>
LayerCount: 2
Fore
SplineSet
352 64 m 2,0,1
 365 64 365 64 374.5 73.5 c 128,-1,2
 384 83 384 83 384 96 c 2,3,-1
 384 544 l 2,4,5
 384 557 384 557 374.5 566.5 c 128,-1,6
 365 576 365 576 352 576 c 2,7,-1
 128 576 l 1,8,-1
 128 64 l 1,9,-1
 352 64 l 2,0,1
448 80 m 2,10,11
 448 47 448 47 424.5 23.5 c 128,-1,12
 401 0 401 0 368 0 c 2,13,-1
 64 0 l 1,14,-1
 64 640 l 1,15,-1
 368 640 l 2,16,17
 401 640 401 640 424.5 616.5 c 128,-1,18
 448 593 448 593 448 560 c 2,19,-1
 448 80 l 2,10,11
EndSplineSet
EndChar

StartChar: LATIN
Encoding: 69 69 40
Width: 512
GlyphClass: 1
Flags: W
HStem: 0 64<130.017 448> 288 64<129.45 352> 576 64<130.017 448>
VStem: 64 64<66.0171 286.55 353.45 573.983>
CounterMasks: 1 e0
LayerCount: 2
Fore
SplineSet
128 384 m 2,0,1
 128 371 128 371 137.5 361.5 c 128,-1,2
 147 352 147 352 160 352 c 2,3,-1
 352 352 l 1,4,-1
 352 288 l 1,5,-1
 160 288 l 2,6,7
 147 288 147 288 137.5 278.5 c 128,-1,8
 128 269 128 269 128 256 c 2,9,-1
 128 96 l 2,10,11
 128 83 128 83 137.5 73.5 c 128,-1,12
 147 64 147 64 160 64 c 2,13,-1
 448 64 l 1,14,-1
 448 0 l 1,15,-1
 144 0 l 2,16,17
 111 0 111 0 87.5 23.5 c 128,-1,18
 64 47 64 47 64 80 c 2,19,-1
 64 560 l 2,20,21
 64 593 64 593 87.5 616.5 c 128,-1,22
 111 640 111 640 144 640 c 2,23,-1
 448 640 l 1,24,-1
 448 576 l 1,25,-1
 160 576 l 2,26,27
 147 576 147 576 137.5 566.5 c 128,-1,28
 128 557 128 557 128 544 c 2,29,-1
 128 384 l 2,0,1
EndSplineSet
EndChar

StartChar: LATIN
Encoding: 70 70 41
Width: 512
GlyphClass: 1
Flags: W
HStem: 0 21G<64 128> 288 64<129.45 352> 576 64<130.017 448>
VStem: 64 64<0 286.55 353.45 573.983>
LayerCount: 2
Fore
SplineSet
128 0 m 1,0,-1
 64 0 l 1,1,-1
 64 560 l 2,2,3
 64 593 64 593 87.5 616.5 c 128,-1,4
 111 640 111 640 144 640 c 2,5,-1
 448 640 l 1,6,-1
 448 576 l 1,7,-1
 160 576 l 2,8,9
 147 576 147 576 137.5 566.5 c 128,-1,10
 128 557 128 557 128 544 c 2,11,-1
 128 384 l 2,12,13
 128 371 128 371 137.5 361.5 c 128,-1,14
 147 352 147 352 160 352 c 2,15,-1
 352 352 l 1,16,-1
 352 288 l 1,17,-1
 160 288 l 2,18,19
 147 288 147 288 137.5 278.5 c 128,-1,20
 128 269 128 269 128 256 c 2,21,-1
 128 0 l 1,0,-1
EndSplineSet
EndChar

StartChar: LATIN
Encoding: 71 71 42
Width: 512
GlyphClass: 1
Flags: W
HStem: 0 64<130.017 381.983> 288 64<256 381.983> 576 64<130.017 448>
VStem: 64 64<66.0171 573.983> 384 64<66.0171 285.983>
CounterMasks: 1 e0
LayerCount: 2
Fore
SplineSet
448 80 m 2,0,1
 448 47 448 47 424.5 23.5 c 128,-1,2
 401 0 401 0 368 0 c 2,3,-1
 144 0 l 2,4,5
 111 0 111 0 87.5 23.5 c 128,-1,6
 64 47 64 47 64 80 c 2,7,-1
 64 560 l 2,8,9
 64 593 64 593 87.5 616.5 c 128,-1,10
 111 640 111 640 144 640 c 2,11,-1
 448 640 l 1,12,-1
 448 576 l 1,13,-1
 160 576 l 2,14,15
 147 576 147 576 137.5 566.5 c 128,-1,16
 128 557 128 557 128 544 c 2,17,-1
 128 96 l 2,18,19
 128 83 128 83 137.5 73.5 c 128,-1,20
 147 64 147 64 160 64 c 2,21,-1
 352 64 l 2,22,23
 365 64 365 64 374.5 73.5 c 128,-1,24
 384 83 384 83 384 96 c 2,25,-1
 384 256 l 2,26,27
 384 269 384 269 374.5 278.5 c 128,-1,28
 365 288 365 288 352 288 c 2,29,-1
 256 288 l 1,30,-1
 256 352 l 1,31,-1
 368 352 l 2,32,33
 401 352 401 352 424.5 328.5 c 128,-1,34
 448 305 448 305 448 272 c 2,35,-1
 448 80 l 2,0,1
EndSplineSet
EndChar

StartChar: LATIN
Encoding: 72 72 43
Width: 512
GlyphClass: 1
Flags: W
HStem: 0 21G<64 128 384 448> 288 64<128 384> 620 20G<64 128 384 448>
VStem: 64 64<0 288 352 640> 384 64<0 288 352 640>
LayerCount: 2
Fore
SplineSet
384 0 m 1,0,-1
 384 288 l 1,1,-1
 128 288 l 1,2,-1
 128 0 l 1,3,-1
 64 0 l 1,4,-1
 64 640 l 1,5,-1
 128 640 l 1,6,-1
 128 352 l 1,7,-1
 384 352 l 1,8,-1
 384 640 l 1,9,-1
 448 640 l 1,10,-1
 448 0 l 1,11,-1
 384 0 l 1,0,-1
EndSplineSet
EndChar

StartChar: LATIN
Encoding: 73 73 44
Width: 512
GlyphClass: 1
Flags: W
HStem: 0 64<96 222.55 289.45 416> 576 64<96 222.55 289.45 416>
VStem: 224 64<65.4496 574.55>
LayerCount: 2
Fore
SplineSet
224 544 m 2,0,1
 224 557 224 557 214.5 566.5 c 128,-1,2
 205 576 205 576 192 576 c 2,3,-1
 96 576 l 1,4,-1
 96 640 l 1,5,-1
 416 640 l 1,6,-1
 416 576 l 1,7,-1
 320 576 l 2,8,9
 307 576 307 576 297.5 566.5 c 128,-1,10
 288 557 288 557 288 544 c 2,11,-1
 288 96 l 2,12,13
 288 83 288 83 297.5 73.5 c 128,-1,14
 307 64 307 64 320 64 c 2,15,-1
 416 64 l 1,16,-1
 416 0 l 1,17,-1
 96 0 l 1,18,-1
 96 64 l 1,19,-1
 192 64 l 2,20,21
 205 64 205 64 214.5 73.5 c 128,-1,22
 224 83 224 83 224 96 c 2,23,-1
 224 544 l 2,0,1
EndSplineSet
EndChar

StartChar: LATIN
Encoding: 74 74 45
Width: 512
GlyphClass: 1
Flags: W
HStem: 0 64<73.2825 222.333> 576 64<96 222.55 289.45 416>
VStem: 0 64<73.2825 130> 224 63<66.0171 574.182>
LayerCount: 2
Fore
SplineSet
287 80 m 2,0,1
 287 47 287 47 264 23.5 c 128,-1,2
 241 0 241 0 207 0 c 2,3,-1
 80 0 l 2,4,5
 47 0 47 0 23.5 23.5 c 128,-1,6
 0 47 0 47 0 80 c 2,7,-1
 0 130 l 1,8,-1
 64 130 l 1,9,-1
 64 96 l 2,10,11
 64 82 64 82 73 73 c 128,-1,12
 82 64 82 64 96 64 c 2,13,-1
 192 64 l 2,14,15
 205 64 205 64 214.5 73.5 c 128,-1,16
 224 83 224 83 224 96 c 2,17,-1
 224 544 l 2,18,19
 224 557 224 557 214.5 566.5 c 128,-1,20
 205 576 205 576 192 576 c 2,21,-1
 96 576 l 1,22,-1
 96 640 l 1,23,-1
 416 640 l 1,24,-1
 416 576 l 1,25,-1
 320 576 l 2,26,27
 307 576 307 576 297.5 566.5 c 128,-1,28
 288 557 288 557 288 544 c 2,29,-1
 287 80 l 2,0,1
EndSplineSet
EndChar

StartChar: LATIN
Encoding: 75 75 46
Width: 512
GlyphClass: 1
Flags: W
HStem: 0 21G<64 128 369.944 469> 620 20G<64 128 359.708 448>
VStem: 64 64<0 288 352 640>
LayerCount: 2
Fore
SplineSet
128 352 m 1,0,-1
 377 640 l 1,1,-1
 448 640 l 1,2,-1
 179 323 l 1,3,-1
 469 0 l 1,4,-1
 388 0 l 1,5,-1
 128 288 l 1,6,-1
 128 0 l 1,7,-1
 64 0 l 1,8,-1
 64 640 l 1,9,-1
 128 640 l 1,10,-1
 128 352 l 1,0,-1
EndSplineSet
EndChar

StartChar: LATIN
Encoding: 76 76 47
Width: 512
GlyphClass: 1
Flags: W
HStem: 0 64<130.017 448> 620 20G<64 128>
VStem: 64 64<66.0171 640>
LayerCount: 2
Fore
SplineSet
144 0 m 2,0,1
 111 0 111 0 87.5 23.5 c 128,-1,2
 64 47 64 47 64 80 c 2,3,-1
 64 640 l 1,4,-1
 128 640 l 1,5,-1
 128 96 l 2,6,7
 128 83 128 83 137.5 73.5 c 128,-1,8
 147 64 147 64 160 64 c 2,9,-1
 448 64 l 1,10,-1
 448 0 l 1,11,-1
 144 0 l 2,0,1
EndSplineSet
EndChar

StartChar: LATIN
Encoding: 77 77 48
Width: 512
GlyphClass: 1
Flags: W
HStem: 0 21G<64 128 384 448> 576 64<137.282 214.718 297.282 374.718>
VStem: 64 64<0 566.718> 224 64<288 566.718> 384 64<0 566.718>
CounterMasks: 1 38
LayerCount: 2
Fore
SplineSet
384 0 m 1,0,-1
 384 544 l 2,1,2
 384 558 384 558 375 567 c 128,-1,3
 366 576 366 576 352 576 c 2,4,-1
 320 576 l 2,5,6
 306 576 306 576 297 567 c 128,-1,7
 288 558 288 558 288 544 c 2,8,-1
 288 288 l 1,9,-1
 224 288 l 1,10,-1
 224 544 l 2,11,12
 224 558 224 558 215 567 c 128,-1,13
 206 576 206 576 192 576 c 2,14,-1
 160 576 l 2,15,16
 146 576 146 576 137 567 c 128,-1,17
 128 558 128 558 128 544 c 2,18,-1
 128 0 l 1,19,-1
 64 0 l 1,20,-1
 64 560 l 2,21,22
 64 593 64 593 87.5 616.5 c 128,-1,23
 111 640 111 640 144 640 c 2,24,-1
 368 640 l 2,25,26
 401 640 401 640 424.5 616.5 c 128,-1,27
 448 593 448 593 448 560 c 2,28,-1
 448 0 l 1,29,-1
 384 0 l 1,0,-1
EndSplineSet
EndChar

StartChar: LATIN
Encoding: 78 78 49
Width: 512
GlyphClass: 1
Flags: W
HStem: 0 21G<64 128 374.303 448> 620 20G<64 142.508 384 448>
VStem: 64 64<0 528> 384 64<112 640>
LayerCount: 2
Fore
SplineSet
128 528 m 1,0,-1
 128 0 l 1,1,-1
 64 0 l 1,2,-1
 64 640 l 1,3,-1
 133 640 l 1,4,-1
 384 112 l 1,5,-1
 384 640 l 1,6,-1
 448 640 l 1,7,-1
 448 0 l 1,8,-1
 384 0 l 1,9,-1
 128 528 l 1,0,-1
EndSplineSet
EndChar

StartChar: LATIN
Encoding: 79 79 50
Width: 512
GlyphClass: 1
Flags: W
HStem: 0 64<130.017 381.983> 576 64<130.017 381.983>
VStem: 64 64<66.0171 573.983> 384 64<66.0171 573.983>
LayerCount: 2
Fore
SplineSet
128 96 m 2,0,1
 128 83 128 83 137.5 73.5 c 128,-1,2
 147 64 147 64 160 64 c 2,3,-1
 352 64 l 2,4,5
 365 64 365 64 374.5 73.5 c 128,-1,6
 384 83 384 83 384 96 c 2,7,-1
 384 544 l 2,8,9
 384 557 384 557 374.5 566.5 c 128,-1,10
 365 576 365 576 352 576 c 2,11,-1
 160 576 l 2,12,13
 147 576 147 576 137.5 566.5 c 128,-1,14
 128 557 128 557 128 544 c 2,15,-1
 128 96 l 2,0,1
64 560 m 2,16,17
 64 593 64 593 87.5 616.5 c 128,-1,18
 111 640 111 640 144 640 c 2,19,-1
 368 640 l 2,20,21
 401 640 401 640 424.5 616.5 c 128,-1,22
 448 593 448 593 448 560 c 2,23,-1
 448 80 l 2,24,25
 448 47 448 47 424.5 23.5 c 128,-1,26
 401 0 401 0 368 0 c 2,27,-1
 144 0 l 2,28,29
 111 0 111 0 87.5 23.5 c 128,-1,30
 64 47 64 47 64 80 c 2,31,-1
 64 560 l 2,16,17
EndSplineSet
EndChar

StartChar: LATIN
Encoding: 80 80 51
Width: 512
GlyphClass: 1
Flags: W
HStem: 0 21G<64 128> 288 64<129.45 381.983> 576 64<130.017 381.983>
VStem: 64 64<0 286.55 353.45 573.983> 384 64<354.017 573.983>
LayerCount: 2
Fore
SplineSet
160 576 m 2,0,1
 147 576 147 576 137.5 566.5 c 128,-1,2
 128 557 128 557 128 544 c 2,3,-1
 128 384 l 2,4,5
 128 371 128 371 137.5 361.5 c 128,-1,6
 147 352 147 352 160 352 c 2,7,-1
 352 352 l 2,8,9
 365 352 365 352 374.5 361.5 c 128,-1,10
 384 371 384 371 384 384 c 2,11,-1
 384 544 l 2,12,13
 384 557 384 557 374.5 566.5 c 128,-1,14
 365 576 365 576 352 576 c 2,15,-1
 160 576 l 2,0,1
128 0 m 1,16,-1
 64 0 l 1,17,-1
 64 560 l 2,18,19
 64 593 64 593 87.5 616.5 c 128,-1,20
 111 640 111 640 144 640 c 2,21,-1
 368 640 l 2,22,23
 401 640 401 640 424.5 616.5 c 128,-1,24
 448 593 448 593 448 560 c 2,25,-1
 448 368 l 2,26,27
 448 335 448 335 424.5 311.5 c 128,-1,28
 401 288 401 288 368 288 c 2,29,-1
 160 288 l 2,30,31
 147 288 147 288 137.5 278.5 c 128,-1,32
 128 269 128 269 128 256 c 2,33,-1
 128 0 l 1,16,-1
EndSplineSet
EndChar

StartChar: LATIN
Encoding: 81 81 52
Width: 512
GlyphClass: 1
Flags: W
HStem: 0 64<130.017 222.405 319.595 381.983> 576 64<130.017 381.983>
VStem: 64 64<66.0171 573.983> 224 64<65.4496 121.327> 254 64<-32 -1.44958> 384 64<66.0171 573.983>
LayerCount: 2
Fore
SplineSet
352 64 m 2,0,1
 365 64 365 64 374.5 73.5 c 128,-1,2
 384 83 384 83 384 96 c 2,3,-1
 384 544 l 2,4,5
 384 557 384 557 374.5 566.5 c 128,-1,6
 365 576 365 576 352 576 c 2,7,-1
 160 576 l 2,8,9
 147 576 147 576 137.5 566.5 c 128,-1,10
 128 557 128 557 128 544 c 2,11,-1
 128 96 l 2,12,13
 128 83 128 83 137.5 73.5 c 128,-1,14
 147 64 147 64 160 64 c 2,15,-1
 192 64 l 2,16,17
 205 64 205 64 214.5 73.5 c 128,-1,18
 224 83 224 83 224 96 c 2,19,-1
 194 202 l 1,20,-1
 258 202 l 1,21,-1
 288 96 l 2,22,23
 288 83 288 83 297.5 73.5 c 128,-1,24
 307 64 307 64 320 64 c 2,25,-1
 352 64 l 2,0,1
348 -88 m 1,26,-1
 284 -88 l 1,27,-1
 254 -32 l 1,28,29
 254 -19 254 -19 244.5 -9.5 c 128,-1,30
 235 0 235 0 222 0 c 2,31,-1
 144 0 l 2,32,33
 111 0 111 0 87.5 23.5 c 128,-1,34
 64 47 64 47 64 80 c 2,35,-1
 64 560 l 2,36,37
 64 593 64 593 87.5 616.5 c 128,-1,38
 111 640 111 640 144 640 c 2,39,-1
 368 640 l 2,40,41
 401 640 401 640 424.5 616.5 c 128,-1,42
 448 593 448 593 448 560 c 2,43,-1
 448 80 l 2,44,45
 448 47 448 47 424.5 23.5 c 128,-1,46
 401 0 401 0 368 0 c 2,47,-1
 350 0 l 2,48,49
 337 0 337 0 327.5 -9.5 c 128,-1,50
 318 -19 318 -19 318 -32 c 1,51,-1
 348 -88 l 1,26,-1
EndSplineSet
EndChar

StartChar: LATIN
Encoding: 82 82 53
Width: 512
GlyphClass: 1
Flags: WO
HStem: 0 21G<64 128 372.194 448> 288 64<129.45 214 278 381.983> 576 64<130.017 381.983>
VStem: 64 64<0 286.55 353.45 573.983> 384 64<354.017 573.983>
LayerCount: 2
Fore
SplineSet
278 288 m 1,0,-1
 448 0 l 1,1,-1
 384 0 l 1,2,-1
 214 288 l 1,3,-1
 160 288 l 2,4,5
 147 288 147 288 137.5 278.5 c 128,-1,6
 128 269 128 269 128 256 c 2,7,8
 128 256 128 256 128 0 c 1,9,-1
 64 0 l 1,10,-1
 64 560 l 2,11,12
 64 593 64 593 87.5 616.5 c 128,-1,13
 111 640 111 640 144 640 c 2,14,15
 368 640 368 640 368 640 c 2,16,17
 401 640 401 640 424.5 616.5 c 128,-1,18
 448 593 448 593 448 560 c 2,19,20
 448 368 448 368 448 368 c 2,21,22
 448 335 448 335 424.5 311.5 c 128,-1,23
 401 288 401 288 368 288 c 2,24,25
 368 288 368 288 278 288 c 1,0,-1
160 576 m 2,26,27
 147 576 147 576 137.5 566.5 c 128,-1,28
 128 557 128 557 128 544 c 2,29,-1
 128 384 l 2,30,31
 128 371 128 371 137.5 361.5 c 128,-1,32
 147 352 147 352 160 352 c 2,33,-1
 352 352 l 2,34,35
 365 352 365 352 374.5 361.5 c 128,-1,36
 384 371 384 371 384 384 c 2,37,-1
 384 544 l 2,38,39
 384 557 384 557 374.5 566.5 c 128,-1,40
 365 576 365 576 352 576 c 2,41,-1
 160 576 l 2,26,27
EndSplineSet
EndChar

StartChar: LATIN
Encoding: 83 83 54
Width: 512
GlyphClass: 1
Flags: W
HStem: 0 64<64 381.983> 288 64<130.017 381.983> 576 64<130.017 448>
VStem: 64 64<354.017 573.983> 384 64<66.0171 285.983>
CounterMasks: 1 e0
LayerCount: 2
Fore
SplineSet
448 80 m 2,0,1
 448 47 448 47 424.5 23.5 c 128,-1,2
 401 0 401 0 368 0 c 2,3,-1
 64 0 l 1,4,-1
 64 64 l 1,5,-1
 352 64 l 2,6,7
 365 64 365 64 374.5 73.5 c 128,-1,8
 384 83 384 83 384 96 c 2,9,-1
 384 256 l 2,10,11
 384 269 384 269 374.5 278.5 c 128,-1,12
 365 288 365 288 352 288 c 2,13,-1
 144 288 l 2,14,15
 111 288 111 288 87.5 311.5 c 128,-1,16
 64 335 64 335 64 368 c 2,17,-1
 64 560 l 2,18,19
 64 593 64 593 87.5 616.5 c 128,-1,20
 111 640 111 640 144 640 c 2,21,-1
 448 640 l 1,22,-1
 448 576 l 1,23,-1
 160 576 l 2,24,25
 147 576 147 576 137.5 566.5 c 128,-1,26
 128 557 128 557 128 544 c 2,27,-1
 128 384 l 2,28,29
 128 371 128 371 137.5 361.5 c 128,-1,30
 147 352 147 352 160 352 c 2,31,-1
 368 352 l 2,32,33
 401 352 401 352 424.5 328.5 c 128,-1,34
 448 305 448 305 448 272 c 2,35,-1
 448 80 l 2,0,1
EndSplineSet
EndChar

StartChar: LATIN
Encoding: 84 84 55
Width: 512
GlyphClass: 1
Flags: W
HStem: 0 21G<224 288> 576 64<32 224 288 480>
VStem: 224 64<0 576>
LayerCount: 2
Fore
SplineSet
224 0 m 1,0,-1
 224 576 l 1,1,-1
 32 576 l 1,2,-1
 32 640 l 1,3,-1
 480 640 l 1,4,-1
 480 576 l 1,5,-1
 288 576 l 1,6,-1
 288 0 l 1,7,-1
 224 0 l 1,0,-1
EndSplineSet
EndChar

StartChar: LATIN
Encoding: 85 85 56
Width: 512
GlyphClass: 1
Flags: W
HStem: 0 64<130.017 381.983> 620 20G<64 128 384 448>
VStem: 64 64<66.0171 640> 384 64<66.0171 640>
LayerCount: 2
Fore
SplineSet
384 640 m 1,0,-1
 448 640 l 1,1,-1
 448 80 l 2,2,3
 448 47 448 47 424.5 23.5 c 128,-1,4
 401 0 401 0 368 0 c 2,5,-1
 144 0 l 2,6,7
 111 0 111 0 87.5 23.5 c 128,-1,8
 64 47 64 47 64 80 c 2,9,-1
 64 640 l 1,10,-1
 128 640 l 1,11,-1
 128 96 l 2,12,13
 128 83 128 83 137.5 73.5 c 128,-1,14
 147 64 147 64 160 64 c 2,15,-1
 352 64 l 2,16,17
 365 64 365 64 374.5 73.5 c 128,-1,18
 384 83 384 83 384 96 c 2,19,-1
 384 640 l 1,0,-1
EndSplineSet
EndChar

StartChar: LATIN
Encoding: 86 86 57
Width: 512
GlyphClass: 1
Flags: W
HStem: 0 21G<219 293> 620 20G<64 132.421 379.439 448>
VStem: 64 64<611.328 640> 384 64<611.328 640>
LayerCount: 2
Fore
SplineSet
448 640 m 1,0,-1
 288 0 l 1,1,-1
 224 0 l 1,2,-1
 64 640 l 1,3,-1
 128 640 l 1,4,-1
 254 70 l 1,5,-1
 384 640 l 1,6,-1
 448 640 l 1,0,-1
EndSplineSet
EndChar

StartChar: LATIN
Encoding: 87 87 58
Width: 512
GlyphClass: 1
Flags: W
HStem: 0 64<130.017 222.55 289.45 381.983> 620 20G<64 128 384 448>
VStem: 64 64<66.0171 640> 224 64<65.4496 352> 384 64<66.0171 640>
CounterMasks: 1 38
LayerCount: 2
Fore
SplineSet
384 640 m 1,0,-1
 448 640 l 1,1,-1
 448 80 l 2,2,3
 448 47 448 47 424.5 23.5 c 128,-1,4
 401 0 401 0 368 0 c 2,5,-1
 144 0 l 2,6,7
 111 0 111 0 87.5 23.5 c 128,-1,8
 64 47 64 47 64 80 c 2,9,-1
 64 640 l 1,10,-1
 128 640 l 1,11,-1
 128 96 l 2,12,13
 128 83 128 83 137.5 73.5 c 128,-1,14
 147 64 147 64 160 64 c 2,15,-1
 192 64 l 2,16,17
 205 64 205 64 214.5 73.5 c 128,-1,18
 224 83 224 83 224 96 c 2,19,-1
 224 352 l 1,20,-1
 288 352 l 1,21,-1
 288 96 l 2,22,23
 288 83 288 83 297.5 73.5 c 128,-1,24
 307 64 307 64 320 64 c 2,25,-1
 352 64 l 2,26,27
 365 64 365 64 374.5 73.5 c 128,-1,28
 384 83 384 83 384 96 c 2,29,-1
 384 640 l 1,0,-1
EndSplineSet
EndChar

StartChar: LATIN
Encoding: 88 88 59
Width: 512
GlyphClass: 1
Flags: W
HStem: 0 21G<64 138 374 448> 620 20G<64 138 374 448>
LayerCount: 2
Fore
SplineSet
384 640 m 1,0,-1
 448 640 l 1,1,-1
 288 320 l 1,2,-1
 448 0 l 1,3,-1
 384 0 l 1,4,-1
 256 256 l 1,5,-1
 128 0 l 1,6,-1
 64 0 l 1,7,-1
 224 320 l 1,8,-1
 64 640 l 1,9,-1
 128 640 l 1,10,-1
 256 384 l 1,11,-1
 384 640 l 1,0,-1
EndSplineSet
EndChar

StartChar: LATIN
Encoding: 89 89 60
Width: 512
GlyphClass: 1
Flags: W
HStem: 0 21G<224 288> 620 20G<64 128 384 448>
VStem: 64 64<464 640> 224 64<0 288> 384 64<464 640>
CounterMasks: 1 38
LayerCount: 2
Fore
SplineSet
256 337 m 1,0,-1
 384 464 l 1,1,-1
 384 640 l 1,2,-1
 448 640 l 1,3,-1
 448 448 l 1,4,-1
 288 288 l 1,5,-1
 288 0 l 1,6,-1
 224 0 l 1,7,-1
 224 288 l 1,8,-1
 64 448 l 1,9,-1
 64 640 l 1,10,-1
 128 640 l 1,11,-1
 128 464 l 1,12,-1
 256 337 l 1,0,-1
EndSplineSet
EndChar

StartChar: LATIN
Encoding: 90 90 61
AltUni2: 00017d.ffffffff.0 00017b.ffffffff.0 000179.ffffffff.0 00017d.ffffffff.0 00017b.ffffffff.0 000179.ffffffff.0
Width: 512
GlyphClass: 1
Flags: W
HStem: 0 64<160 448> 576 64<64 384>
LayerCount: 2
Fore
SplineSet
448 544 m 1,0,-1
 160 64 l 1,1,-1
 448 64 l 1,2,-1
 448 0 l 1,3,-1
 64 0 l 1,4,-1
 64 64 l 1,5,-1
 384 576 l 1,6,-1
 64 576 l 1,7,-1
 64 640 l 1,8,-1
 448 640 l 1,9,-1
 448 544 l 1,0,-1
EndSplineSet
EndChar

StartChar: LEFT
Encoding: 91 91 62
Width: 512
GlyphClass: 1
Flags: W
HStem: -128 64<160 416> 704 64<160 416>
VStem: 96 64<-64 704>
LayerCount: 2
Fore
SplineSet
96 -128 m 1,0,-1
 96 768 l 1,1,-1
 416 768 l 1,2,-1
 416 704 l 1,3,-1
 160 704 l 1,4,-1
 160 -64 l 1,5,-1
 416 -64 l 1,6,-1
 416 -128 l 1,7,-1
 96 -128 l 1,0,-1
EndSplineSet
EndChar

StartChar: REVERSE
Encoding: 92 92 63
Width: 512
GlyphClass: 1
Flags: W
LayerCount: 2
Fore
SplineSet
18 593 m 1,0,-1
 64 638 l 1,1,-1
 494 47 l 1,2,-1
 448 2 l 1,3,-1
 18 593 l 1,0,-1
EndSplineSet
EndChar

StartChar: RIGHT
Encoding: 93 93 64
Width: 512
GlyphClass: 1
Flags: W
HStem: -128 64<96 352> 704 64<96 352>
VStem: 352 64<-64 704>
LayerCount: 2
Fore
SplineSet
416 -128 m 1,0,-1
 96 -128 l 1,1,-1
 96 -64 l 1,2,-1
 352 -64 l 1,3,-1
 352 704 l 1,4,-1
 96 704 l 1,5,-1
 96 768 l 1,6,-1
 416 768 l 1,7,-1
 416 -128 l 1,0,-1
EndSplineSet
EndChar

StartChar: LOW
Encoding: 95 95 66
Width: 512
GlyphClass: 1
Flags: W
HStem: -128 64<32 480>
LayerCount: 2
Fore
SplineSet
32 -128 m 1,0,-1
 32 -64 l 1,1,-1
 480 -64 l 1,2,-1
 480 -128 l 1,3,-1
 32 -128 l 1,0,-1
EndSplineSet
EndChar

StartChar: LATIN
Encoding: 97 97 68
Width: 512
GlyphClass: 1
Flags: W
HStem: 0 64<130.017 382.55> 224 64<130.017 382.55> 384 64<64 381.983>
VStem: 64 64<66.0171 221.983> 384 64<65.4496 222.55 289.45 381.983>
LayerCount: 2
Fore
SplineSet
384 352 m 2,0,1
 384 365 384 365 374.5 374.5 c 128,-1,2
 365 384 365 384 352 384 c 2,3,-1
 64 384 l 1,4,-1
 64 448 l 1,5,-1
 368 448 l 2,6,7
 401 448 401 448 424.5 424.5 c 128,-1,8
 448 401 448 401 448 368 c 2,9,-1
 448 64 l 2,10,11
 448 38 448 38 429 19 c 128,-1,12
 410 0 410 0 384 0 c 2,13,-1
 144 0 l 2,14,15
 111 0 111 0 87.5 23.5 c 128,-1,16
 64 47 64 47 64 80 c 2,17,-1
 64 208 l 2,18,19
 64 241 64 241 87.5 264.5 c 128,-1,20
 111 288 111 288 144 288 c 2,21,-1
 352 288 l 2,22,23
 365 288 365 288 374.5 297.5 c 128,-1,24
 384 307 384 307 384 320 c 2,25,-1
 384 352 l 2,0,1
384 192 m 2,26,27
 384 205 384 205 374.5 214.5 c 128,-1,28
 365 224 365 224 352 224 c 2,29,-1
 160 224 l 2,30,31
 147 224 147 224 137.5 214.5 c 128,-1,32
 128 205 128 205 128 192 c 2,33,-1
 128 96 l 2,34,35
 128 83 128 83 137.5 73.5 c 128,-1,36
 147 64 147 64 160 64 c 2,37,-1
 352 64 l 2,38,39
 365 64 365 64 374.5 73.5 c 128,-1,40
 384 83 384 83 384 96 c 2,41,-1
 384 192 l 2,26,27
EndSplineSet
EndChar

StartChar: LATIN
Encoding: 98 98 69
Width: 512
GlyphClass: 1
Flags: W
HStem: 0 64<130.053 381.983> 384 64<129.45 381.983> 620 20G<64 128>
VStem: 65 63<66.0171 382.55 449.45 640> 384 64<66.0171 381.983>
LayerCount: 2
Fore
SplineSet
368 448 m 2,0,1
 401 448 401 448 424.5 424.5 c 128,-1,2
 448 401 448 401 448 368 c 2,3,-1
 448 80 l 2,4,5
 448 47 448 47 424.5 23.5 c 128,-1,6
 401 0 401 0 368 0 c 2,7,-1
 145 0 l 2,8,9
 112 0 112 0 88.5 23.5 c 128,-1,10
 65 47 65 47 65 80 c 2,11,-1
 64 640 l 1,12,-1
 128 640 l 1,13,-1
 128 480 l 2,14,15
 128 467 128 467 137.5 457.5 c 128,-1,16
 147 448 147 448 160 448 c 2,17,-1
 368 448 l 2,0,1
128 96 m 2,18,19
 128 83 128 83 137.5 73.5 c 128,-1,20
 147 64 147 64 160 64 c 2,21,-1
 352 64 l 2,22,23
 365 64 365 64 374.5 73.5 c 128,-1,24
 384 83 384 83 384 96 c 2,25,-1
 384 352 l 2,26,27
 384 365 384 365 374.5 374.5 c 128,-1,28
 365 384 365 384 352 384 c 2,29,-1
 160 384 l 2,30,31
 147 384 147 384 137.5 374.5 c 128,-1,32
 128 365 128 365 128 352 c 2,33,-1
 128 96 l 2,18,19
EndSplineSet
EndChar

StartChar: LATIN
Encoding: 99 99 70
Width: 512
GlyphClass: 1
Flags: W
HStem: 0 64<130.017 448> 384 64<130.017 448>
VStem: 64 64<66.0171 381.983>
LayerCount: 2
Fore
SplineSet
64 368 m 2,0,1
 64 401 64 401 87.5 424.5 c 128,-1,2
 111 448 111 448 144 448 c 2,3,-1
 448 448 l 1,4,-1
 448 384 l 1,5,-1
 160 384 l 2,6,7
 147 384 147 384 137.5 374.5 c 128,-1,8
 128 365 128 365 128 352 c 2,9,-1
 128 96 l 2,10,11
 128 83 128 83 137.5 73.5 c 128,-1,12
 147 64 147 64 160 64 c 2,13,-1
 448 64 l 1,14,-1
 448 0 l 1,15,-1
 144 0 l 2,16,17
 111 0 111 0 87.5 23.5 c 128,-1,18
 64 47 64 47 64 80 c 2,19,-1
 64 368 l 2,0,1
EndSplineSet
EndChar

StartChar: LATIN
Encoding: 100 100 71
Width: 512
GlyphClass: 1
Flags: W
HStem: 0 64<130.017 381.983> 384 64<130.017 382.55> 620 20G<384 448>
VStem: 64 64<66.0171 381.983> 384 64<66.0171 382.55 449.45 640>
LayerCount: 2
Fore
SplineSet
384 640 m 1,0,-1
 448 640 l 1,1,-1
 448 80 l 2,2,3
 448 47 448 47 424.5 23.5 c 128,-1,4
 401 0 401 0 368 0 c 2,5,-1
 144 0 l 2,6,7
 111 0 111 0 87.5 23.5 c 128,-1,8
 64 47 64 47 64 80 c 2,9,-1
 64 368 l 2,10,11
 64 401 64 401 87.5 424.5 c 128,-1,12
 111 448 111 448 144 448 c 2,13,-1
 352 448 l 2,14,15
 365 448 365 448 374.5 457.5 c 128,-1,16
 384 467 384 467 384 480 c 2,17,-1
 384 640 l 1,0,-1
384 352 m 2,18,19
 384 365 384 365 374.5 374.5 c 128,-1,20
 365 384 365 384 352 384 c 2,21,-1
 160 384 l 2,22,23
 147 384 147 384 137.5 374.5 c 128,-1,24
 128 365 128 365 128 352 c 2,25,-1
 128 96 l 2,26,27
 128 83 128 83 137.5 73.5 c 128,-1,28
 147 64 147 64 160 64 c 2,29,-1
 352 64 l 2,30,31
 365 64 365 64 374.5 73.5 c 128,-1,32
 384 83 384 83 384 96 c 2,33,-1
 384 352 l 2,18,19
EndSplineSet
EndChar

StartChar: LATIN
Encoding: 101 101 72
Width: 512
GlyphClass: 1
Flags: W
HStem: 0 64<130.017 448> 192 64<129.45 382.55> 384 64<130.017 382.55>
VStem: 64 64<66.0171 190.55 257.45 381.983> 384 64<257.45 382.55>
CounterMasks: 1 e0
LayerCount: 2
Fore
SplineSet
352 256 m 2,0,1
 365 256 365 256 374.5 265.5 c 128,-1,2
 384 275 384 275 384 288 c 2,3,-1
 384 352 l 2,4,5
 384 365 384 365 374.5 374.5 c 128,-1,6
 365 384 365 384 352 384 c 2,7,-1
 160 384 l 2,8,9
 147 384 147 384 137.5 374.5 c 128,-1,10
 128 365 128 365 128 352 c 2,11,-1
 128 288 l 2,12,13
 128 275 128 275 137.5 265.5 c 128,-1,14
 147 256 147 256 160 256 c 2,15,-1
 352 256 l 2,0,1
160 192 m 2,16,17
 147 192 147 192 137.5 182.5 c 128,-1,18
 128 173 128 173 128 160 c 2,19,-1
 128 96 l 2,20,21
 128 83 128 83 137.5 73.5 c 128,-1,22
 147 64 147 64 160 64 c 2,23,-1
 448 64 l 1,24,-1
 448 0 l 1,25,-1
 144 0 l 2,26,27
 111 0 111 0 87.5 23.5 c 128,-1,28
 64 47 64 47 64 80 c 2,29,-1
 64 368 l 2,30,31
 64 401 64 401 87.5 424.5 c 128,-1,32
 111 448 111 448 144 448 c 2,33,-1
 384 448 l 2,34,35
 410 448 410 448 429 429 c 128,-1,36
 448 410 448 410 448 384 c 2,37,-1
 448 256 l 2,38,39
 448 230 448 230 429 211 c 128,-1,40
 410 192 410 192 384 192 c 2,41,-1
 160 192 l 2,16,17
EndSplineSet
EndChar

StartChar: LATIN
Encoding: 102 102 73
Width: 512
GlyphClass: 1
Flags: W
HStem: 0 21G<160 224> 384 64<64 150.718 225.45 352> 576 64<233.282 448>
VStem: 160 64<0 374.718 457.282 566.718>
LayerCount: 2
Fore
SplineSet
224 544 m 2,0,-1
 224 480 l 2,1,2
 224 467 224 467 233.5 457.5 c 128,-1,3
 243 448 243 448 256 448 c 2,4,-1
 352 448 l 1,5,-1
 352 384 l 1,6,-1
 256 384 l 2,7,8
 243 384 243 384 233.5 374.5 c 128,-1,9
 224 365 224 365 224 352 c 2,10,-1
 224 0 l 1,11,-1
 160 0 l 1,12,-1
 160 352 l 2,13,14
 160 366 160 366 151 375 c 128,-1,15
 142 384 142 384 128 384 c 2,16,-1
 64 384 l 1,17,-1
 64 448 l 1,18,-1
 128 448 l 2,19,20
 142 448 142 448 151 457 c 128,-1,21
 160 466 160 466 160 480 c 2,22,-1
 160 560 l 2,23,24
 160 593 160 593 183 616.5 c 128,-1,25
 206 640 206 640 240 640 c 2,26,-1
 448 640 l 1,27,-1
 448 576 l 1,28,-1
 256 576 l 2,29,30
 242 576 242 576 233 567 c 128,-1,31
 224 558 224 558 224 544 c 2,0,-1
EndSplineSet
EndChar

StartChar: LATIN
Encoding: 103 103 74
Width: 512
GlyphClass: 1
Flags: W
HStem: -192 64<64 374.718> 0 64<137.282 374.718> 384 64<137.282 374.718>
VStem: 64 64<73.2825 374.718> 384 64<-118.718 -9.28247 73.2825 374.718>
LayerCount: 2
Fore
SplineSet
384 96 m 2,0,-1
 384 352 l 2,1,2
 384 366 384 366 375 375 c 128,-1,3
 366 384 366 384 352 384 c 2,4,-1
 160 384 l 2,5,6
 146 384 146 384 137 375 c 128,-1,7
 128 366 128 366 128 352 c 2,8,-1
 128 96 l 2,9,10
 128 82 128 82 137 73 c 128,-1,11
 146 64 146 64 160 64 c 2,12,-1
 352 64 l 2,13,14
 366 64 366 64 375 73 c 128,-1,15
 384 82 384 82 384 96 c 2,0,-1
448 368 m 2,16,-1
 448 -112 l 2,17,18
 448 -145 448 -145 424.5 -168.5 c 128,-1,19
 401 -192 401 -192 368 -192 c 2,20,-1
 64 -192 l 1,21,-1
 64 -128 l 1,22,-1
 352 -128 l 2,23,24
 366 -128 366 -128 375 -119 c 128,-1,25
 384 -110 384 -110 384 -96 c 2,26,-1
 384 -32 l 2,27,28
 384 -18 384 -18 375 -9 c 128,-1,29
 366 0 366 0 352 0 c 2,30,-1
 144 0 l 2,31,32
 111 0 111 0 87.5 23.5 c 128,-1,33
 64 47 64 47 64 80 c 2,34,-1
 64 368 l 2,35,36
 64 401 64 401 87.5 424.5 c 128,-1,37
 111 448 111 448 144 448 c 2,38,-1
 368 448 l 2,39,40
 401 448 401 448 424.5 424.5 c 128,-1,41
 448 401 448 401 448 368 c 2,16,-1
EndSplineSet
EndChar

StartChar: LATIN
Encoding: 104 104 75
Width: 512
GlyphClass: 1
Flags: W
HStem: 0 21G<64 128 384 448> 384 64<129.45 381.983> 620 20G<64 128>
VStem: 64 64<0 382.55 449.45 640> 384 64<0 381.983>
LayerCount: 2
Fore
SplineSet
368 448 m 2,0,1
 401 448 401 448 424.5 424.5 c 128,-1,2
 448 401 448 401 448 368 c 2,3,-1
 448 0 l 1,4,-1
 384 0 l 1,5,-1
 384 352 l 2,6,7
 384 365 384 365 374.5 374.5 c 128,-1,8
 365 384 365 384 352 384 c 2,9,-1
 160 384 l 2,10,11
 147 384 147 384 137.5 374.5 c 128,-1,12
 128 365 128 365 128 352 c 2,13,-1
 128 0 l 1,14,-1
 64 0 l 1,15,-1
 64 640 l 1,16,-1
 128 640 l 1,17,-1
 128 480 l 2,18,19
 128 467 128 467 137.5 457.5 c 128,-1,20
 147 448 147 448 160 448 c 2,21,-1
 368 448 l 2,0,1
EndSplineSet
EndChar

StartChar: LATIN
Encoding: 105 105 76
Width: 512
GlyphClass: 1
Flags: W
HStem: 0 64<290.017 352> 384 64<160 221.983> 544 96<224 288>
VStem: 224 64<66.0171 381.983 544 640>
LayerCount: 2
Fore
SplineSet
288 544 m 1,0,-1
 224 544 l 1,1,-1
 224 640 l 1,2,-1
 288 640 l 1,3,-1
 288 544 l 1,0,-1
288 96 m 2,4,5
 288 83 288 83 297.5 73.5 c 128,-1,6
 307 64 307 64 320 64 c 2,7,-1
 352 64 l 1,8,-1
 352 0 l 1,9,-1
 304 0 l 2,10,11
 271 0 271 0 247.5 23.5 c 128,-1,12
 224 47 224 47 224 80 c 2,13,-1
 224 352 l 2,14,15
 224 365 224 365 214.5 374.5 c 128,-1,16
 205 384 205 384 192 384 c 2,17,-1
 160 384 l 1,18,-1
 160 448 l 1,19,-1
 208 448 l 2,20,21
 241 448 241 448 264.5 424.5 c 128,-1,22
 288 401 288 401 288 368 c 2,23,-1
 288 96 l 2,4,5
EndSplineSet
EndChar

StartChar: LATIN
Encoding: 106 106 77
Width: 512
GlyphClass: 1
Flags: W
HStem: -192 64<34 214.718> 428 20G<224 288> 544 96<224 288>
VStem: 224 64<-118.718 448 544 640>
LayerCount: 2
Fore
SplineSet
288 -112 m 2,0,1
 288 -145 288 -145 265 -168.5 c 128,-1,2
 242 -192 242 -192 208 -192 c 2,3,-1
 34 -192 l 1,4,-1
 34 -128 l 1,5,-1
 192 -128 l 2,6,7
 206 -128 206 -128 215 -119 c 128,-1,8
 224 -110 224 -110 224 -96 c 2,9,-1
 224 448 l 1,10,-1
 288 448 l 1,11,-1
 288 -112 l 2,0,1
288 640 m 1,12,-1
 288 544 l 1,13,-1
 224 544 l 1,14,-1
 224 640 l 1,15,-1
 288 640 l 1,12,-1
EndSplineSet
EndChar

StartChar: LATIN
Encoding: 107 107 78
Width: 512
GlyphClass: 1
Flags: W
HStem: 0 21G<73 137 338.356 439> 428 20G<276.874 375> 620 20G<73 137>
VStem: 73 64<0 225 289 640>
LayerCount: 2
Fore
SplineSet
137 289 m 1,0,-1
 297 448 l 1,1,-1
 375 448 l 1,2,-1
 188 260 l 1,3,-1
 439 0 l 1,4,-1
 358 0 l 1,5,-1
 137 225 l 1,6,-1
 137 0 l 1,7,-1
 73 0 l 1,8,-1
 73 640 l 1,9,-1
 137 640 l 1,10,-1
 137 289 l 1,0,-1
EndSplineSet
EndChar

StartChar: LATIN
Encoding: 108 108 79
Width: 512
GlyphClass: 1
Flags: W
HStem: 0 64<226.017 416> 620 20G<160 224>
VStem: 160 64<66.0171 640>
LayerCount: 2
Fore
SplineSet
160 80 m 2,0,-1
 160 640 l 1,1,-1
 224 640 l 1,2,-1
 224 96 l 2,3,4
 224 83 224 83 233.5 73.5 c 128,-1,5
 243 64 243 64 256 64 c 2,6,-1
 416 64 l 1,7,-1
 416 0 l 1,8,-1
 240 0 l 2,9,10
 207 0 207 0 183.5 23.5 c 128,-1,11
 160 47 160 47 160 80 c 2,0,-1
EndSplineSet
EndChar

StartChar: LATIN
Encoding: 109 109 80
Width: 512
GlyphClass: 1
Flags: W
HStem: 0 21G<64 128 384 448> 384 64<130.017 220.55 289.45 381.983>
VStem: 64 64<0 381.983> 222 66<192 382.55> 384 64<0 381.983>
LayerCount: 2
Fore
SplineSet
288 192 m 1,0,-1
 222 192 l 1,1,-1
 222 352 l 2,2,3
 222 365 222 365 212.5 374.5 c 128,-1,4
 203 384 203 384 190 384 c 2,5,-1
 160 384 l 2,6,7
 147 384 147 384 137.5 374.5 c 128,-1,8
 128 365 128 365 128 352 c 2,9,-1
 128 0 l 1,10,-1
 64 0 l 1,11,-1
 64 368 l 2,12,13
 64 401 64 401 87.5 424.5 c 128,-1,14
 111 448 111 448 144 448 c 2,15,-1
 368 448 l 2,16,17
 401 448 401 448 424.5 424.5 c 128,-1,18
 448 401 448 401 448 368 c 2,19,-1
 448 0 l 1,20,-1
 384 0 l 1,21,-1
 384 352 l 2,22,23
 384 365 384 365 374.5 374.5 c 128,-1,24
 365 384 365 384 352 384 c 2,25,-1
 320 384 l 2,26,27
 307 384 307 384 297.5 374.5 c 128,-1,28
 288 365 288 365 288 352 c 2,29,-1
 288 192 l 1,0,-1
EndSplineSet
EndChar

StartChar: LATIN
Encoding: 110 110 81
Width: 512
GlyphClass: 1
Flags: W
HStem: 0 21G<64 128 384 448> 384 64<130.017 381.983>
VStem: 64 64<0 381.983> 384 64<0 381.983>
LayerCount: 2
Fore
SplineSet
128 0 m 1,0,-1
 64 0 l 1,1,-1
 64 368 l 2,2,3
 64 401 64 401 87.5 424.5 c 128,-1,4
 111 448 111 448 144 448 c 2,5,-1
 368 448 l 2,6,7
 401 448 401 448 424.5 424.5 c 128,-1,8
 448 401 448 401 448 368 c 2,9,-1
 448 0 l 1,10,-1
 384 0 l 1,11,-1
 384 352 l 2,12,13
 384 365 384 365 374.5 374.5 c 128,-1,14
 365 384 365 384 352 384 c 2,15,-1
 160 384 l 2,16,17
 147 384 147 384 137.5 374.5 c 128,-1,18
 128 365 128 365 128 352 c 2,19,-1
 128 0 l 1,0,-1
EndSplineSet
EndChar

StartChar: LATIN
Encoding: 111 111 82
Width: 512
GlyphClass: 1
Flags: W
HStem: 0 64<130.017 381.983> 384 64<130.017 381.983>
VStem: 64 64<66.0171 381.983> 384 64<66.0171 381.983>
LayerCount: 2
Fore
SplineSet
352 64 m 2,0,1
 365 64 365 64 374.5 73.5 c 128,-1,2
 384 83 384 83 384 96 c 2,3,-1
 384 352 l 2,4,5
 384 365 384 365 374.5 374.5 c 128,-1,6
 365 384 365 384 352 384 c 2,7,-1
 160 384 l 2,8,9
 147 384 147 384 137.5 374.5 c 128,-1,10
 128 365 128 365 128 352 c 2,11,-1
 128 96 l 2,12,13
 128 83 128 83 137.5 73.5 c 128,-1,14
 147 64 147 64 160 64 c 2,15,-1
 352 64 l 2,0,1
64 368 m 2,16,17
 64 401 64 401 87.5 424.5 c 128,-1,18
 111 448 111 448 144 448 c 2,19,-1
 368 448 l 2,20,21
 401 448 401 448 424.5 424.5 c 128,-1,22
 448 401 448 401 448 368 c 2,23,-1
 448 80 l 2,24,25
 448 47 448 47 424.5 23.5 c 128,-1,26
 401 0 401 0 368 0 c 2,27,-1
 144 0 l 2,28,29
 111 0 111 0 87.5 23.5 c 128,-1,30
 64 47 64 47 64 80 c 2,31,-1
 64 368 l 2,16,17
EndSplineSet
EndChar

StartChar: LATIN
Encoding: 112 112 83
Width: 512
GlyphClass: 1
Flags: W
HStem: -192 21G<64 128> 0 64<129.45 381.983> 384 64<130.017 381.983>
VStem: 64 64<-192 -1.44958 65.4496 381.983> 384 64<66.0171 381.983>
LayerCount: 2
Fore
SplineSet
352 64 m 2,0,1
 365 64 365 64 374.5 73.5 c 128,-1,2
 384 83 384 83 384 96 c 2,3,-1
 384 352 l 2,4,5
 384 365 384 365 374.5 374.5 c 128,-1,6
 365 384 365 384 352 384 c 2,7,-1
 160 384 l 2,8,9
 147 384 147 384 137.5 374.5 c 128,-1,10
 128 365 128 365 128 352 c 2,11,-1
 128 96 l 2,12,13
 128 83 128 83 137.5 73.5 c 128,-1,14
 147 64 147 64 160 64 c 2,15,-1
 352 64 l 2,0,1
64 368 m 2,16,17
 64 401 64 401 87.5 424.5 c 128,-1,18
 111 448 111 448 144 448 c 2,19,-1
 368 448 l 2,20,21
 401 448 401 448 424.5 424.5 c 128,-1,22
 448 401 448 401 448 368 c 2,23,-1
 448 80 l 2,24,25
 448 47 448 47 424.5 23.5 c 128,-1,26
 401 0 401 0 368 0 c 2,27,-1
 160 0 l 2,28,29
 147 0 147 0 137.5 -9.5 c 128,-1,30
 128 -19 128 -19 128 -32 c 2,31,-1
 128 -192 l 1,32,-1
 64 -192 l 1,33,-1
 64 368 l 2,16,17
EndSplineSet
EndChar

StartChar: LATIN
Encoding: 113 113 84
Width: 512
GlyphClass: 1
Flags: W
HStem: -192 21G<384 448> 0 64<137.282 374.718> 384 64<137.282 374.718>
VStem: 64 64<73.2825 374.718> 384 64<-192 -9.28247 73.2825 374.718>
LayerCount: 2
Fore
SplineSet
160 64 m 2,0,-1
 352 64 l 2,1,2
 366 64 366 64 375 73 c 128,-1,3
 384 82 384 82 384 96 c 2,4,-1
 384 352 l 2,5,6
 384 366 384 366 375 375 c 128,-1,7
 366 384 366 384 352 384 c 2,8,-1
 160 384 l 2,9,10
 146 384 146 384 137 375 c 128,-1,11
 128 366 128 366 128 352 c 2,12,-1
 128 96 l 2,13,14
 128 82 128 82 137 73 c 128,-1,15
 146 64 146 64 160 64 c 2,0,-1
448 368 m 2,16,-1
 448 -192 l 1,17,-1
 384 -192 l 1,18,-1
 384 -32 l 2,19,20
 384 -18 384 -18 375 -9 c 128,-1,21
 366 0 366 0 352 0 c 2,22,-1
 144 0 l 2,23,24
 111 0 111 0 87.5 23.5 c 128,-1,25
 64 47 64 47 64 80 c 2,26,-1
 64 368 l 2,27,28
 64 401 64 401 87.5 424.5 c 128,-1,29
 111 448 111 448 144 448 c 2,30,-1
 368 448 l 2,31,32
 401 448 401 448 424.5 424.5 c 128,-1,33
 448 401 448 401 448 368 c 2,16,-1
EndSplineSet
EndChar

StartChar: LATIN
Encoding: 114 114 85
Width: 512
GlyphClass: 1
Flags: W
HStem: 0 21G<64 128> 384 64<130.017 448>
VStem: 64 64<0 381.983>
LayerCount: 2
Fore
SplineSet
448 384 m 1,0,-1
 160 384 l 2,1,2
 147 384 147 384 137.5 374.5 c 128,-1,3
 128 365 128 365 128 352 c 2,4,-1
 128 0 l 1,5,-1
 64 0 l 1,6,-1
 64 368 l 2,7,8
 64 401 64 401 87.5 424.5 c 128,-1,9
 111 448 111 448 144 448 c 2,10,-1
 448 448 l 1,11,-1
 448 384 l 1,0,-1
EndSplineSet
EndChar

StartChar: LATIN
Encoding: 115 115 86
Width: 512
GlyphClass: 1
Flags: W
HStem: 0 64<64 381.983> 192 64<130.017 381.983> 384 64<130.017 448>
VStem: 64 64<258.017 381.983> 384 64<66.0171 189.983>
CounterMasks: 1 e0
LayerCount: 2
Fore
SplineSet
160 384 m 2,0,1
 147 384 147 384 137.5 374.5 c 128,-1,2
 128 365 128 365 128 352 c 2,3,-1
 128 288 l 2,4,5
 128 275 128 275 137.5 265.5 c 128,-1,6
 147 256 147 256 160 256 c 2,7,-1
 368 256 l 2,8,9
 401 256 401 256 424.5 232.5 c 128,-1,10
 448 209 448 209 448 176 c 2,11,-1
 448 80 l 2,12,13
 448 47 448 47 424.5 23.5 c 128,-1,14
 401 0 401 0 368 0 c 2,15,-1
 64 0 l 1,16,-1
 64 64 l 1,17,-1
 352 64 l 2,18,19
 365 64 365 64 374.5 73.5 c 128,-1,20
 384 83 384 83 384 96 c 2,21,-1
 384 160 l 2,22,23
 384 173 384 173 374.5 182.5 c 128,-1,24
 365 192 365 192 352 192 c 2,25,-1
 144 192 l 2,26,27
 111 192 111 192 87.5 215.5 c 128,-1,28
 64 239 64 239 64 272 c 2,29,-1
 64 368 l 2,30,31
 64 401 64 401 87.5 424.5 c 128,-1,32
 111 448 111 448 144 448 c 2,33,-1
 448 448 l 1,34,-1
 448 384 l 1,35,-1
 160 384 l 2,0,1
EndSplineSet
EndChar

StartChar: LATIN
Encoding: 116 116 87
Width: 512
GlyphClass: 1
Flags: W
HStem: 0 64<233.282 416> 384 64<64 150.718 225.45 352> 620 20G<160 224>
VStem: 160 64<73.2825 374.718 457.282 640>
LayerCount: 2
Fore
SplineSet
224 352 m 2,0,-1
 224 96 l 2,1,2
 224 82 224 82 233 73 c 128,-1,3
 242 64 242 64 256 64 c 2,4,-1
 416 64 l 1,5,-1
 416 0 l 1,6,-1
 240 0 l 2,7,8
 207 0 207 0 183.5 23.5 c 128,-1,9
 160 47 160 47 160 80 c 2,10,-1
 160 352 l 2,11,12
 160 366 160 366 151 375 c 128,-1,13
 142 384 142 384 128 384 c 2,14,-1
 64 384 l 1,15,-1
 64 448 l 1,16,-1
 128 448 l 2,17,18
 142 448 142 448 151 457 c 128,-1,19
 160 466 160 466 160 480 c 2,20,-1
 160 640 l 1,21,-1
 224 640 l 1,22,-1
 224 480 l 2,23,24
 224 467 224 467 233.5 457.5 c 128,-1,25
 243 448 243 448 256 448 c 2,26,-1
 352 448 l 1,27,-1
 352 384 l 1,28,-1
 256 384 l 2,29,30
 243 384 243 384 233.5 374.5 c 128,-1,31
 224 365 224 365 224 352 c 2,0,-1
EndSplineSet
EndChar

StartChar: LATIN
Encoding: 117 117 88
Width: 512
GlyphClass: 1
Flags: W
HStem: 0 64<137.282 374.718> 428 20G<64 128 384 448>
VStem: 64 64<73.2825 448> 384 64<73.2825 448>
LayerCount: 2
Fore
SplineSet
128 448 m 1,0,-1
 128 96 l 2,1,2
 128 82 128 82 137 73 c 128,-1,3
 146 64 146 64 160 64 c 2,4,-1
 352 64 l 2,5,6
 366 64 366 64 375 73 c 128,-1,7
 384 82 384 82 384 96 c 2,8,-1
 384 448 l 1,9,-1
 448 448 l 1,10,-1
 448 80 l 2,11,12
 448 47 448 47 424.5 23.5 c 128,-1,13
 401 0 401 0 368 0 c 2,14,-1
 144 0 l 2,15,16
 111 0 111 0 87.5 23.5 c 128,-1,17
 64 47 64 47 64 80 c 2,18,-1
 64 448 l 1,19,-1
 128 448 l 1,0,-1
EndSplineSet
EndChar

StartChar: LATIN
Encoding: 118 118 89
Width: 512
GlyphClass: 1
Flags: W
LayerCount: 2
Fore
SplineSet
448 448 m 1,0,-1
 288 0 l 1,1,-1
 224 0 l 1,2,-1
 64 448 l 1,3,-1
 128 448 l 1,4,-1
 254 70 l 1,5,-1
 384 448 l 1,6,-1
 448 448 l 1,0,-1
EndSplineSet
EndChar

StartChar: LATIN
Encoding: 120 120 91
Width: 512
GlyphClass: 1
Flags: W
HStem: 0 21G<61 145.286 366.714 451> 428 20G<61 145.286 366.714 451>
LayerCount: 2
Fore
SplineSet
61 448 m 1,0,-1
 131 448 l 1,1,-1
 256 273 l 1,2,-1
 381 448 l 1,3,-1
 451 448 l 1,4,-1
 291 224 l 1,5,-1
 451 0 l 1,6,-1
 381 0 l 1,7,-1
 256 175 l 1,8,-1
 131 0 l 1,9,-1
 61 0 l 1,10,-1
 221 224 l 1,11,-1
 61 448 l 1,0,-1
EndSplineSet
EndChar

StartChar: LATIN
Encoding: 121 121 92
Width: 512
GlyphClass: 1
Flags: W
HStem: -192 64<64 381.983> 0 64<130.017 384> 428 20G<64 128 384 448>
VStem: 64 64<66.0171 448> 384 64<-125.983 0 64 448>
LayerCount: 2
Fore
SplineSet
448 -112 m 2,0,1
 448 -145 448 -145 424.5 -168.5 c 128,-1,2
 401 -192 401 -192 368 -192 c 2,3,-1
 64 -192 l 1,4,-1
 64 -128 l 1,5,-1
 352 -128 l 2,6,7
 365 -128 365 -128 374.5 -118.5 c 128,-1,8
 384 -109 384 -109 384 -96 c 2,9,-1
 384 0 l 1,10,-1
 144 0 l 2,11,12
 111 0 111 0 87.5 23.5 c 128,-1,13
 64 47 64 47 64 80 c 2,14,-1
 64 448 l 1,15,-1
 128 448 l 1,16,-1
 128 96 l 2,17,18
 128 83 128 83 137.5 73.5 c 128,-1,19
 147 64 147 64 160 64 c 2,20,-1
 384 64 l 1,21,-1
 384 448 l 1,22,-1
 448 448 l 1,23,-1
 448 -112 l 2,0,1
EndSplineSet
EndChar

StartChar: LATIN
Encoding: 122 122 93
Width: 512
GlyphClass: 1
Flags: W
HStem: 0 64<160 448> 384 64<64 384>
LayerCount: 2
Fore
SplineSet
448 352 m 1,0,-1
 160 64 l 1,1,-1
 448 64 l 1,2,-1
 448 0 l 1,3,-1
 64 0 l 1,4,-1
 64 64 l 1,5,-1
 384 384 l 1,6,-1
 64 384 l 1,7,-1
 64 448 l 1,8,-1
 448 448 l 1,9,-1
 448 352 l 1,0,-1
EndSplineSet
EndChar

StartChar: LEFT
Encoding: 123 123 94
Width: 512
GlyphClass: 1
Flags: W
HStem: -128 64<258.017 448> 256 128<64 177.561> 704 64<258.017 448>
VStem: 64 128<288 352> 192 64<-61.9829 241.561 398.439 701.983>
CounterMasks: 1 e0
LayerCount: 2
Fore
SplineSet
192 688 m 2,0,1
 192 721 192 721 215.5 744.5 c 128,-1,2
 239 768 239 768 272 768 c 2,3,-1
 448 768 l 1,4,-1
 448 704 l 1,5,-1
 288 704 l 2,6,7
 275 704 275 704 265.5 694.5 c 128,-1,8
 256 685 256 685 256 672 c 2,9,-1
 256 400 l 2,10,11
 256 380 256 380 242 366 c 128,-1,12
 228 352 228 352 208 352 c 2,13,-1
 192 352 l 1,14,-1
 192 288 l 1,15,-1
 208 288 l 2,16,17
 228 288 228 288 242 274 c 128,-1,18
 256 260 256 260 256 240 c 2,19,-1
 256 -32 l 2,20,21
 256 -45 256 -45 265.5 -54.5 c 128,-1,22
 275 -64 275 -64 288 -64 c 2,23,-1
 448 -64 l 1,24,-1
 448 -128 l 1,25,-1
 272 -128 l 2,26,27
 239 -128 239 -128 215.5 -104.5 c 128,-1,28
 192 -81 192 -81 192 -48 c 2,29,-1
 192 208 l 2,30,31
 192 228 192 228 178 242 c 128,-1,32
 164 256 164 256 144 256 c 2,33,-1
 64 256 l 1,34,-1
 64 384 l 1,35,-1
 144 384 l 2,36,37
 164 384 164 384 178 398 c 128,-1,38
 192 412 192 412 192 432 c 2,39,-1
 192 688 l 2,0,1
EndSplineSet
EndChar

StartChar: VERTICAL
Encoding: 124 124 95
Width: 512
GlyphClass: 1
Flags: W
VStem: 224 64<-128 768>
LayerCount: 2
Fore
SplineSet
288 -128 m 1,0,-1
 224 -128 l 1,1,-1
 224 768 l 1,2,-1
 288 768 l 1,3,-1
 288 -128 l 1,0,-1
EndSplineSet
EndChar

StartChar: RIGHT
Encoding: 125 125 96
Width: 512
GlyphClass: 1
Flags: W
HStem: -128 64<64 246.718> 256 128<334.439 448> 704 64<64 246.718>
VStem: 256 64<-54.7175 241.561 398.439 694.718> 320 128<288 352>
CounterMasks: 1 e0
LayerCount: 2
Fore
SplineSet
320 688 m 2,0,-1
 320 432 l 2,1,2
 320 412 320 412 334 398 c 128,-1,3
 348 384 348 384 368 384 c 2,4,-1
 448 384 l 1,5,-1
 448 256 l 1,6,-1
 368 256 l 2,7,8
 348 256 348 256 334 242 c 128,-1,9
 320 228 320 228 320 208 c 2,10,-1
 320 -48 l 2,11,12
 320 -81 320 -81 296.5 -104.5 c 128,-1,13
 273 -128 273 -128 240 -128 c 2,14,-1
 64 -128 l 1,15,-1
 64 -64 l 1,16,-1
 224 -64 l 2,17,18
 238 -64 238 -64 247 -55 c 128,-1,19
 256 -46 256 -46 256 -32 c 2,20,-1
 256 240 l 2,21,22
 256 260 256 260 270 274 c 128,-1,23
 284 288 284 288 304 288 c 2,24,-1
 320 288 l 1,25,-1
 320 352 l 1,26,-1
 304 352 l 2,27,28
 284 352 284 352 270 366 c 128,-1,29
 256 380 256 380 256 400 c 2,30,-1
 256 672 l 2,31,32
 256 686 256 686 247 695 c 128,-1,33
 238 704 238 704 224 704 c 2,34,-1
 64 704 l 1,35,-1
 64 768 l 1,36,-1
 240 768 l 2,37,38
 273 768 273 768 296.5 744.5 c 128,-1,39
 320 721 320 721 320 688 c 2,0,-1
EndSplineSet
EndChar

StartChar: TILDE
Encoding: 126 126 97
Width: 512
GlyphClass: 1
Flags: W
HStem: 239 64<304 374.718> 335 64<137.282 192>
VStem: 64 64<239 325.202> 384 64<312.798 399>
LayerCount: 2
Fore
SplineSet
288 239 m 1,0,-1
 192 335 l 1,1,-1
 160 335 l 2,2,3
 146 335 146 335 137 325.5 c 128,-1,4
 128 316 128 316 128 303 c 2,5,-1
 128 239 l 1,6,-1
 64 239 l 1,7,-1
 64 335 l 2,8,9
 64 361 64 361 87.5 380 c 128,-1,10
 111 399 111 399 144 399 c 2,11,-1
 208 399 l 1,12,-1
 304 303 l 1,13,-1
 352 303 l 2,14,15
 366 303 366 303 375 312.5 c 128,-1,16
 384 322 384 322 384 335 c 2,17,-1
 384 399 l 1,18,-1
 448 399 l 1,19,-1
 448 303 l 2,20,21
 448 277 448 277 424.5 258 c 128,-1,22
 401 239 401 239 368 239 c 2,23,-1
 288 239 l 1,0,-1
EndSplineSet
EndChar

StartChar: INVERTED
Encoding: 161 161 100
Width: 512
GlyphClass: 1
Flags: W
HStem: 0 21G<224 288> 538 102<224 288>
VStem: 224 64<0 436 538 640>
LayerCount: 2
Fore
SplineSet
224 436 m 1,0,-1
 288 436 l 1,1,-1
 288 0 l 1,2,-1
 224 0 l 1,3,-1
 224 436 l 1,0,-1
224 640 m 1,4,-1
 288 640 l 1,5,-1
 288 538 l 1,6,-1
 224 538 l 1,7,-1
 224 640 l 1,4,-1
EndSplineSet
EndChar

StartChar: CENT
Encoding: 162 162 101
Width: 512
GlyphClass: 1
Flags: W
HStem: 0 64<130.017 256 320 448> 384 64<130.017 256 320 448>
VStem: 64 64<66.0171 381.983> 256 64<-64 0 64 384 448 512>
LayerCount: 2
Fore
SplineSet
128 96 m 2,0,1
 128 83 128 83 137.5 73.5 c 128,-1,2
 147 64 147 64 160 64 c 2,3,-1
 256 64 l 1,4,-1
 256 384 l 1,5,-1
 160 384 l 2,6,7
 147 384 147 384 137.5 374.5 c 128,-1,8
 128 365 128 365 128 352 c 2,9,-1
 128 96 l 2,0,1
144 0 m 2,10,11
 111 0 111 0 87.5 23.5 c 128,-1,12
 64 47 64 47 64 80 c 2,13,-1
 64 368 l 2,14,15
 64 401 64 401 87.5 424.5 c 128,-1,16
 111 448 111 448 144 448 c 2,17,-1
 256 448 l 1,18,-1
 256 512 l 1,19,-1
 320 512 l 1,20,-1
 320 448 l 1,21,-1
 448 448 l 1,22,-1
 448 384 l 1,23,-1
 320 384 l 1,24,-1
 320 64 l 1,25,-1
 448 64 l 1,26,-1
 448 0 l 1,27,-1
 320 0 l 1,28,-1
 320 -64 l 1,29,-1
 256 -64 l 1,30,-1
 256 0 l 1,31,-1
 144 0 l 2,10,11
EndSplineSet
EndChar

StartChar: POUND
Encoding: 163 163 102
Width: 512
GlyphClass: 1
Flags: W
HStem: 0 64<64 119.926 170 448> 288 64<64 128 192 384> 576 64<194.017 349.983>
VStem: 128 64<67.0625 288 352 573.983> 352 64<512 573.983>
CounterMasks: 1 e0
LayerCount: 2
Fore
SplineSet
96 64 m 2,0,1
 109 64 109 64 118.5 83 c 128,-1,2
 128 102 128 102 128 128 c 2,3,-1
 128 288 l 1,4,-1
 64 288 l 1,5,-1
 64 352 l 1,6,-1
 128 352 l 1,7,-1
 128 560 l 2,8,9
 128 593 128 593 151.5 616.5 c 128,-1,10
 175 640 175 640 208 640 c 2,11,-1
 336 640 l 2,12,13
 369 640 369 640 392.5 616.5 c 128,-1,14
 416 593 416 593 416 560 c 2,15,-1
 416 512 l 1,16,-1
 352 512 l 1,17,-1
 352 544 l 2,18,19
 352 557 352 557 342.5 566.5 c 128,-1,20
 333 576 333 576 320 576 c 2,21,-1
 224 576 l 2,22,23
 211 576 211 576 201.5 566.5 c 128,-1,24
 192 557 192 557 192 544 c 2,25,-1
 192 352 l 1,26,-1
 384 352 l 1,27,-1
 384 288 l 1,28,-1
 192 288 l 1,29,-1
 192 128 l 2,30,31
 192 64 192 64 170 64 c 1,32,-1
 448 64 l 1,33,-1
 448 0 l 1,34,-1
 64 0 l 1,35,-1
 64 64 l 1,36,-1
 96 64 l 2,0,1
EndSplineSet
EndChar

StartChar: CURRENCY
Encoding: 164 164 103
Width: 512
GlyphClass: 1
Flags: W
HStem: 160 64<240 272> 416 64<240 272>
VStem: 96 64<225.45 414.55> 352 64<225.45 414.55>
LayerCount: 2
Fore
SplineSet
352 256 m 2,0,-1
 352 384 l 2,1,2
 352 397 352 397 342.5 406.5 c 128,-1,3
 333 416 333 416 320 416 c 2,4,-1
 192 416 l 2,5,6
 179 416 179 416 169.5 406.5 c 128,-1,7
 160 397 160 397 160 384 c 2,8,-1
 160 256 l 2,9,10
 160 243 160 243 169.5 233.5 c 128,-1,11
 179 224 179 224 192 224 c 2,12,-1
 320 224 l 2,13,14
 333 224 333 224 342.5 233.5 c 128,-1,15
 352 243 352 243 352 256 c 2,0,-1
320 544 m 1,16,-1
 416 544 l 1,17,-1
 352 464 l 1,18,-1
 368 464 l 2,19,20
 388 464 388 464 402 450 c 128,-1,21
 416 436 416 436 416 416 c 2,22,-1
 416 224 l 2,23,24
 416 204 416 204 402 190 c 128,-1,25
 388 176 388 176 368 176 c 2,26,-1
 352 176 l 1,27,-1
 352 160 l 1,28,-1
 416 96 l 1,29,-1
 320 96 l 1,30,-1
 272 160 l 1,31,-1
 240 160 l 1,32,-1
 192 96 l 1,33,-1
 96 96 l 1,34,-1
 160 160 l 1,35,-1
 160 176 l 1,36,-1
 144 176 l 2,37,38
 124 176 124 176 110 190 c 128,-1,39
 96 204 96 204 96 224 c 2,40,-1
 96 416 l 2,41,42
 96 436 96 436 110 450 c 128,-1,43
 124 464 124 464 144 464 c 2,44,-1
 160 464 l 1,45,-1
 96 544 l 1,46,-1
 192 544 l 1,47,-1
 240 480 l 1,48,-1
 272 480 l 1,49,-1
 320 544 l 1,16,-1
EndSplineSet
EndChar

StartChar: YEN
Encoding: 165 165 104
Width: 512
GlyphClass: 1
Flags: W
HStem: 0 21G<224 288> 64 64<96 224 288 416> 192 64<96 224 288 416> 620 20G<64 138.09 373.91 448>
VStem: 224 64<0 64 128 192 256 320>
LayerCount: 2
Fore
SplineSet
288 320 m 1,0,-1
 288 256 l 1,1,-1
 416 256 l 1,2,-1
 416 192 l 1,3,-1
 288 192 l 1,4,-1
 288 128 l 1,5,-1
 416 128 l 1,6,-1
 416 64 l 1,7,-1
 288 64 l 1,8,-1
 288 0 l 1,9,-1
 224 0 l 1,10,-1
 224 64 l 1,11,-1
 96 64 l 1,12,-1
 96 128 l 1,13,-1
 224 128 l 1,14,-1
 224 192 l 1,15,-1
 96 192 l 1,16,-1
 96 256 l 1,17,-1
 224 256 l 1,18,-1
 224 320 l 1,19,-1
 64 608 l 1,20,-1
 64 640 l 1,21,-1
 128 640 l 1,22,-1
 240 418 l 1,23,-1
 272 418 l 1,24,-1
 384 640 l 1,25,-1
 448 640 l 1,26,-1
 448 608 l 1,27,-1
 288 320 l 1,0,-1
EndSplineSet
EndChar

StartChar: BROKEN
Encoding: 166 166 105
Width: 512
GlyphClass: 1
Flags: W
VStem: 224 64<-64 256 384 704>
LayerCount: 2
Fore
SplineSet
288 384 m 1,0,-1
 224 384 l 1,1,-1
 224 704 l 1,2,-1
 288 704 l 1,3,-1
 288 384 l 1,0,-1
288 -64 m 1,4,-1
 224 -64 l 1,5,-1
 224 256 l 1,6,-1
 288 256 l 1,7,-1
 288 -64 l 1,4,-1
EndSplineSet
EndChar

StartChar: SECTION
Encoding: 167 167 106
Width: 512
GlyphClass: 1
Flags: W
HStem: -64 96<144.147 219.359> -64 64<224 349.983> 160 64<162.017 335.853> 416 64<176.147 349.983> 608 96<292.641 367.853> 640 64<162.017 288>
VStem: 96 64<226.017 414.156 496.147 637.983> 288 96<612.641 640> 352 64<2.01709 143.853 225.844 413.983>
LayerCount: 2
Fore
SplineSet
192 224 m 2,0,-1
 320 224 l 2,1,2
 333 224 333 224 342.5 233.5 c 128,-1,3
 352 243 352 243 352 256 c 2,4,-1
 352 384 l 2,5,6
 352 397 352 397 342.5 406.5 c 128,-1,7
 333 416 333 416 320 416 c 2,8,-1
 192 416 l 2,9,10
 179 416 179 416 169.5 406.5 c 128,-1,11
 160 397 160 397 160 384 c 2,12,-1
 160 256 l 2,13,14
 160 243 160 243 169.5 233.5 c 128,-1,15
 179 224 179 224 192 224 c 2,0,-1
128 448 m 2,16,-1
 144 448 l 1,17,-1
 144 480 l 1,18,-1
 128 480 l 2,19,20
 115 480 115 480 105.5 494 c 128,-1,21
 96 508 96 508 96 528 c 2,22,-1
 96 624 l 2,23,24
 96 657 96 657 119.5 680.5 c 128,-1,25
 143 704 143 704 176 704 c 2,26,-1
 320 704 l 2,27,28
 346 704 346 704 365 685 c 128,-1,29
 384 666 384 666 384 640 c 2,30,-1
 384 608 l 1,31,-1
 304 608 l 2,32,33
 297 608 297 608 292.5 612.5 c 128,-1,34
 288 617 288 617 288 624 c 2,35,-1
 288 640 l 1,36,-1
 192 640 l 2,37,38
 179 640 179 640 169.5 630.5 c 128,-1,39
 160 621 160 621 160 608 c 2,40,-1
 160 544 l 2,41,42
 160 518 160 518 179 499 c 128,-1,43
 198 480 198 480 224 480 c 2,44,-1
 336 480 l 2,45,46
 369 480 369 480 392.5 456.5 c 128,-1,47
 416 433 416 433 416 400 c 2,48,-1
 416 240 l 2,49,50
 416 220 416 220 406.5 206 c 128,-1,51
 397 192 397 192 384 192 c 2,52,-1
 368 192 l 1,53,-1
 368 160 l 1,54,-1
 384 160 l 2,55,56
 397 160 397 160 406.5 146 c 128,-1,57
 416 132 416 132 416 112 c 2,58,-1
 416 16 l 2,59,60
 416 -17 416 -17 392.5 -40.5 c 128,-1,61
 369 -64 369 -64 336 -64 c 2,62,-1
 192 -64 l 2,63,64
 166 -64 166 -64 147 -45 c 128,-1,65
 128 -26 128 -26 128 0 c 2,66,-1
 128 32 l 1,67,-1
 208 32 l 2,68,69
 215 32 215 32 219.5 27.5 c 128,-1,70
 224 23 224 23 224 16 c 2,71,-1
 224 0 l 1,72,-1
 320 0 l 2,73,74
 333 0 333 0 342.5 9.5 c 128,-1,75
 352 19 352 19 352 32 c 2,76,-1
 352 96 l 2,77,78
 352 122 352 122 333 141 c 128,-1,79
 314 160 314 160 288 160 c 2,80,-1
 176 160 l 2,81,82
 143 160 143 160 119.5 183.5 c 128,-1,83
 96 207 96 207 96 240 c 2,84,-1
 96 400 l 2,85,86
 96 420 96 420 105.5 434 c 128,-1,87
 115 448 115 448 128 448 c 2,16,-1
EndSplineSet
EndChar

StartChar: FEMININE
Encoding: 170 170 109
Width: 512
GlyphClass: 1
Flags: W
HStem: 256 64<128 384> 384 64<208 320> 512 64<208 320> 640 64<160 288>
VStem: 128 80<448 464 496 512> 128 64<464 496> 320 64<448 512 576 608>
LayerCount: 2
Fore
SplineSet
208 448 m 1,0,-1
 320 448 l 1,1,-1
 320 512 l 1,2,-1
 208 512 l 1,3,-1
 208 496 l 1,4,-1
 192 496 l 1,5,-1
 192 464 l 1,6,-1
 208 464 l 1,7,-1
 208 448 l 1,0,-1
384 384 m 1,8,-1
 192 384 l 1,9,-1
 192 400 l 1,10,-1
 160 400 l 1,11,-1
 160 416 l 1,12,-1
 144 416 l 1,13,-1
 144 448 l 1,14,-1
 128 448 l 1,15,-1
 128 512 l 1,16,-1
 144 512 l 1,17,-1
 144 544 l 1,18,-1
 160 544 l 1,19,-1
 160 560 l 1,20,-1
 192 560 l 1,21,-1
 192 576 l 1,22,-1
 320 576 l 1,23,-1
 320 608 l 1,24,-1
 304 608 l 1,25,-1
 304 624 l 1,26,-1
 288 624 l 1,27,-1
 288 640 l 1,28,-1
 160 640 l 1,29,-1
 160 704 l 1,30,-1
 304 704 l 1,31,-1
 304 688 l 1,32,-1
 336 688 l 1,33,-1
 336 672 l 1,34,-1
 352 672 l 1,35,-1
 352 656 l 1,36,-1
 368 656 l 1,37,-1
 368 624 l 1,38,-1
 384 624 l 1,39,-1
 384 384 l 1,8,-1
384 256 m 1,40,-1
 128 256 l 1,41,-1
 128 320 l 1,42,-1
 384 320 l 1,43,-1
 384 256 l 1,40,-1
EndSplineSet
EndChar

StartChar: LEFT-POINTING
Encoding: 171 171 110
Width: 512
GlyphClass: 1
Flags: W
HStem: 64 320
LayerCount: 2
Fore
SplineSet
200 384 m 1,0,-1
 296 384 l 1,1,-1
 152 240 l 1,2,-1
 152 208 l 1,3,-1
 296 64 l 1,4,-1
 200 64 l 1,5,-1
 56 208 l 1,6,-1
 56 240 l 1,7,-1
 200 384 l 1,0,-1
216 208 m 1,8,-1
 216 240 l 1,9,-1
 360 384 l 1,10,-1
 456 384 l 1,11,-1
 312 240 l 1,12,-1
 312 208 l 1,13,-1
 456 64 l 1,14,-1
 360 64 l 1,15,-1
 216 208 l 1,8,-1
EndSplineSet
EndChar

StartChar: NOT
Encoding: 172 172 111
Width: 512
GlyphClass: 1
Flags: W
HStem: 384 64<64 384>
VStem: 384 64<192 384>
LayerCount: 2
Fore
SplineSet
448 192 m 1,0,-1
 384 192 l 1,1,-1
 384 384 l 1,2,-1
 64 384 l 1,3,-1
 64 448 l 1,4,-1
 448 448 l 1,5,-1
 448 192 l 1,0,-1
EndSplineSet
EndChar

StartChar: SOFT
Encoding: 173 173 112
Width: 512
GlyphClass: 1
Flags: W
HStem: 256 64<96 416>
VStem: 96 320<256 320>
LayerCount: 2
Fore
SplineSet
416 256 m 1,0,-1
 96 256 l 1,1,-1
 96 320 l 1,2,-1
 416 320 l 1,3,-1
 416 256 l 1,0,-1
EndSplineSet
EndChar

StartChar: MACRON
Encoding: 175 175 114
Width: 512
GlyphClass: 1
Flags: W
HStem: 704 64<128 384>
VStem: 128 256<704 768>
LayerCount: 2
Fore
SplineSet
384 704 m 1,0,-1
 128 704 l 1,1,-1
 128 768 l 1,2,-1
 384 768 l 1,3,-1
 384 704 l 1,0,-1
EndSplineSet
EndChar

StartChar: DEGREE
Encoding: 176 176 115
Width: 512
GlyphClass: 1
Flags: W
HStem: 405 51<202 310> 591 51<202 310>
VStem: 155 47<456 591> 310 47<456 591>
LayerCount: 2
Fore
SplineSet
297 456 m 2,0,1
 302 456 302 456 306 460 c 128,-1,2
 310 464 310 464 310 469 c 2,3,-1
 310 577 l 2,4,5
 310 583 310 583 306 587 c 128,-1,6
 302 591 302 591 297 591 c 2,7,-1
 215 591 l 2,8,9
 210 591 210 591 206 587 c 128,-1,10
 202 583 202 583 202 577 c 2,11,-1
 202 469 l 2,12,13
 202 464 202 464 206 460 c 128,-1,14
 210 456 210 456 215 456 c 2,15,-1
 297 456 l 2,0,1
155 599 m 2,16,17
 155 617 155 617 167 629.5 c 128,-1,18
 179 642 179 642 197 642 c 2,19,-1
 315 642 l 2,20,21
 333 642 333 642 345 629.5 c 128,-1,22
 357 617 357 617 357 599 c 2,23,-1
 357 447 l 2,24,25
 357 430 357 430 345 417.5 c 128,-1,26
 333 405 333 405 315 405 c 2,27,-1
 197 405 l 2,28,29
 179 405 179 405 167 417.5 c 128,-1,30
 155 430 155 430 155 447 c 2,31,-1
 155 599 l 2,16,17
EndSplineSet
EndChar

StartChar: PLUS-MINUS
Encoding: 177 177 116
Width: 512
GlyphClass: 1
Flags: W
HStem: 64 64<96 416> 352 64<64 224 288 448>
VStem: 224 64<192 352 416 576>
LayerCount: 2
Fore
SplineSet
224 192 m 1,0,-1
 224 352 l 1,1,-1
 64 352 l 1,2,-1
 64 416 l 1,3,-1
 224 416 l 1,4,-1
 224 576 l 1,5,-1
 288 576 l 1,6,-1
 288 416 l 1,7,-1
 448 416 l 1,8,-1
 448 352 l 1,9,-1
 288 352 l 1,10,-1
 288 192 l 1,11,-1
 224 192 l 1,0,-1
416 64 m 1,12,-1
 96 64 l 1,13,-1
 96 128 l 1,14,-1
 416 128 l 1,15,-1
 416 64 l 1,12,-1
EndSplineSet
EndChar

StartChar: ACUTE
Encoding: 180 180 119
Width: 512
GlyphClass: 1
Flags: W
HStem: 450 188
VStem: 162 188
LayerCount: 2
Fore
SplineSet
162 502 m 1,0,-1
 298 638 l 1,1,-1
 350 586 l 1,2,-1
 214 450 l 1,3,-1
 162 502 l 1,0,-1
EndSplineSet
EndChar

StartChar: MICRO
Encoding: 181 181 120
Width: 512
GlyphClass: 1
Flags: W
HStem: -192 21G<64 128> 0 64<400 480> 24 40<137.282 310.718> 428 20G<64 128 320 384>
VStem: 64 64<-192 24 73.2825 448> 320 64<73.2825 448>
LayerCount: 2
Fore
SplineSet
368 24 m 2,0,-1
 128 24 l 1,1,-1
 128 -192 l 1,2,-1
 64 -192 l 1,3,-1
 64 448 l 1,4,-1
 128 448 l 1,5,-1
 128 96 l 2,6,7
 128 82 128 82 137 73 c 128,-1,8
 146 64 146 64 160 64 c 2,9,-1
 288 64 l 2,10,11
 302 64 302 64 311 73 c 128,-1,12
 320 82 320 82 320 96 c 2,13,-1
 320 448 l 1,14,-1
 384 448 l 1,15,-1
 384 96 l 2,16,17
 384 82 384 82 393 73 c 128,-1,18
 402 64 402 64 416 64 c 2,19,-1
 480 64 l 1,20,-1
 480 0 l 1,21,-1
 400 0 l 1,22,-1
 400 7 l 2,23,24
 400 14 400 14 390.5 19 c 128,-1,25
 381 24 381 24 368 24 c 2,0,-1
EndSplineSet
EndChar

StartChar: PILCROW
Encoding: 182 182 121
Width: 512
GlyphClass: 1
Flags: W
HStem: 0 21G<224 288 384 448> 320 64<160 224> 576 64<160 224 288 384>
VStem: 64 80<400 416 544 560> 64 64<416 544> 80 80<384 400 560 576> 224 64<0 320 384 576> 384 64<0 576>
LayerCount: 2
Fore
SplineSet
160 384 m 1,0,-1
 224 384 l 1,1,-1
 224 576 l 1,2,-1
 160 576 l 1,3,-1
 160 560 l 1,4,-1
 144 560 l 1,5,-1
 144 544 l 1,6,-1
 128 544 l 1,7,-1
 128 416 l 1,8,-1
 144 416 l 1,9,-1
 144 400 l 1,10,-1
 160 400 l 1,11,-1
 160 384 l 1,0,-1
448 0 m 1,12,-1
 384 0 l 1,13,-1
 384 576 l 1,14,-1
 288 576 l 1,15,-1
 288 0 l 1,16,-1
 224 0 l 1,17,-1
 224 320 l 1,18,-1
 144 320 l 1,19,-1
 144 336 l 1,20,-1
 112 336 l 1,21,-1
 112 352 l 1,22,-1
 96 352 l 1,23,-1
 96 368 l 1,24,-1
 80 368 l 1,25,-1
 80 400 l 1,26,-1
 64 400 l 1,27,-1
 64 560 l 1,28,-1
 80 560 l 1,29,-1
 80 592 l 1,30,-1
 96 592 l 1,31,-1
 96 608 l 1,32,-1
 112 608 l 1,33,-1
 112 624 l 1,34,-1
 144 624 l 1,35,-1
 144 640 l 1,36,-1
 448 640 l 1,37,-1
 448 0 l 1,12,-1
EndSplineSet
EndChar

StartChar: MASCULINE
Encoding: 186 186 125
Width: 512
GlyphClass: 1
Flags: W
HStem: 256 64<155 357> 405 51<202 310> 591 51<202 310>
VStem: 155 47<456 591> 310 47<456 591>
LayerCount: 2
Fore
SplineSet
297 456 m 2,0,1
 302 456 302 456 306 460 c 128,-1,2
 310 464 310 464 310 469 c 2,3,-1
 310 577 l 2,4,5
 310 583 310 583 306 587 c 128,-1,6
 302 591 302 591 297 591 c 2,7,-1
 215 591 l 2,8,9
 210 591 210 591 206 587 c 128,-1,10
 202 583 202 583 202 577 c 2,11,-1
 202 469 l 2,12,13
 202 464 202 464 206 460 c 128,-1,14
 210 456 210 456 215 456 c 2,15,-1
 297 456 l 2,0,1
155 599 m 2,16,17
 155 617 155 617 167 629.5 c 128,-1,18
 179 642 179 642 197 642 c 2,19,-1
 315 642 l 2,20,21
 333 642 333 642 345 629.5 c 128,-1,22
 357 617 357 617 357 599 c 2,23,-1
 357 447 l 2,24,25
 357 430 357 430 345 417.5 c 128,-1,26
 333 405 333 405 315 405 c 2,27,-1
 197 405 l 2,28,29
 179 405 179 405 167 417.5 c 128,-1,30
 155 430 155 430 155 447 c 2,31,-1
 155 599 l 2,16,17
357 256 m 1,32,-1
 155 256 l 1,33,-1
 155 320 l 1,34,-1
 357 320 l 1,35,-1
 357 256 l 1,32,-1
EndSplineSet
EndChar

StartChar: RIGHT-POINTING
Encoding: 187 187 126
Width: 512
GlyphClass: 1
Flags: W
HStem: 64 320
LayerCount: 2
Fore
SplineSet
312 384 m 1,0,-1
 456 240 l 1,1,-1
 456 208 l 1,2,-1
 312 64 l 1,3,-1
 216 64 l 1,4,-1
 360 208 l 1,5,-1
 360 240 l 1,6,-1
 216 384 l 1,7,-1
 312 384 l 1,0,-1
296 208 m 1,8,-1
 152 64 l 1,9,-1
 56 64 l 1,10,-1
 200 208 l 1,11,-1
 200 240 l 1,12,-1
 56 384 l 1,13,-1
 152 384 l 1,14,-1
 296 240 l 1,15,-1
 296 208 l 1,8,-1
EndSplineSet
EndChar

StartChar: LATIN
Encoding: 198 198 137
Width: 512
GlyphClass: 1
Flags: W
HStem: 0 64<329.282 448> 288 64<137.282 246.718 329.282 448> 576 64<137.282 246.718 329.282 448>
VStem: 64 64<0 278.718 361.282 566.718> 256 64<73.2825 278.718 361.282 566.718>
CounterMasks: 1 e0
LayerCount: 2
Fore
SplineSet
320 256 m 2,0,-1
 320 96 l 2,1,2
 320 82 320 82 329 73 c 128,-1,3
 338 64 338 64 352 64 c 2,4,-1
 448 64 l 1,5,-1
 448 0 l 1,6,-1
 256 0 l 1,7,-1
 256 256 l 2,8,9
 256 270 256 270 247 279 c 128,-1,10
 238 288 238 288 224 288 c 2,11,-1
 160 288 l 2,12,13
 146 288 146 288 137 279 c 128,-1,14
 128 270 128 270 128 256 c 2,15,-1
 128 0 l 1,16,-1
 64 0 l 1,17,-1
 64 560 l 2,18,19
 64 593 64 593 87.5 616.5 c 128,-1,20
 111 640 111 640 144 640 c 2,21,-1
 448 640 l 1,22,-1
 448 576 l 1,23,-1
 352 576 l 2,24,25
 338 576 338 576 329 567 c 128,-1,26
 320 558 320 558 320 544 c 2,27,-1
 320 384 l 2,28,29
 320 370 320 370 329 361 c 128,-1,30
 338 352 338 352 352 352 c 2,31,-1
 448 352 l 1,32,-1
 448 288 l 1,33,-1
 352 288 l 2,34,35
 338 288 338 288 329 279 c 128,-1,36
 320 270 320 270 320 256 c 2,0,-1
256 384 m 2,37,-1
 256 544 l 2,38,39
 256 558 256 558 247 567 c 128,-1,40
 238 576 238 576 224 576 c 2,41,-1
 160 576 l 2,42,43
 146 576 146 576 137 567 c 128,-1,44
 128 558 128 558 128 544 c 2,45,-1
 128 384 l 2,46,47
 128 370 128 370 137 361 c 128,-1,48
 146 352 146 352 160 352 c 2,49,-1
 224 352 l 2,50,51
 238 352 238 352 247 361 c 128,-1,52
 256 370 256 370 256 384 c 2,37,-1
EndSplineSet
EndChar

StartChar: LATIN
Encoding: 200 200 139
Width: 512
GlyphClass: 1
Flags: W
HStem: 0 64<160 448> 288 64<128 352> 576 64<160 448> 672 48<304 320> 672 32<320 336> 752 48<176 192> 768 32<160 176>
VStem: 64 80<80 96 544 560> 64 64<96 288 352 544> 80 80<64 80 560 576>
LayerCount: 2
Fore
SplineSet
336 672 m 1,0,-1
 256 672 l 1,1,-1
 256 688 l 1,2,-1
 240 688 l 1,3,-1
 240 704 l 1,4,-1
 224 704 l 1,5,-1
 224 720 l 1,6,-1
 208 720 l 1,7,-1
 208 736 l 1,8,-1
 192 736 l 1,9,-1
 192 752 l 1,10,-1
 176 752 l 1,11,-1
 176 768 l 1,12,-1
 160 768 l 1,13,-1
 160 800 l 1,14,-1
 240 800 l 1,15,-1
 240 784 l 1,16,-1
 256 784 l 1,17,-1
 256 768 l 1,18,-1
 272 768 l 1,19,-1
 272 752 l 1,20,-1
 288 752 l 1,21,-1
 288 736 l 1,22,-1
 304 736 l 1,23,-1
 304 720 l 1,24,-1
 320 720 l 1,25,-1
 320 704 l 1,26,-1
 336 704 l 1,27,-1
 336 672 l 1,0,-1
448 0 m 1,28,-1
 144 0 l 1,29,-1
 144 16 l 1,30,-1
 112 16 l 1,31,-1
 112 32 l 1,32,-1
 96 32 l 1,33,-1
 96 48 l 1,34,-1
 80 48 l 1,35,-1
 80 80 l 1,36,-1
 64 80 l 1,37,-1
 64 560 l 1,38,-1
 80 560 l 1,39,-1
 80 592 l 1,40,-1
 96 592 l 1,41,-1
 96 608 l 1,42,-1
 112 608 l 1,43,-1
 112 624 l 1,44,-1
 144 624 l 1,45,-1
 144 640 l 1,46,-1
 448 640 l 1,47,-1
 448 576 l 1,48,-1
 160 576 l 1,49,-1
 160 560 l 1,50,-1
 144 560 l 1,51,-1
 144 544 l 1,52,-1
 128 544 l 1,53,-1
 128 352 l 1,54,-1
 352 352 l 1,55,-1
 352 288 l 1,56,-1
 128 288 l 1,57,-1
 128 96 l 1,58,-1
 144 96 l 1,59,-1
 144 80 l 1,60,-1
 160 80 l 1,61,-1
 160 64 l 1,62,-1
 448 64 l 1,63,-1
 448 0 l 1,28,-1
EndSplineSet
EndChar

StartChar: LATIN
Encoding: 201 201 140
Width: 512
GlyphClass: 1
Flags: W
HStem: 0 64<160 448> 288 64<128 352> 576 64<160 448> 672 48<192 208> 672 32<176 192> 752 48<320 336> 768 32<336 352>
VStem: 64 80<80 96 544 560> 64 64<96 288 352 544> 80 80<64 80 560 576>
LayerCount: 2
Fore
SplineSet
256 672 m 1,0,-1
 176 672 l 1,1,-1
 176 704 l 1,2,-1
 192 704 l 1,3,-1
 192 720 l 1,4,-1
 208 720 l 1,5,-1
 208 736 l 1,6,-1
 224 736 l 1,7,-1
 224 752 l 1,8,-1
 240 752 l 1,9,-1
 240 768 l 1,10,-1
 256 768 l 1,11,-1
 256 784 l 1,12,-1
 272 784 l 1,13,-1
 272 800 l 1,14,-1
 352 800 l 1,15,-1
 352 768 l 1,16,-1
 336 768 l 1,17,-1
 336 752 l 1,18,-1
 320 752 l 1,19,-1
 320 736 l 1,20,-1
 304 736 l 1,21,-1
 304 720 l 1,22,-1
 288 720 l 1,23,-1
 288 704 l 1,24,-1
 272 704 l 1,25,-1
 272 688 l 1,26,-1
 256 688 l 1,27,-1
 256 672 l 1,0,-1
448 0 m 1,28,-1
 144 0 l 1,29,-1
 144 16 l 1,30,-1
 112 16 l 1,31,-1
 112 32 l 1,32,-1
 96 32 l 1,33,-1
 96 48 l 1,34,-1
 80 48 l 1,35,-1
 80 80 l 1,36,-1
 64 80 l 1,37,-1
 64 560 l 1,38,-1
 80 560 l 1,39,-1
 80 592 l 1,40,-1
 96 592 l 1,41,-1
 96 608 l 1,42,-1
 112 608 l 1,43,-1
 112 624 l 1,44,-1
 144 624 l 1,45,-1
 144 640 l 1,46,-1
 448 640 l 1,47,-1
 448 576 l 1,48,-1
 160 576 l 1,49,-1
 160 560 l 1,50,-1
 144 560 l 1,51,-1
 144 544 l 1,52,-1
 128 544 l 1,53,-1
 128 352 l 1,54,-1
 352 352 l 1,55,-1
 352 288 l 1,56,-1
 128 288 l 1,57,-1
 128 96 l 1,58,-1
 144 96 l 1,59,-1
 144 80 l 1,60,-1
 160 80 l 1,61,-1
 160 64 l 1,62,-1
 448 64 l 1,63,-1
 448 0 l 1,28,-1
EndSplineSet
EndChar

StartChar: LATIN
Encoding: 202 202 141
Width: 512
GlyphClass: 1
Flags: W
HStem: 0 64<160 448> 288 64<128 352> 576 64<160 448> 704 80<176 192 320 336> 704 64<160 176 336 352> 704 48<144 160 352 368> 704 32<128 144 368 384> 752 80<240 272>
VStem: 64 80<80 96 544 560> 64 64<96 288 352 544> 80 80<64 80 560 576>
LayerCount: 2
Fore
SplineSet
384 704 m 1,0,-1
 304 704 l 1,1,-1
 304 720 l 1,2,-1
 288 720 l 1,3,-1
 288 736 l 1,4,-1
 272 736 l 1,5,-1
 272 752 l 1,6,-1
 240 752 l 1,7,-1
 240 736 l 1,8,-1
 224 736 l 1,9,-1
 224 720 l 1,10,-1
 208 720 l 1,11,-1
 208 704 l 1,12,-1
 128 704 l 1,13,-1
 128 736 l 1,14,-1
 144 736 l 1,15,-1
 144 752 l 1,16,-1
 160 752 l 1,17,-1
 160 768 l 1,18,-1
 176 768 l 1,19,-1
 176 784 l 1,20,-1
 192 784 l 1,21,-1
 192 800 l 1,22,-1
 208 800 l 1,23,-1
 208 816 l 1,24,-1
 224 816 l 1,25,-1
 224 832 l 1,26,-1
 288 832 l 1,27,-1
 288 816 l 1,28,-1
 304 816 l 1,29,-1
 304 800 l 1,30,-1
 320 800 l 1,31,-1
 320 784 l 1,32,-1
 336 784 l 1,33,-1
 336 768 l 1,34,-1
 352 768 l 1,35,-1
 352 752 l 1,36,-1
 368 752 l 1,37,-1
 368 736 l 1,38,-1
 384 736 l 1,39,-1
 384 704 l 1,0,-1
448 0 m 1,40,-1
 144 0 l 1,41,-1
 144 16 l 1,42,-1
 112 16 l 1,43,-1
 112 32 l 1,44,-1
 96 32 l 1,45,-1
 96 48 l 1,46,-1
 80 48 l 1,47,-1
 80 80 l 1,48,-1
 64 80 l 1,49,-1
 64 560 l 1,50,-1
 80 560 l 1,51,-1
 80 592 l 1,52,-1
 96 592 l 1,53,-1
 96 608 l 1,54,-1
 112 608 l 1,55,-1
 112 624 l 1,56,-1
 144 624 l 1,57,-1
 144 640 l 1,58,-1
 448 640 l 1,59,-1
 448 576 l 1,60,-1
 160 576 l 1,61,-1
 160 560 l 1,62,-1
 144 560 l 1,63,-1
 144 544 l 1,64,-1
 128 544 l 1,65,-1
 128 352 l 1,66,-1
 352 352 l 1,67,-1
 352 288 l 1,68,-1
 128 288 l 1,69,-1
 128 96 l 1,70,-1
 144 96 l 1,71,-1
 144 80 l 1,72,-1
 160 80 l 1,73,-1
 160 64 l 1,74,-1
 448 64 l 1,75,-1
 448 0 l 1,40,-1
EndSplineSet
EndChar

StartChar: LATIN
Encoding: 203 203 142
Width: 512
GlyphClass: 1
Flags: W
HStem: 0 64<160 448> 288 64<128 352> 576 64<160 448> 704 96<128 192 320 384>
VStem: 64 80<80 96 544 560> 64 64<96 288 352 544> 80 80<64 80 560 576> 128 64<704 800> 320 64<704 800>
LayerCount: 2
Fore
SplineSet
192 704 m 1,0,-1
 128 704 l 1,1,-1
 128 800 l 1,2,-1
 192 800 l 1,3,-1
 192 704 l 1,0,-1
384 704 m 1,4,-1
 320 704 l 1,5,-1
 320 800 l 1,6,-1
 384 800 l 1,7,-1
 384 704 l 1,4,-1
448 0 m 1,8,-1
 144 0 l 1,9,-1
 144 16 l 1,10,-1
 112 16 l 1,11,-1
 112 32 l 1,12,-1
 96 32 l 1,13,-1
 96 48 l 1,14,-1
 80 48 l 1,15,-1
 80 80 l 1,16,-1
 64 80 l 1,17,-1
 64 560 l 1,18,-1
 80 560 l 1,19,-1
 80 592 l 1,20,-1
 96 592 l 1,21,-1
 96 608 l 1,22,-1
 112 608 l 1,23,-1
 112 624 l 1,24,-1
 144 624 l 1,25,-1
 144 640 l 1,26,-1
 448 640 l 1,27,-1
 448 576 l 1,28,-1
 160 576 l 1,29,-1
 160 560 l 1,30,-1
 144 560 l 1,31,-1
 144 544 l 1,32,-1
 128 544 l 1,33,-1
 128 352 l 1,34,-1
 352 352 l 1,35,-1
 352 288 l 1,36,-1
 128 288 l 1,37,-1
 128 96 l 1,38,-1
 144 96 l 1,39,-1
 144 80 l 1,40,-1
 160 80 l 1,41,-1
 160 64 l 1,42,-1
 448 64 l 1,43,-1
 448 0 l 1,8,-1
EndSplineSet
EndChar

StartChar: LATIN
Encoding: 204 204 143
Width: 512
GlyphClass: 1
Flags: W
HStem: 0 64<96 224 288 416> 576 64<96 224 288 416> 672 48<304 320> 672 32<320 336> 752 48<176 192> 768 32<160 176>
VStem: 224 64<64 576>
LayerCount: 2
Fore
SplineSet
336 672 m 1,0,-1
 256 672 l 1,1,-1
 256 688 l 1,2,-1
 240 688 l 1,3,-1
 240 704 l 1,4,-1
 224 704 l 1,5,-1
 224 720 l 1,6,-1
 208 720 l 1,7,-1
 208 736 l 1,8,-1
 192 736 l 1,9,-1
 192 752 l 1,10,-1
 176 752 l 1,11,-1
 176 768 l 1,12,-1
 160 768 l 1,13,-1
 160 800 l 1,14,-1
 240 800 l 1,15,-1
 240 784 l 1,16,-1
 256 784 l 1,17,-1
 256 768 l 1,18,-1
 272 768 l 1,19,-1
 272 752 l 1,20,-1
 288 752 l 1,21,-1
 288 736 l 1,22,-1
 304 736 l 1,23,-1
 304 720 l 1,24,-1
 320 720 l 1,25,-1
 320 704 l 1,26,-1
 336 704 l 1,27,-1
 336 672 l 1,0,-1
416 0 m 1,28,-1
 96 0 l 1,29,-1
 96 64 l 1,30,-1
 224 64 l 1,31,-1
 224 576 l 1,32,-1
 96 576 l 1,33,-1
 96 640 l 1,34,-1
 416 640 l 1,35,-1
 416 576 l 1,36,-1
 288 576 l 1,37,-1
 288 64 l 1,38,-1
 416 64 l 1,39,-1
 416 0 l 1,28,-1
EndSplineSet
EndChar

StartChar: LATIN
Encoding: 205 205 144
Width: 512
GlyphClass: 1
Flags: W
HStem: 0 64<96 224 288 416> 576 64<96 224 288 416> 672 48<192 208> 672 32<176 192> 752 48<320 336> 768 32<336 352>
VStem: 224 64<64 576>
LayerCount: 2
Fore
SplineSet
256 672 m 1,0,-1
 176 672 l 1,1,-1
 176 704 l 1,2,-1
 192 704 l 1,3,-1
 192 720 l 1,4,-1
 208 720 l 1,5,-1
 208 736 l 1,6,-1
 224 736 l 1,7,-1
 224 752 l 1,8,-1
 240 752 l 1,9,-1
 240 768 l 1,10,-1
 256 768 l 1,11,-1
 256 784 l 1,12,-1
 272 784 l 1,13,-1
 272 800 l 1,14,-1
 352 800 l 1,15,-1
 352 768 l 1,16,-1
 336 768 l 1,17,-1
 336 752 l 1,18,-1
 320 752 l 1,19,-1
 320 736 l 1,20,-1
 304 736 l 1,21,-1
 304 720 l 1,22,-1
 288 720 l 1,23,-1
 288 704 l 1,24,-1
 272 704 l 1,25,-1
 272 688 l 1,26,-1
 256 688 l 1,27,-1
 256 672 l 1,0,-1
416 0 m 1,28,-1
 96 0 l 1,29,-1
 96 64 l 1,30,-1
 224 64 l 1,31,-1
 224 576 l 1,32,-1
 96 576 l 1,33,-1
 96 640 l 1,34,-1
 416 640 l 1,35,-1
 416 576 l 1,36,-1
 288 576 l 1,37,-1
 288 64 l 1,38,-1
 416 64 l 1,39,-1
 416 0 l 1,28,-1
EndSplineSet
EndChar

StartChar: LATIN
Encoding: 206 206 145
Width: 512
GlyphClass: 1
Flags: W
HStem: 0 64<96 224 288 416> 576 64<96 224 288 416> 704 80<176 192 320 336> 704 64<160 176 336 352> 704 48<144 160 352 368> 704 32<128 144 368 384> 752 80<240 272>
VStem: 224 64<64 576 816 832>
LayerCount: 2
Fore
SplineSet
384 704 m 1,0,-1
 304 704 l 1,1,-1
 304 720 l 1,2,-1
 288 720 l 1,3,-1
 288 736 l 1,4,-1
 272 736 l 1,5,-1
 272 752 l 1,6,-1
 240 752 l 1,7,-1
 240 736 l 1,8,-1
 224 736 l 1,9,-1
 224 720 l 1,10,-1
 208 720 l 1,11,-1
 208 704 l 1,12,-1
 128 704 l 1,13,-1
 128 736 l 1,14,-1
 144 736 l 1,15,-1
 144 752 l 1,16,-1
 160 752 l 1,17,-1
 160 768 l 1,18,-1
 176 768 l 1,19,-1
 176 784 l 1,20,-1
 192 784 l 1,21,-1
 192 800 l 1,22,-1
 208 800 l 1,23,-1
 208 816 l 1,24,-1
 224 816 l 1,25,-1
 224 832 l 1,26,-1
 288 832 l 1,27,-1
 288 816 l 1,28,-1
 304 816 l 1,29,-1
 304 800 l 1,30,-1
 320 800 l 1,31,-1
 320 784 l 1,32,-1
 336 784 l 1,33,-1
 336 768 l 1,34,-1
 352 768 l 1,35,-1
 352 752 l 1,36,-1
 368 752 l 1,37,-1
 368 736 l 1,38,-1
 384 736 l 1,39,-1
 384 704 l 1,0,-1
416 0 m 1,40,-1
 96 0 l 1,41,-1
 96 64 l 1,42,-1
 224 64 l 1,43,-1
 224 576 l 1,44,-1
 96 576 l 1,45,-1
 96 640 l 1,46,-1
 416 640 l 1,47,-1
 416 576 l 1,48,-1
 288 576 l 1,49,-1
 288 64 l 1,50,-1
 416 64 l 1,51,-1
 416 0 l 1,40,-1
EndSplineSet
EndChar

StartChar: LATIN
Encoding: 207 207 146
Width: 512
GlyphClass: 1
Flags: W
HStem: 0 64<96 224 288 416> 576 64<96 224 288 416> 704 96<128 192 320 384>
VStem: 128 64<704 800> 224 64<64 576> 320 64<704 800>
CounterMasks: 1 1c
LayerCount: 2
Fore
SplineSet
192 704 m 1,0,-1
 128 704 l 1,1,-1
 128 800 l 1,2,-1
 192 800 l 1,3,-1
 192 704 l 1,0,-1
384 704 m 1,4,-1
 320 704 l 1,5,-1
 320 800 l 1,6,-1
 384 800 l 1,7,-1
 384 704 l 1,4,-1
416 0 m 1,8,-1
 96 0 l 1,9,-1
 96 64 l 1,10,-1
 224 64 l 1,11,-1
 224 576 l 1,12,-1
 96 576 l 1,13,-1
 96 640 l 1,14,-1
 416 640 l 1,15,-1
 416 576 l 1,16,-1
 288 576 l 1,17,-1
 288 64 l 1,18,-1
 416 64 l 1,19,-1
 416 0 l 1,8,-1
EndSplineSet
EndChar

StartChar: LATIN
Encoding: 208 208 147
Width: 512
GlyphClass: 1
Flags: W
HStem: 0 64<128 352> 288 64<0 64 128 256> 576 64<128 352>
VStem: 64 64<64 288 352 576> 352 80<64 80 560 576> 368 80<80 96 544 560> 384 64<96 544>
CounterMasks: 1 e0
LayerCount: 2
Fore
SplineSet
128 64 m 1,0,-1
 352 64 l 1,1,-1
 352 80 l 1,2,-1
 368 80 l 1,3,-1
 368 96 l 1,4,-1
 384 96 l 1,5,-1
 384 544 l 1,6,-1
 368 544 l 1,7,-1
 368 560 l 1,8,-1
 352 560 l 1,9,-1
 352 576 l 1,10,-1
 128 576 l 1,11,-1
 128 352 l 1,12,-1
 256 352 l 1,13,-1
 256 288 l 1,14,-1
 128 288 l 1,15,-1
 128 64 l 1,0,-1
368 0 m 1,16,-1
 64 0 l 1,17,-1
 64 288 l 1,18,-1
 0 288 l 1,19,-1
 0 352 l 1,20,-1
 64 352 l 1,21,-1
 64 640 l 1,22,-1
 368 640 l 1,23,-1
 368 624 l 1,24,-1
 400 624 l 1,25,-1
 400 608 l 1,26,-1
 416 608 l 1,27,-1
 416 592 l 1,28,-1
 432 592 l 1,29,-1
 432 560 l 1,30,-1
 448 560 l 1,31,-1
 448 80 l 1,32,-1
 432 80 l 1,33,-1
 432 48 l 1,34,-1
 416 48 l 1,35,-1
 416 32 l 1,36,-1
 400 32 l 1,37,-1
 400 16 l 1,38,-1
 368 16 l 1,39,-1
 368 0 l 1,16,-1
EndSplineSet
EndChar

StartChar: LATIN
Encoding: 209 209 148
Width: 512
GlyphClass: 1
Flags: W
HStem: 0 21G<64 128 352 448> 620 20G<64 128 384 448> 672 80<80 96 288 304 352 368> 672 64<64 80 304 352> 720 80<144 160 208 224 416 432> 736 64<160 208 432 448>
VStem: 64 96<544 576 720 736> 64 80<576 608 704 720> 64 64<0 448 608 640 672 704> 144 80<416 448> 160 80<384 416> 176 80<352 384> 192 80<320 352> 208 80<288 320> 224 80<256 288> 240 80<224 256> 256 80<192 224> 272 80<160 192> 288 80<128 160> 352 96<0 32 736 752> 384 64<128 640 768 800>
LayerCount: 2
Fore
SplineSet
368 672 m 1,0,-1
 272 672 l 1,1,-1
 272 688 l 1,2,-1
 240 688 l 1,3,-1
 240 704 l 1,4,-1
 224 704 l 1,5,-1
 224 720 l 1,6,-1
 208 720 l 1,7,-1
 208 736 l 1,8,-1
 160 736 l 1,9,-1
 160 720 l 1,10,-1
 144 720 l 1,11,-1
 144 704 l 1,12,-1
 128 704 l 1,13,-1
 128 672 l 1,14,-1
 64 672 l 1,15,-1
 64 736 l 1,16,-1
 80 736 l 1,17,-1
 80 752 l 1,18,-1
 96 752 l 1,19,-1
 96 768 l 1,20,-1
 112 768 l 1,21,-1
 112 784 l 1,22,-1
 144 784 l 1,23,-1
 144 800 l 1,24,-1
 240 800 l 1,25,-1
 240 784 l 1,26,-1
 272 784 l 1,27,-1
 272 768 l 1,28,-1
 288 768 l 1,29,-1
 288 752 l 1,30,-1
 304 752 l 1,31,-1
 304 736 l 1,32,-1
 352 736 l 1,33,-1
 352 752 l 1,34,-1
 368 752 l 1,35,-1
 368 768 l 1,36,-1
 384 768 l 1,37,-1
 384 800 l 1,38,-1
 448 800 l 1,39,-1
 448 736 l 1,40,-1
 432 736 l 1,41,-1
 432 720 l 1,42,-1
 416 720 l 1,43,-1
 416 704 l 1,44,-1
 400 704 l 1,45,-1
 400 688 l 1,46,-1
 368 688 l 1,47,-1
 368 672 l 1,0,-1
448 0 m 1,48,-1
 352 0 l 1,49,-1
 352 32 l 1,50,-1
 336 32 l 1,51,-1
 336 64 l 1,52,-1
 320 64 l 1,53,-1
 320 96 l 1,54,-1
 304 96 l 1,55,-1
 304 128 l 1,56,-1
 288 128 l 1,57,-1
 288 160 l 1,58,-1
 272 160 l 1,59,-1
 272 192 l 1,60,-1
 256 192 l 1,61,-1
 256 224 l 1,62,-1
 240 224 l 1,63,-1
 240 256 l 1,64,-1
 224 256 l 1,65,-1
 224 288 l 1,66,-1
 208 288 l 1,67,-1
 208 320 l 1,68,-1
 192 320 l 1,69,-1
 192 352 l 1,70,-1
 176 352 l 1,71,-1
 176 384 l 1,72,-1
 160 384 l 1,73,-1
 160 416 l 1,74,-1
 144 416 l 1,75,-1
 144 448 l 1,76,-1
 128 448 l 1,77,-1
 128 0 l 1,78,-1
 64 0 l 1,79,-1
 64 640 l 1,80,-1
 128 640 l 1,81,-1
 128 608 l 1,82,-1
 144 608 l 1,83,-1
 144 576 l 1,84,-1
 160 576 l 1,85,-1
 160 544 l 1,86,-1
 176 544 l 1,87,-1
 176 512 l 1,88,-1
 192 512 l 1,89,-1
 192 480 l 1,90,-1
 208 480 l 1,91,-1
 208 448 l 1,92,-1
 224 448 l 1,93,-1
 224 416 l 1,94,-1
 240 416 l 1,95,-1
 240 384 l 1,96,-1
 256 384 l 1,97,-1
 256 352 l 1,98,-1
 272 352 l 1,99,-1
 272 320 l 1,100,-1
 288 320 l 1,101,-1
 288 288 l 1,102,-1
 304 288 l 1,103,-1
 304 256 l 1,104,-1
 320 256 l 1,105,-1
 320 224 l 1,106,-1
 336 224 l 1,107,-1
 336 192 l 1,108,-1
 352 192 l 1,109,-1
 352 160 l 1,110,-1
 368 160 l 1,111,-1
 368 128 l 1,112,-1
 384 128 l 1,113,-1
 384 640 l 1,114,-1
 448 640 l 1,115,-1
 448 0 l 1,48,-1
EndSplineSet
EndChar

StartChar: LATIN
Encoding: 210 210 149
Width: 512
GlyphClass: 1
Flags: W
HStem: 0 80<144 160 352 368> 0 64<160 352> 16 80<128 144 368 384> 544 80<128 144 368 384> 560 80<144 160 352 368> 576 64<160 352> 672 48<304 320> 672 32<320 336> 752 48<176 192> 768 32<160 176>
VStem: 64 80<80 96 544 560> 64 64<96 544> 80 80<64 80 560 576> 352 80<64 80 560 576> 368 80<80 96 544 560> 384 64<96 544>
LayerCount: 2
Fore
SplineSet
336 672 m 1,0,-1
 256 672 l 1,1,-1
 256 688 l 1,2,-1
 240 688 l 1,3,-1
 240 704 l 1,4,-1
 224 704 l 1,5,-1
 224 720 l 1,6,-1
 208 720 l 1,7,-1
 208 736 l 1,8,-1
 192 736 l 1,9,-1
 192 752 l 1,10,-1
 176 752 l 1,11,-1
 176 768 l 1,12,-1
 160 768 l 1,13,-1
 160 800 l 1,14,-1
 240 800 l 1,15,-1
 240 784 l 1,16,-1
 256 784 l 1,17,-1
 256 768 l 1,18,-1
 272 768 l 1,19,-1
 272 752 l 1,20,-1
 288 752 l 1,21,-1
 288 736 l 1,22,-1
 304 736 l 1,23,-1
 304 720 l 1,24,-1
 320 720 l 1,25,-1
 320 704 l 1,26,-1
 336 704 l 1,27,-1
 336 672 l 1,0,-1
160 64 m 1,28,-1
 352 64 l 1,29,-1
 352 80 l 1,30,-1
 368 80 l 1,31,-1
 368 96 l 1,32,-1
 384 96 l 1,33,-1
 384 544 l 1,34,-1
 368 544 l 1,35,-1
 368 560 l 1,36,-1
 352 560 l 1,37,-1
 352 576 l 1,38,-1
 160 576 l 1,39,-1
 160 560 l 1,40,-1
 144 560 l 1,41,-1
 144 544 l 1,42,-1
 128 544 l 1,43,-1
 128 96 l 1,44,-1
 144 96 l 1,45,-1
 144 80 l 1,46,-1
 160 80 l 1,47,-1
 160 64 l 1,28,-1
368 0 m 1,48,-1
 144 0 l 1,49,-1
 144 16 l 1,50,-1
 112 16 l 1,51,-1
 112 32 l 1,52,-1
 96 32 l 1,53,-1
 96 48 l 1,54,-1
 80 48 l 1,55,-1
 80 80 l 1,56,-1
 64 80 l 1,57,-1
 64 560 l 1,58,-1
 80 560 l 1,59,-1
 80 592 l 1,60,-1
 96 592 l 1,61,-1
 96 608 l 1,62,-1
 112 608 l 1,63,-1
 112 624 l 1,64,-1
 144 624 l 1,65,-1
 144 640 l 1,66,-1
 368 640 l 1,67,-1
 368 624 l 1,68,-1
 400 624 l 1,69,-1
 400 608 l 1,70,-1
 416 608 l 1,71,-1
 416 592 l 1,72,-1
 432 592 l 1,73,-1
 432 560 l 1,74,-1
 448 560 l 1,75,-1
 448 80 l 1,76,-1
 432 80 l 1,77,-1
 432 48 l 1,78,-1
 416 48 l 1,79,-1
 416 32 l 1,80,-1
 400 32 l 1,81,-1
 400 16 l 1,82,-1
 368 16 l 1,83,-1
 368 0 l 1,48,-1
EndSplineSet
EndChar

StartChar: LATIN
Encoding: 211 211 150
Width: 512
GlyphClass: 1
Flags: W
HStem: 0 80<144 160 352 368> 0 64<160 352> 16 80<128 144 368 384> 544 80<128 144 368 384> 560 80<144 160 352 368> 576 64<160 352> 672 48<192 208> 672 32<176 192> 752 48<320 336> 768 32<336 352>
VStem: 64 80<80 96 544 560> 64 64<96 544> 80 80<64 80 560 576> 352 80<64 80 560 576> 368 80<80 96 544 560> 384 64<96 544>
LayerCount: 2
Fore
SplineSet
256 672 m 1,0,-1
 176 672 l 1,1,-1
 176 704 l 1,2,-1
 192 704 l 1,3,-1
 192 720 l 1,4,-1
 208 720 l 1,5,-1
 208 736 l 1,6,-1
 224 736 l 1,7,-1
 224 752 l 1,8,-1
 240 752 l 1,9,-1
 240 768 l 1,10,-1
 256 768 l 1,11,-1
 256 784 l 1,12,-1
 272 784 l 1,13,-1
 272 800 l 1,14,-1
 352 800 l 1,15,-1
 352 768 l 1,16,-1
 336 768 l 1,17,-1
 336 752 l 1,18,-1
 320 752 l 1,19,-1
 320 736 l 1,20,-1
 304 736 l 1,21,-1
 304 720 l 1,22,-1
 288 720 l 1,23,-1
 288 704 l 1,24,-1
 272 704 l 1,25,-1
 272 688 l 1,26,-1
 256 688 l 1,27,-1
 256 672 l 1,0,-1
160 64 m 1,28,-1
 352 64 l 1,29,-1
 352 80 l 1,30,-1
 368 80 l 1,31,-1
 368 96 l 1,32,-1
 384 96 l 1,33,-1
 384 544 l 1,34,-1
 368 544 l 1,35,-1
 368 560 l 1,36,-1
 352 560 l 1,37,-1
 352 576 l 1,38,-1
 160 576 l 1,39,-1
 160 560 l 1,40,-1
 144 560 l 1,41,-1
 144 544 l 1,42,-1
 128 544 l 1,43,-1
 128 96 l 1,44,-1
 144 96 l 1,45,-1
 144 80 l 1,46,-1
 160 80 l 1,47,-1
 160 64 l 1,28,-1
368 0 m 1,48,-1
 144 0 l 1,49,-1
 144 16 l 1,50,-1
 112 16 l 1,51,-1
 112 32 l 1,52,-1
 96 32 l 1,53,-1
 96 48 l 1,54,-1
 80 48 l 1,55,-1
 80 80 l 1,56,-1
 64 80 l 1,57,-1
 64 560 l 1,58,-1
 80 560 l 1,59,-1
 80 592 l 1,60,-1
 96 592 l 1,61,-1
 96 608 l 1,62,-1
 112 608 l 1,63,-1
 112 624 l 1,64,-1
 144 624 l 1,65,-1
 144 640 l 1,66,-1
 368 640 l 1,67,-1
 368 624 l 1,68,-1
 400 624 l 1,69,-1
 400 608 l 1,70,-1
 416 608 l 1,71,-1
 416 592 l 1,72,-1
 432 592 l 1,73,-1
 432 560 l 1,74,-1
 448 560 l 1,75,-1
 448 80 l 1,76,-1
 432 80 l 1,77,-1
 432 48 l 1,78,-1
 416 48 l 1,79,-1
 416 32 l 1,80,-1
 400 32 l 1,81,-1
 400 16 l 1,82,-1
 368 16 l 1,83,-1
 368 0 l 1,48,-1
EndSplineSet
EndChar

StartChar: LATIN
Encoding: 212 212 151
Width: 512
GlyphClass: 1
Flags: W
HStem: 0 80<144 160 352 368> 0 64<160 352> 16 80<128 144 368 384> 544 80<128 144 368 384> 560 80<144 160 352 368> 576 64<160 352> 704 80<176 192 320 336> 704 64<160 176 336 352> 704 48<144 160 352 368> 704 32<128 144 368 384> 752 80<240 272>
VStem: 64 80<80 96 544 560> 64 64<96 544> 80 80<64 80 560 576> 352 80<64 80 560 576> 368 80<80 96 544 560> 384 64<96 544>
LayerCount: 2
Fore
SplineSet
384 704 m 1,0,-1
 304 704 l 1,1,-1
 304 720 l 1,2,-1
 288 720 l 1,3,-1
 288 736 l 1,4,-1
 272 736 l 1,5,-1
 272 752 l 1,6,-1
 240 752 l 1,7,-1
 240 736 l 1,8,-1
 224 736 l 1,9,-1
 224 720 l 1,10,-1
 208 720 l 1,11,-1
 208 704 l 1,12,-1
 128 704 l 1,13,-1
 128 736 l 1,14,-1
 144 736 l 1,15,-1
 144 752 l 1,16,-1
 160 752 l 1,17,-1
 160 768 l 1,18,-1
 176 768 l 1,19,-1
 176 784 l 1,20,-1
 192 784 l 1,21,-1
 192 800 l 1,22,-1
 208 800 l 1,23,-1
 208 816 l 1,24,-1
 224 816 l 1,25,-1
 224 832 l 1,26,-1
 288 832 l 1,27,-1
 288 816 l 1,28,-1
 304 816 l 1,29,-1
 304 800 l 1,30,-1
 320 800 l 1,31,-1
 320 784 l 1,32,-1
 336 784 l 1,33,-1
 336 768 l 1,34,-1
 352 768 l 1,35,-1
 352 752 l 1,36,-1
 368 752 l 1,37,-1
 368 736 l 1,38,-1
 384 736 l 1,39,-1
 384 704 l 1,0,-1
160 64 m 1,40,-1
 352 64 l 1,41,-1
 352 80 l 1,42,-1
 368 80 l 1,43,-1
 368 96 l 1,44,-1
 384 96 l 1,45,-1
 384 544 l 1,46,-1
 368 544 l 1,47,-1
 368 560 l 1,48,-1
 352 560 l 1,49,-1
 352 576 l 1,50,-1
 160 576 l 1,51,-1
 160 560 l 1,52,-1
 144 560 l 1,53,-1
 144 544 l 1,54,-1
 128 544 l 1,55,-1
 128 96 l 1,56,-1
 144 96 l 1,57,-1
 144 80 l 1,58,-1
 160 80 l 1,59,-1
 160 64 l 1,40,-1
368 0 m 1,60,-1
 144 0 l 1,61,-1
 144 16 l 1,62,-1
 112 16 l 1,63,-1
 112 32 l 1,64,-1
 96 32 l 1,65,-1
 96 48 l 1,66,-1
 80 48 l 1,67,-1
 80 80 l 1,68,-1
 64 80 l 1,69,-1
 64 560 l 1,70,-1
 80 560 l 1,71,-1
 80 592 l 1,72,-1
 96 592 l 1,73,-1
 96 608 l 1,74,-1
 112 608 l 1,75,-1
 112 624 l 1,76,-1
 144 624 l 1,77,-1
 144 640 l 1,78,-1
 368 640 l 1,79,-1
 368 624 l 1,80,-1
 400 624 l 1,81,-1
 400 608 l 1,82,-1
 416 608 l 1,83,-1
 416 592 l 1,84,-1
 432 592 l 1,85,-1
 432 560 l 1,86,-1
 448 560 l 1,87,-1
 448 80 l 1,88,-1
 432 80 l 1,89,-1
 432 48 l 1,90,-1
 416 48 l 1,91,-1
 416 32 l 1,92,-1
 400 32 l 1,93,-1
 400 16 l 1,94,-1
 368 16 l 1,95,-1
 368 0 l 1,60,-1
EndSplineSet
EndChar

StartChar: LATIN
Encoding: 213 213 152
Width: 512
GlyphClass: 1
Flags: W
HStem: 0 80<144 160 352 368> 0 64<160 352> 16 80<128 144 368 384> 544 80<128 144 368 384> 560 80<144 160 352 368> 576 64<160 352> 672 80<80 96 288 304 352 368> 672 64<64 80 304 352> 720 80<144 160 208 224 416 432> 736 64<160 208 432 448>
VStem: 64 80<80 96 544 560 704 720> 64 64<96 544 672 704> 80 80<64 80 560 576> 352 80<64 80 560 576> 368 80<80 96 544 560 752 768> 384 64<96 544 768 800>
LayerCount: 2
Fore
SplineSet
368 672 m 1,0,-1
 272 672 l 1,1,-1
 272 688 l 1,2,-1
 240 688 l 1,3,-1
 240 704 l 1,4,-1
 224 704 l 1,5,-1
 224 720 l 1,6,-1
 208 720 l 1,7,-1
 208 736 l 1,8,-1
 160 736 l 1,9,-1
 160 720 l 1,10,-1
 144 720 l 1,11,-1
 144 704 l 1,12,-1
 128 704 l 1,13,-1
 128 672 l 1,14,-1
 64 672 l 1,15,-1
 64 736 l 1,16,-1
 80 736 l 1,17,-1
 80 752 l 1,18,-1
 96 752 l 1,19,-1
 96 768 l 1,20,-1
 112 768 l 1,21,-1
 112 784 l 1,22,-1
 144 784 l 1,23,-1
 144 800 l 1,24,-1
 240 800 l 1,25,-1
 240 784 l 1,26,-1
 272 784 l 1,27,-1
 272 768 l 1,28,-1
 288 768 l 1,29,-1
 288 752 l 1,30,-1
 304 752 l 1,31,-1
 304 736 l 1,32,-1
 352 736 l 1,33,-1
 352 752 l 1,34,-1
 368 752 l 1,35,-1
 368 768 l 1,36,-1
 384 768 l 1,37,-1
 384 800 l 1,38,-1
 448 800 l 1,39,-1
 448 736 l 1,40,-1
 432 736 l 1,41,-1
 432 720 l 1,42,-1
 416 720 l 1,43,-1
 416 704 l 1,44,-1
 400 704 l 1,45,-1
 400 688 l 1,46,-1
 368 688 l 1,47,-1
 368 672 l 1,0,-1
160 64 m 1,48,-1
 352 64 l 1,49,-1
 352 80 l 1,50,-1
 368 80 l 1,51,-1
 368 96 l 1,52,-1
 384 96 l 1,53,-1
 384 544 l 1,54,-1
 368 544 l 1,55,-1
 368 560 l 1,56,-1
 352 560 l 1,57,-1
 352 576 l 1,58,-1
 160 576 l 1,59,-1
 160 560 l 1,60,-1
 144 560 l 1,61,-1
 144 544 l 1,62,-1
 128 544 l 1,63,-1
 128 96 l 1,64,-1
 144 96 l 1,65,-1
 144 80 l 1,66,-1
 160 80 l 1,67,-1
 160 64 l 1,48,-1
368 0 m 1,68,-1
 144 0 l 1,69,-1
 144 16 l 1,70,-1
 112 16 l 1,71,-1
 112 32 l 1,72,-1
 96 32 l 1,73,-1
 96 48 l 1,74,-1
 80 48 l 1,75,-1
 80 80 l 1,76,-1
 64 80 l 1,77,-1
 64 560 l 1,78,-1
 80 560 l 1,79,-1
 80 592 l 1,80,-1
 96 592 l 1,81,-1
 96 608 l 1,82,-1
 112 608 l 1,83,-1
 112 624 l 1,84,-1
 144 624 l 1,85,-1
 144 640 l 1,86,-1
 368 640 l 1,87,-1
 368 624 l 1,88,-1
 400 624 l 1,89,-1
 400 608 l 1,90,-1
 416 608 l 1,91,-1
 416 592 l 1,92,-1
 432 592 l 1,93,-1
 432 560 l 1,94,-1
 448 560 l 1,95,-1
 448 80 l 1,96,-1
 432 80 l 1,97,-1
 432 48 l 1,98,-1
 416 48 l 1,99,-1
 416 32 l 1,100,-1
 400 32 l 1,101,-1
 400 16 l 1,102,-1
 368 16 l 1,103,-1
 368 0 l 1,68,-1
EndSplineSet
EndChar

StartChar: LATIN
Encoding: 214 214 153
Width: 512
GlyphClass: 1
Flags: W
HStem: 0 80<144 160 352 368> 0 64<160 352> 16 80<128 144 368 384> 544 80<128 144 368 384> 560 80<144 160 352 368> 576 64<160 352> 704 96<128 192 320 384>
VStem: 64 80<80 96 544 560> 64 64<96 544> 80 80<64 80 560 576> 128 64<704 800> 320 64<704 800> 352 80<64 80 560 576> 368 80<80 96 544 560> 384 64<96 544>
LayerCount: 2
Fore
SplineSet
192 704 m 1,0,-1
 128 704 l 1,1,-1
 128 800 l 1,2,-1
 192 800 l 1,3,-1
 192 704 l 1,0,-1
384 704 m 1,4,-1
 320 704 l 1,5,-1
 320 800 l 1,6,-1
 384 800 l 1,7,-1
 384 704 l 1,4,-1
160 64 m 1,8,-1
 352 64 l 1,9,-1
 352 80 l 1,10,-1
 368 80 l 1,11,-1
 368 96 l 1,12,-1
 384 96 l 1,13,-1
 384 544 l 1,14,-1
 368 544 l 1,15,-1
 368 560 l 1,16,-1
 352 560 l 1,17,-1
 352 576 l 1,18,-1
 160 576 l 1,19,-1
 160 560 l 1,20,-1
 144 560 l 1,21,-1
 144 544 l 1,22,-1
 128 544 l 1,23,-1
 128 96 l 1,24,-1
 144 96 l 1,25,-1
 144 80 l 1,26,-1
 160 80 l 1,27,-1
 160 64 l 1,8,-1
368 0 m 1,28,-1
 144 0 l 1,29,-1
 144 16 l 1,30,-1
 112 16 l 1,31,-1
 112 32 l 1,32,-1
 96 32 l 1,33,-1
 96 48 l 1,34,-1
 80 48 l 1,35,-1
 80 80 l 1,36,-1
 64 80 l 1,37,-1
 64 560 l 1,38,-1
 80 560 l 1,39,-1
 80 592 l 1,40,-1
 96 592 l 1,41,-1
 96 608 l 1,42,-1
 112 608 l 1,43,-1
 112 624 l 1,44,-1
 144 624 l 1,45,-1
 144 640 l 1,46,-1
 368 640 l 1,47,-1
 368 624 l 1,48,-1
 400 624 l 1,49,-1
 400 608 l 1,50,-1
 416 608 l 1,51,-1
 416 592 l 1,52,-1
 432 592 l 1,53,-1
 432 560 l 1,54,-1
 448 560 l 1,55,-1
 448 80 l 1,56,-1
 432 80 l 1,57,-1
 432 48 l 1,58,-1
 416 48 l 1,59,-1
 416 32 l 1,60,-1
 400 32 l 1,61,-1
 400 16 l 1,62,-1
 368 16 l 1,63,-1
 368 0 l 1,28,-1
EndSplineSet
EndChar

StartChar: MULTIPLICATION
Encoding: 215 215 154
Width: 512
GlyphClass: 1
Flags: W
LayerCount: 2
Fore
SplineSet
192 304 m 1,0,-1
 192 336 l 1,1,-1
 64 448 l 1,2,-1
 64 512 l 1,3,-1
 112 512 l 1,4,-1
 240 368 l 1,5,-1
 272 368 l 1,6,-1
 400 512 l 1,7,-1
 448 512 l 1,8,-1
 448 448 l 1,9,-1
 320 336 l 1,10,-1
 320 304 l 1,11,-1
 448 192 l 1,12,-1
 448 128 l 1,13,-1
 400 128 l 1,14,-1
 272 272 l 1,15,-1
 240 272 l 1,16,-1
 112 128 l 1,17,-1
 64 128 l 1,18,-1
 64 192 l 1,19,-1
 192 304 l 1,0,-1
EndSplineSet
EndChar

StartChar: LATIN
Encoding: 216 216 155
Width: 512
GlyphClass: 1
Flags: W
HStem: -64 32<32 48> 0 64<160 352> 576 64<160 320>
VStem: 32 64<-64 -32> 48 64<-32 0> 64 64<192 544> 144 80<192 224> 160 80<224 256> 176 80<256 288> 192 80<288 320> 208 80<320 352> 224 80<352 384> 240 80<384 416> 256 80<416 448> 272 80<448 480> 288 80<480 512> 368 80<80 96 640 672> 384 64<96 512 672 704>
LayerCount: 2
Fore
SplineSet
144 192 m 1,0,-1
 144 224 l 1,1,-1
 160 224 l 1,2,-1
 160 256 l 1,3,-1
 176 256 l 1,4,-1
 176 288 l 1,5,-1
 192 288 l 1,6,-1
 192 320 l 1,7,-1
 208 320 l 1,8,-1
 208 352 l 1,9,-1
 224 352 l 1,10,-1
 224 384 l 1,11,-1
 240 384 l 1,12,-1
 240 416 l 1,13,-1
 256 416 l 1,14,-1
 256 448 l 1,15,-1
 272 448 l 1,16,-1
 272 480 l 1,17,-1
 288 480 l 1,18,-1
 288 512 l 1,19,-1
 304 512 l 1,20,-1
 304 544 l 1,21,-1
 320 544 l 1,22,-1
 320 576 l 1,23,-1
 160 576 l 1,24,-1
 160 560 l 1,25,-1
 144 560 l 1,26,-1
 144 544 l 1,27,-1
 128 544 l 1,28,-1
 128 192 l 1,29,-1
 144 192 l 1,0,-1
160 64 m 1,30,-1
 352 64 l 1,31,-1
 352 80 l 1,32,-1
 368 80 l 1,33,-1
 368 96 l 1,34,-1
 384 96 l 1,35,-1
 384 512 l 1,36,-1
 368 512 l 1,37,-1
 368 480 l 1,38,-1
 352 480 l 1,39,-1
 352 448 l 1,40,-1
 336 448 l 1,41,-1
 336 416 l 1,42,-1
 320 416 l 1,43,-1
 320 384 l 1,44,-1
 304 384 l 1,45,-1
 304 352 l 1,46,-1
 288 352 l 1,47,-1
 288 320 l 1,48,-1
 272 320 l 1,49,-1
 272 288 l 1,50,-1
 256 288 l 1,51,-1
 256 256 l 1,52,-1
 240 256 l 1,53,-1
 240 224 l 1,54,-1
 224 224 l 1,55,-1
 224 192 l 1,56,-1
 208 192 l 1,57,-1
 208 160 l 1,58,-1
 192 160 l 1,59,-1
 192 128 l 1,60,-1
 176 128 l 1,61,-1
 176 96 l 1,62,-1
 160 96 l 1,63,-1
 160 64 l 1,30,-1
96 -64 m 1,64,-1
 32 -64 l 1,65,-1
 32 -32 l 1,66,-1
 48 -32 l 1,67,-1
 48 0 l 1,68,-1
 64 0 l 1,69,-1
 64 560 l 1,70,-1
 80 560 l 1,71,-1
 80 592 l 1,72,-1
 96 592 l 1,73,-1
 96 608 l 1,74,-1
 112 608 l 1,75,-1
 112 624 l 1,76,-1
 144 624 l 1,77,-1
 144 640 l 1,78,-1
 368 640 l 1,79,-1
 368 672 l 1,80,-1
 384 672 l 1,81,-1
 384 704 l 1,82,-1
 448 704 l 1,83,-1
 448 640 l 1,84,-1
 432 640 l 1,85,-1
 432 608 l 1,86,-1
 416 608 l 1,87,-1
 416 592 l 1,88,-1
 432 592 l 1,89,-1
 432 576 l 1,90,-1
 448 576 l 1,91,-1
 448 80 l 1,92,-1
 432 80 l 1,93,-1
 432 48 l 1,94,-1
 416 48 l 1,95,-1
 416 32 l 1,96,-1
 400 32 l 1,97,-1
 400 16 l 1,98,-1
 368 16 l 1,99,-1
 368 0 l 1,100,-1
 112 0 l 1,101,-1
 112 -32 l 1,102,-1
 96 -32 l 1,103,-1
 96 -64 l 1,64,-1
EndSplineSet
EndChar

StartChar: LATIN
Encoding: 217 217 156
Width: 512
GlyphClass: 1
Flags: W
HStem: 0 64<160 384> 620 20G<64 128 384 448> 672 48<304 320> 672 32<320 336> 752 48<176 192> 768 32<160 176>
VStem: 64 64<96 640> 384 64<64 640>
LayerCount: 2
Fore
SplineSet
336 672 m 1,0,-1
 256 672 l 1,1,-1
 256 688 l 1,2,-1
 240 688 l 1,3,-1
 240 704 l 1,4,-1
 224 704 l 1,5,-1
 224 720 l 1,6,-1
 208 720 l 1,7,-1
 208 736 l 1,8,-1
 192 736 l 1,9,-1
 192 752 l 1,10,-1
 176 752 l 1,11,-1
 176 768 l 1,12,-1
 160 768 l 1,13,-1
 160 800 l 1,14,-1
 240 800 l 1,15,-1
 240 784 l 1,16,-1
 256 784 l 1,17,-1
 256 768 l 1,18,-1
 272 768 l 1,19,-1
 272 752 l 1,20,-1
 288 752 l 1,21,-1
 288 736 l 1,22,-1
 304 736 l 1,23,-1
 304 720 l 1,24,-1
 320 720 l 1,25,-1
 320 704 l 1,26,-1
 336 704 l 1,27,-1
 336 672 l 1,0,-1
448 0 m 1,28,-1
 144 0 l 1,29,-1
 144 16 l 1,30,-1
 112 16 l 1,31,-1
 112 32 l 1,32,-1
 96 32 l 1,33,-1
 96 48 l 1,34,-1
 80 48 l 1,35,-1
 80 80 l 1,36,-1
 64 80 l 1,37,-1
 64 640 l 1,38,-1
 128 640 l 1,39,-1
 128 96 l 1,40,-1
 144 96 l 1,41,-1
 144 80 l 1,42,-1
 160 80 l 1,43,-1
 160 64 l 1,44,-1
 384 64 l 1,45,-1
 384 640 l 1,46,-1
 448 640 l 1,47,-1
 448 0 l 1,28,-1
EndSplineSet
EndChar

StartChar: LATIN
Encoding: 218 218 157
Width: 512
GlyphClass: 1
Flags: W
HStem: 0 64<160 384> 620 20G<64 128 384 448> 672 48<192 208> 672 32<176 192> 752 48<320 336> 768 32<336 352>
VStem: 64 64<96 640> 384 64<64 640>
LayerCount: 2
Fore
SplineSet
256 672 m 1,0,-1
 176 672 l 1,1,-1
 176 704 l 1,2,-1
 192 704 l 1,3,-1
 192 720 l 1,4,-1
 208 720 l 1,5,-1
 208 736 l 1,6,-1
 224 736 l 1,7,-1
 224 752 l 1,8,-1
 240 752 l 1,9,-1
 240 768 l 1,10,-1
 256 768 l 1,11,-1
 256 784 l 1,12,-1
 272 784 l 1,13,-1
 272 800 l 1,14,-1
 352 800 l 1,15,-1
 352 768 l 1,16,-1
 336 768 l 1,17,-1
 336 752 l 1,18,-1
 320 752 l 1,19,-1
 320 736 l 1,20,-1
 304 736 l 1,21,-1
 304 720 l 1,22,-1
 288 720 l 1,23,-1
 288 704 l 1,24,-1
 272 704 l 1,25,-1
 272 688 l 1,26,-1
 256 688 l 1,27,-1
 256 672 l 1,0,-1
448 0 m 1,28,-1
 144 0 l 1,29,-1
 144 16 l 1,30,-1
 112 16 l 1,31,-1
 112 32 l 1,32,-1
 96 32 l 1,33,-1
 96 48 l 1,34,-1
 80 48 l 1,35,-1
 80 80 l 1,36,-1
 64 80 l 1,37,-1
 64 640 l 1,38,-1
 128 640 l 1,39,-1
 128 96 l 1,40,-1
 144 96 l 1,41,-1
 144 80 l 1,42,-1
 160 80 l 1,43,-1
 160 64 l 1,44,-1
 384 64 l 1,45,-1
 384 640 l 1,46,-1
 448 640 l 1,47,-1
 448 0 l 1,28,-1
EndSplineSet
EndChar

StartChar: LATIN
Encoding: 219 219 158
Width: 512
GlyphClass: 1
Flags: W
HStem: 0 64<160 384> 620 20G<64 128 384 448> 704 80<176 192 320 336> 704 64<160 176 336 352> 704 48<144 160 352 368> 704 32<128 144 368 384> 752 80<240 272>
VStem: 64 64<96 640> 384 64<64 640>
LayerCount: 2
Fore
SplineSet
384 704 m 1,0,-1
 304 704 l 1,1,-1
 304 720 l 1,2,-1
 288 720 l 1,3,-1
 288 736 l 1,4,-1
 272 736 l 1,5,-1
 272 752 l 1,6,-1
 240 752 l 1,7,-1
 240 736 l 1,8,-1
 224 736 l 1,9,-1
 224 720 l 1,10,-1
 208 720 l 1,11,-1
 208 704 l 1,12,-1
 128 704 l 1,13,-1
 128 736 l 1,14,-1
 144 736 l 1,15,-1
 144 752 l 1,16,-1
 160 752 l 1,17,-1
 160 768 l 1,18,-1
 176 768 l 1,19,-1
 176 784 l 1,20,-1
 192 784 l 1,21,-1
 192 800 l 1,22,-1
 208 800 l 1,23,-1
 208 816 l 1,24,-1
 224 816 l 1,25,-1
 224 832 l 1,26,-1
 288 832 l 1,27,-1
 288 816 l 1,28,-1
 304 816 l 1,29,-1
 304 800 l 1,30,-1
 320 800 l 1,31,-1
 320 784 l 1,32,-1
 336 784 l 1,33,-1
 336 768 l 1,34,-1
 352 768 l 1,35,-1
 352 752 l 1,36,-1
 368 752 l 1,37,-1
 368 736 l 1,38,-1
 384 736 l 1,39,-1
 384 704 l 1,0,-1
448 0 m 1,40,-1
 144 0 l 1,41,-1
 144 16 l 1,42,-1
 112 16 l 1,43,-1
 112 32 l 1,44,-1
 96 32 l 1,45,-1
 96 48 l 1,46,-1
 80 48 l 1,47,-1
 80 80 l 1,48,-1
 64 80 l 1,49,-1
 64 640 l 1,50,-1
 128 640 l 1,51,-1
 128 96 l 1,52,-1
 144 96 l 1,53,-1
 144 80 l 1,54,-1
 160 80 l 1,55,-1
 160 64 l 1,56,-1
 384 64 l 1,57,-1
 384 640 l 1,58,-1
 448 640 l 1,59,-1
 448 0 l 1,40,-1
EndSplineSet
EndChar

StartChar: LATIN
Encoding: 220 220 159
Width: 512
GlyphClass: 1
Flags: W
HStem: 0 64<160 384> 620 20G<64 128 384 448> 704 96<128 192 320 384>
VStem: 64 64<96 640> 128 64<704 800> 320 64<704 800> 384 64<64 640>
LayerCount: 2
Fore
SplineSet
192 704 m 1,0,-1
 128 704 l 1,1,-1
 128 800 l 1,2,-1
 192 800 l 1,3,-1
 192 704 l 1,0,-1
384 704 m 1,4,-1
 320 704 l 1,5,-1
 320 800 l 1,6,-1
 384 800 l 1,7,-1
 384 704 l 1,4,-1
448 0 m 1,8,-1
 144 0 l 1,9,-1
 144 16 l 1,10,-1
 112 16 l 1,11,-1
 112 32 l 1,12,-1
 96 32 l 1,13,-1
 96 48 l 1,14,-1
 80 48 l 1,15,-1
 80 80 l 1,16,-1
 64 80 l 1,17,-1
 64 640 l 1,18,-1
 128 640 l 1,19,-1
 128 96 l 1,20,-1
 144 96 l 1,21,-1
 144 80 l 1,22,-1
 160 80 l 1,23,-1
 160 64 l 1,24,-1
 384 64 l 1,25,-1
 384 640 l 1,26,-1
 448 640 l 1,27,-1
 448 0 l 1,8,-1
EndSplineSet
EndChar

StartChar: LATIN
Encoding: 221 221 160
Width: 512
GlyphClass: 1
Flags: W
HStem: 0 64<64 352> 288 64<160 384> 620 20G<64 128 384 448> 672 48<192 208> 672 32<176 192> 752 48<320 336> 768 32<336 352>
VStem: 64 64<384 640> 384 64<96 288 352 640>
LayerCount: 2
Fore
SplineSet
256 672 m 1,0,-1
 176 672 l 1,1,-1
 176 704 l 1,2,-1
 192 704 l 1,3,-1
 192 720 l 1,4,-1
 208 720 l 1,5,-1
 208 736 l 1,6,-1
 224 736 l 1,7,-1
 224 752 l 1,8,-1
 240 752 l 1,9,-1
 240 768 l 1,10,-1
 256 768 l 1,11,-1
 256 784 l 1,12,-1
 272 784 l 1,13,-1
 272 800 l 1,14,-1
 352 800 l 1,15,-1
 352 768 l 1,16,-1
 336 768 l 1,17,-1
 336 752 l 1,18,-1
 320 752 l 1,19,-1
 320 736 l 1,20,-1
 304 736 l 1,21,-1
 304 720 l 1,22,-1
 288 720 l 1,23,-1
 288 704 l 1,24,-1
 272 704 l 1,25,-1
 272 688 l 1,26,-1
 256 688 l 1,27,-1
 256 672 l 1,0,-1
368 0 m 1,28,-1
 64 0 l 1,29,-1
 64 64 l 1,30,-1
 352 64 l 1,31,-1
 352 80 l 1,32,-1
 368 80 l 1,33,-1
 368 96 l 1,34,-1
 384 96 l 1,35,-1
 384 288 l 1,36,-1
 144 288 l 1,37,-1
 144 304 l 1,38,-1
 112 304 l 1,39,-1
 112 320 l 1,40,-1
 96 320 l 1,41,-1
 96 336 l 1,42,-1
 80 336 l 1,43,-1
 80 368 l 1,44,-1
 64 368 l 1,45,-1
 64 640 l 1,46,-1
 128 640 l 1,47,-1
 128 384 l 1,48,-1
 144 384 l 1,49,-1
 144 368 l 1,50,-1
 160 368 l 1,51,-1
 160 352 l 1,52,-1
 384 352 l 1,53,-1
 384 640 l 1,54,-1
 448 640 l 1,55,-1
 448 80 l 1,56,-1
 432 80 l 1,57,-1
 432 48 l 1,58,-1
 416 48 l 1,59,-1
 416 32 l 1,60,-1
 400 32 l 1,61,-1
 400 16 l 1,62,-1
 368 16 l 1,63,-1
 368 0 l 1,28,-1
EndSplineSet
EndChar

StartChar: LATIN
Encoding: 222 222 161
Width: 512
GlyphClass: 1
Flags: W
HStem: 0 64<128 352> 384 64<128 352>
VStem: 64 64<-128 0 64 384 448 576> 352 80<64 80 368 384> 368 80<80 96 352 368> 384 64<96 352>
LayerCount: 2
Fore
SplineSet
128 64 m 1,0,-1
 352 64 l 1,1,-1
 352 80 l 1,2,-1
 368 80 l 1,3,-1
 368 96 l 1,4,-1
 384 96 l 1,5,-1
 384 352 l 1,6,-1
 368 352 l 1,7,-1
 368 368 l 1,8,-1
 352 368 l 1,9,-1
 352 384 l 1,10,-1
 128 384 l 1,11,-1
 128 64 l 1,0,-1
128 -128 m 1,12,-1
 64 -128 l 1,13,-1
 64 576 l 1,14,-1
 128 576 l 1,15,-1
 128 448 l 1,16,-1
 368 448 l 1,17,-1
 368 432 l 1,18,-1
 400 432 l 1,19,-1
 400 416 l 1,20,-1
 416 416 l 1,21,-1
 416 400 l 1,22,-1
 432 400 l 1,23,-1
 432 368 l 1,24,-1
 448 368 l 1,25,-1
 448 80 l 1,26,-1
 432 80 l 1,27,-1
 432 48 l 1,28,-1
 416 48 l 1,29,-1
 416 32 l 1,30,-1
 400 32 l 1,31,-1
 400 16 l 1,32,-1
 368 16 l 1,33,-1
 368 0 l 1,34,-1
 128 0 l 1,35,-1
 128 -128 l 1,12,-1
EndSplineSet
EndChar

StartChar: LATIN
Encoding: 223 223 162
Width: 512
GlyphClass: 1
Flags: W
HStem: 0 80<240 256 352 368> 0 64<256 352> 288 80<256 288> 288 64<192 256> 544 80<128 144 304 320> 560 80<144 160 288 304> 576 64<160 288>
VStem: 64 64<0 544> 160 64<96 128> 288 80<368 384 560 576> 304 80<384 416 544 560> 320 64<416 544> 368 80<80 96 224 256> 384 64<96 224>
LayerCount: 2
Fore
SplineSet
384 0 m 1,0,-1
 224 0 l 1,1,-1
 224 16 l 1,2,-1
 192 16 l 1,3,-1
 192 32 l 1,4,-1
 176 32 l 1,5,-1
 176 64 l 1,6,-1
 160 64 l 1,7,-1
 160 128 l 1,8,-1
 224 128 l 1,9,-1
 224 96 l 1,10,-1
 240 96 l 1,11,-1
 240 80 l 1,12,-1
 256 80 l 1,13,-1
 256 64 l 1,14,-1
 352 64 l 1,15,-1
 352 80 l 1,16,-1
 368 80 l 1,17,-1
 368 96 l 1,18,-1
 384 96 l 1,19,-1
 384 224 l 1,20,-1
 368 224 l 1,21,-1
 368 256 l 1,22,-1
 352 256 l 1,23,-1
 352 272 l 1,24,-1
 320 272 l 1,25,-1
 320 288 l 1,26,-1
 192 288 l 1,27,-1
 192 352 l 1,28,-1
 256 352 l 1,29,-1
 256 368 l 1,30,-1
 288 368 l 1,31,-1
 288 384 l 1,32,-1
 304 384 l 1,33,-1
 304 416 l 1,34,-1
 320 416 l 1,35,-1
 320 544 l 1,36,-1
 304 544 l 1,37,-1
 304 560 l 1,38,-1
 288 560 l 1,39,-1
 288 576 l 1,40,-1
 160 576 l 1,41,-1
 160 560 l 1,42,-1
 144 560 l 1,43,-1
 144 544 l 1,44,-1
 128 544 l 1,45,-1
 128 0 l 1,46,-1
 64 0 l 1,47,-1
 64 560 l 1,48,-1
 80 560 l 1,49,-1
 80 592 l 1,50,-1
 96 592 l 1,51,-1
 96 608 l 1,52,-1
 112 608 l 1,53,-1
 112 624 l 1,54,-1
 144 624 l 1,55,-1
 144 640 l 1,56,-1
 304 640 l 1,57,-1
 304 624 l 1,58,-1
 336 624 l 1,59,-1
 336 608 l 1,60,-1
 352 608 l 1,61,-1
 352 592 l 1,62,-1
 368 592 l 1,63,-1
 368 560 l 1,64,-1
 384 560 l 1,65,-1
 384 384 l 1,66,-1
 368 384 l 1,67,-1
 368 352 l 1,68,-1
 352 352 l 1,69,-1
 352 336 l 1,70,-1
 384 336 l 1,71,-1
 384 320 l 1,72,-1
 400 320 l 1,73,-1
 400 304 l 1,74,-1
 416 304 l 1,75,-1
 416 288 l 1,76,-1
 432 288 l 1,77,-1
 432 256 l 1,78,-1
 448 256 l 1,79,-1
 448 64 l 1,80,-1
 432 64 l 1,81,-1
 432 32 l 1,82,-1
 416 32 l 1,83,-1
 416 16 l 1,84,-1
 384 16 l 1,85,-1
 384 0 l 1,0,-1
EndSplineSet
EndChar

StartChar: LATIN
Encoding: 224 224 163
Width: 512
GlyphClass: 1
Flags: W
HStem: 0 64<160 384> 224 64<160 384> 384 64<96 352> 512 48<336 352>
VStem: 64 80<80 96 192 208> 64 64<96 192> 80 80<64 80 208 224> 160 48<688 704> 384 64<64 224 288 352>
LayerCount: 2
Fore
SplineSet
352 512 m 1,0,-1
 288 512 l 1,1,-1
 288 528 l 1,2,-1
 272 528 l 1,3,-1
 272 544 l 1,4,-1
 256 544 l 1,5,-1
 256 560 l 1,6,-1
 240 560 l 1,7,-1
 240 576 l 1,8,-1
 224 576 l 1,9,-1
 224 592 l 1,10,-1
 208 592 l 1,11,-1
 208 608 l 1,12,-1
 192 608 l 1,13,-1
 192 624 l 1,14,-1
 176 624 l 1,15,-1
 176 640 l 1,16,-1
 160 640 l 1,17,-1
 160 704 l 1,18,-1
 208 704 l 1,19,-1
 208 688 l 1,20,-1
 224 688 l 1,21,-1
 224 672 l 1,22,-1
 240 672 l 1,23,-1
 240 656 l 1,24,-1
 256 656 l 1,25,-1
 256 640 l 1,26,-1
 272 640 l 1,27,-1
 272 624 l 1,28,-1
 288 624 l 1,29,-1
 288 608 l 1,30,-1
 304 608 l 1,31,-1
 304 592 l 1,32,-1
 320 592 l 1,33,-1
 320 576 l 1,34,-1
 336 576 l 1,35,-1
 336 560 l 1,36,-1
 352 560 l 1,37,-1
 352 512 l 1,0,-1
160 64 m 1,38,-1
 384 64 l 1,39,-1
 384 224 l 1,40,-1
 160 224 l 1,41,-1
 160 208 l 1,42,-1
 144 208 l 1,43,-1
 144 192 l 1,44,-1
 128 192 l 1,45,-1
 128 96 l 1,46,-1
 144 96 l 1,47,-1
 144 80 l 1,48,-1
 160 80 l 1,49,-1
 160 64 l 1,38,-1
448 0 m 1,50,-1
 144 0 l 1,51,-1
 144 16 l 1,52,-1
 112 16 l 1,53,-1
 112 32 l 1,54,-1
 96 32 l 1,55,-1
 96 48 l 1,56,-1
 80 48 l 1,57,-1
 80 80 l 1,58,-1
 64 80 l 1,59,-1
 64 208 l 1,60,-1
 80 208 l 1,61,-1
 80 240 l 1,62,-1
 96 240 l 1,63,-1
 96 256 l 1,64,-1
 112 256 l 1,65,-1
 112 272 l 1,66,-1
 144 272 l 1,67,-1
 144 288 l 1,68,-1
 384 288 l 1,69,-1
 384 352 l 1,70,-1
 368 352 l 1,71,-1
 368 368 l 1,72,-1
 352 368 l 1,73,-1
 352 384 l 1,74,-1
 96 384 l 1,75,-1
 96 448 l 1,76,-1
 368 448 l 1,77,-1
 368 432 l 1,78,-1
 400 432 l 1,79,-1
 400 416 l 1,80,-1
 416 416 l 1,81,-1
 416 400 l 1,82,-1
 432 400 l 1,83,-1
 432 368 l 1,84,-1
 448 368 l 1,85,-1
 448 0 l 1,50,-1
EndSplineSet
EndChar

StartChar: LATIN
Encoding: 225 225 164
Width: 512
GlyphClass: 1
Flags: W
HStem: 0 64<160 384> 224 64<160 384> 384 64<96 352> 512 48<192 208>
VStem: 64 80<80 96 192 208> 64 64<96 192> 80 80<64 80 208 224> 336 48<688 704> 384 64<64 224 288 352>
LayerCount: 2
Fore
SplineSet
256 512 m 1,0,-1
 192 512 l 1,1,-1
 192 560 l 1,2,-1
 208 560 l 1,3,-1
 208 576 l 1,4,-1
 224 576 l 1,5,-1
 224 592 l 1,6,-1
 240 592 l 1,7,-1
 240 608 l 1,8,-1
 256 608 l 1,9,-1
 256 624 l 1,10,-1
 272 624 l 1,11,-1
 272 640 l 1,12,-1
 288 640 l 1,13,-1
 288 656 l 1,14,-1
 304 656 l 1,15,-1
 304 672 l 1,16,-1
 320 672 l 1,17,-1
 320 688 l 1,18,-1
 336 688 l 1,19,-1
 336 704 l 1,20,-1
 384 704 l 1,21,-1
 384 640 l 1,22,-1
 368 640 l 1,23,-1
 368 624 l 1,24,-1
 352 624 l 1,25,-1
 352 608 l 1,26,-1
 336 608 l 1,27,-1
 336 592 l 1,28,-1
 320 592 l 1,29,-1
 320 576 l 1,30,-1
 304 576 l 1,31,-1
 304 560 l 1,32,-1
 288 560 l 1,33,-1
 288 544 l 1,34,-1
 272 544 l 1,35,-1
 272 528 l 1,36,-1
 256 528 l 1,37,-1
 256 512 l 1,0,-1
160 64 m 1,38,-1
 384 64 l 1,39,-1
 384 224 l 1,40,-1
 160 224 l 1,41,-1
 160 208 l 1,42,-1
 144 208 l 1,43,-1
 144 192 l 1,44,-1
 128 192 l 1,45,-1
 128 96 l 1,46,-1
 144 96 l 1,47,-1
 144 80 l 1,48,-1
 160 80 l 1,49,-1
 160 64 l 1,38,-1
448 0 m 1,50,-1
 144 0 l 1,51,-1
 144 16 l 1,52,-1
 112 16 l 1,53,-1
 112 32 l 1,54,-1
 96 32 l 1,55,-1
 96 48 l 1,56,-1
 80 48 l 1,57,-1
 80 80 l 1,58,-1
 64 80 l 1,59,-1
 64 208 l 1,60,-1
 80 208 l 1,61,-1
 80 240 l 1,62,-1
 96 240 l 1,63,-1
 96 256 l 1,64,-1
 112 256 l 1,65,-1
 112 272 l 1,66,-1
 144 272 l 1,67,-1
 144 288 l 1,68,-1
 384 288 l 1,69,-1
 384 352 l 1,70,-1
 368 352 l 1,71,-1
 368 368 l 1,72,-1
 352 368 l 1,73,-1
 352 384 l 1,74,-1
 96 384 l 1,75,-1
 96 448 l 1,76,-1
 368 448 l 1,77,-1
 368 432 l 1,78,-1
 400 432 l 1,79,-1
 400 416 l 1,80,-1
 416 416 l 1,81,-1
 416 400 l 1,82,-1
 432 400 l 1,83,-1
 432 368 l 1,84,-1
 448 368 l 1,85,-1
 448 0 l 1,50,-1
EndSplineSet
EndChar

StartChar: LATIN
Encoding: 226 226 165
Width: 512
GlyphClass: 1
Flags: W
HStem: 0 64<160 384> 224 64<160 384> 384 64<96 352> 512 80<112 128 384 400> 512 64<96 112 400 416> 624 80<240 272>
VStem: 64 64<96 192> 80 80<64 80 208 224> 96 48<512 528> 368 48<512 528> 384 64<64 224 288 352>
LayerCount: 2
Fore
SplineSet
416 512 m 1,0,-1
 368 512 l 1,1,-1
 368 528 l 1,2,-1
 352 528 l 1,3,-1
 352 544 l 1,4,-1
 336 544 l 1,5,-1
 336 560 l 1,6,-1
 320 560 l 1,7,-1
 320 576 l 1,8,-1
 304 576 l 1,9,-1
 304 592 l 1,10,-1
 288 592 l 1,11,-1
 288 608 l 1,12,-1
 272 608 l 1,13,-1
 272 624 l 1,14,-1
 240 624 l 1,15,-1
 240 608 l 1,16,-1
 224 608 l 1,17,-1
 224 592 l 1,18,-1
 208 592 l 1,19,-1
 208 576 l 1,20,-1
 192 576 l 1,21,-1
 192 560 l 1,22,-1
 176 560 l 1,23,-1
 176 544 l 1,24,-1
 160 544 l 1,25,-1
 160 528 l 1,26,-1
 144 528 l 1,27,-1
 144 512 l 1,28,-1
 96 512 l 1,29,-1
 96 576 l 1,30,-1
 112 576 l 1,31,-1
 112 592 l 1,32,-1
 128 592 l 1,33,-1
 128 608 l 1,34,-1
 144 608 l 1,35,-1
 144 624 l 1,36,-1
 160 624 l 1,37,-1
 160 640 l 1,38,-1
 176 640 l 1,39,-1
 176 656 l 1,40,-1
 192 656 l 1,41,-1
 192 672 l 1,42,-1
 208 672 l 1,43,-1
 208 688 l 1,44,-1
 224 688 l 1,45,-1
 224 704 l 1,46,-1
 288 704 l 1,47,-1
 288 688 l 1,48,-1
 304 688 l 1,49,-1
 304 672 l 1,50,-1
 320 672 l 1,51,-1
 320 656 l 1,52,-1
 336 656 l 1,53,-1
 336 640 l 1,54,-1
 352 640 l 1,55,-1
 352 624 l 1,56,-1
 368 624 l 1,57,-1
 368 608 l 1,58,-1
 384 608 l 1,59,-1
 384 592 l 1,60,-1
 400 592 l 1,61,-1
 400 576 l 1,62,-1
 416 576 l 1,63,-1
 416 512 l 1,0,-1
160 64 m 1,64,-1
 384 64 l 1,65,-1
 384 224 l 1,66,-1
 160 224 l 1,67,-1
 160 208 l 1,68,-1
 144 208 l 1,69,-1
 144 192 l 1,70,-1
 128 192 l 1,71,-1
 128 96 l 1,72,-1
 144 96 l 1,73,-1
 144 80 l 1,74,-1
 160 80 l 1,75,-1
 160 64 l 1,64,-1
448 0 m 1,76,-1
 144 0 l 1,77,-1
 144 16 l 1,78,-1
 112 16 l 1,79,-1
 112 32 l 1,80,-1
 96 32 l 1,81,-1
 96 48 l 1,82,-1
 80 48 l 1,83,-1
 80 80 l 1,84,-1
 64 80 l 1,85,-1
 64 208 l 1,86,-1
 80 208 l 1,87,-1
 80 240 l 1,88,-1
 96 240 l 1,89,-1
 96 256 l 1,90,-1
 112 256 l 1,91,-1
 112 272 l 1,92,-1
 144 272 l 1,93,-1
 144 288 l 1,94,-1
 384 288 l 1,95,-1
 384 352 l 1,96,-1
 368 352 l 1,97,-1
 368 368 l 1,98,-1
 352 368 l 1,99,-1
 352 384 l 1,100,-1
 96 384 l 1,101,-1
 96 448 l 1,102,-1
 368 448 l 1,103,-1
 368 432 l 1,104,-1
 400 432 l 1,105,-1
 400 416 l 1,106,-1
 416 416 l 1,107,-1
 416 400 l 1,108,-1
 432 400 l 1,109,-1
 432 368 l 1,110,-1
 448 368 l 1,111,-1
 448 0 l 1,76,-1
EndSplineSet
EndChar

StartChar: LATIN
Encoding: 227 227 166
Width: 512
GlyphClass: 1
Flags: W
HStem: 0 64<160 384> 224 64<160 384> 384 64<96 352> 544 80<288 304 352 368> 544 64<304 352> 560 80<272 288 368 384> 608 80<128 144 208 224> 624 80<144 160 192 208> 640 64<160 192>
VStem: 64 80<80 96 192 208 608 624> 64 64<96 192 544 608> 80 80<64 80 208 224> 368 80<352 368 624 640> 384 64<64 224 288 352 640 704>
LayerCount: 2
Fore
SplineSet
368 544 m 1,0,-1
 288 544 l 1,1,-1
 288 560 l 1,2,-1
 256 560 l 1,3,-1
 256 576 l 1,4,-1
 240 576 l 1,5,-1
 240 592 l 1,6,-1
 224 592 l 1,7,-1
 224 608 l 1,8,-1
 208 608 l 1,9,-1
 208 624 l 1,10,-1
 192 624 l 1,11,-1
 192 640 l 1,12,-1
 160 640 l 1,13,-1
 160 624 l 1,14,-1
 144 624 l 1,15,-1
 144 608 l 1,16,-1
 128 608 l 1,17,-1
 128 544 l 1,18,-1
 64 544 l 1,19,-1
 64 640 l 1,20,-1
 80 640 l 1,21,-1
 80 656 l 1,22,-1
 96 656 l 1,23,-1
 96 672 l 1,24,-1
 112 672 l 1,25,-1
 112 688 l 1,26,-1
 144 688 l 1,27,-1
 144 704 l 1,28,-1
 208 704 l 1,29,-1
 208 688 l 1,30,-1
 240 688 l 1,31,-1
 240 672 l 1,32,-1
 256 672 l 1,33,-1
 256 656 l 1,34,-1
 272 656 l 1,35,-1
 272 640 l 1,36,-1
 288 640 l 1,37,-1
 288 624 l 1,38,-1
 304 624 l 1,39,-1
 304 608 l 1,40,-1
 352 608 l 1,41,-1
 352 624 l 1,42,-1
 368 624 l 1,43,-1
 368 640 l 1,44,-1
 384 640 l 1,45,-1
 384 704 l 1,46,-1
 448 704 l 1,47,-1
 448 608 l 1,48,-1
 432 608 l 1,49,-1
 432 592 l 1,50,-1
 416 592 l 1,51,-1
 416 576 l 1,52,-1
 400 576 l 1,53,-1
 400 560 l 1,54,-1
 368 560 l 1,55,-1
 368 544 l 1,0,-1
160 64 m 1,56,-1
 384 64 l 1,57,-1
 384 224 l 1,58,-1
 160 224 l 1,59,-1
 160 208 l 1,60,-1
 144 208 l 1,61,-1
 144 192 l 1,62,-1
 128 192 l 1,63,-1
 128 96 l 1,64,-1
 144 96 l 1,65,-1
 144 80 l 1,66,-1
 160 80 l 1,67,-1
 160 64 l 1,56,-1
448 0 m 1,68,-1
 144 0 l 1,69,-1
 144 16 l 1,70,-1
 112 16 l 1,71,-1
 112 32 l 1,72,-1
 96 32 l 1,73,-1
 96 48 l 1,74,-1
 80 48 l 1,75,-1
 80 80 l 1,76,-1
 64 80 l 1,77,-1
 64 208 l 1,78,-1
 80 208 l 1,79,-1
 80 240 l 1,80,-1
 96 240 l 1,81,-1
 96 256 l 1,82,-1
 112 256 l 1,83,-1
 112 272 l 1,84,-1
 144 272 l 1,85,-1
 144 288 l 1,86,-1
 384 288 l 1,87,-1
 384 352 l 1,88,-1
 368 352 l 1,89,-1
 368 368 l 1,90,-1
 352 368 l 1,91,-1
 352 384 l 1,92,-1
 96 384 l 1,93,-1
 96 448 l 1,94,-1
 368 448 l 1,95,-1
 368 432 l 1,96,-1
 400 432 l 1,97,-1
 400 416 l 1,98,-1
 416 416 l 1,99,-1
 416 400 l 1,100,-1
 432 400 l 1,101,-1
 432 368 l 1,102,-1
 448 368 l 1,103,-1
 448 0 l 1,68,-1
EndSplineSet
EndChar

StartChar: LATIN
Encoding: 228 228 167
Width: 512
GlyphClass: 1
Flags: W
HStem: 0 64<160 384> 224 64<160 384> 384 64<96 352> 544 96<128 192 320 384>
VStem: 64 80<80 96 192 208> 64 64<96 192> 80 80<64 80 208 224> 128 64<544 640> 320 64<544 640> 384 64<64 224 288 352>
LayerCount: 2
Fore
SplineSet
192 544 m 1,0,-1
 128 544 l 1,1,-1
 128 640 l 1,2,-1
 192 640 l 1,3,-1
 192 544 l 1,0,-1
384 544 m 1,4,-1
 320 544 l 1,5,-1
 320 640 l 1,6,-1
 384 640 l 1,7,-1
 384 544 l 1,4,-1
160 64 m 1,8,-1
 384 64 l 1,9,-1
 384 224 l 1,10,-1
 160 224 l 1,11,-1
 160 208 l 1,12,-1
 144 208 l 1,13,-1
 144 192 l 1,14,-1
 128 192 l 1,15,-1
 128 96 l 1,16,-1
 144 96 l 1,17,-1
 144 80 l 1,18,-1
 160 80 l 1,19,-1
 160 64 l 1,8,-1
448 0 m 1,20,-1
 144 0 l 1,21,-1
 144 16 l 1,22,-1
 112 16 l 1,23,-1
 112 32 l 1,24,-1
 96 32 l 1,25,-1
 96 48 l 1,26,-1
 80 48 l 1,27,-1
 80 80 l 1,28,-1
 64 80 l 1,29,-1
 64 208 l 1,30,-1
 80 208 l 1,31,-1
 80 240 l 1,32,-1
 96 240 l 1,33,-1
 96 256 l 1,34,-1
 112 256 l 1,35,-1
 112 272 l 1,36,-1
 144 272 l 1,37,-1
 144 288 l 1,38,-1
 384 288 l 1,39,-1
 384 352 l 1,40,-1
 368 352 l 1,41,-1
 368 368 l 1,42,-1
 352 368 l 1,43,-1
 352 384 l 1,44,-1
 96 384 l 1,45,-1
 96 448 l 1,46,-1
 368 448 l 1,47,-1
 368 432 l 1,48,-1
 400 432 l 1,49,-1
 400 416 l 1,50,-1
 416 416 l 1,51,-1
 416 400 l 1,52,-1
 432 400 l 1,53,-1
 432 368 l 1,54,-1
 448 368 l 1,55,-1
 448 0 l 1,20,-1
EndSplineSet
EndChar

StartChar: LATIN
Encoding: 229 229 168
Width: 512
GlyphClass: 1
Flags: W
HStem: 0 64<160 384> 224 64<160 384> 384 64<96 352> 512 64<240 304> 528 64<224 240 304 320> 592 64<160 176 368 384> 656 64<224 240 304 320> 672 64<240 304>
VStem: 64 80<80 96 192 208> 64 64<96 192> 80 80<64 80 208 224> 160 64<592 656> 176 64<576 592 656 672> 240 64<512 528 720 736> 304 64<576 592 656 672> 320 64<592 656> 384 64<64 224 288 352>
LayerCount: 2
Fore
SplineSet
240 576 m 1,0,-1
 304 576 l 1,1,-1
 304 592 l 1,2,-1
 320 592 l 1,3,-1
 320 656 l 1,4,-1
 304 656 l 1,5,-1
 304 672 l 1,6,-1
 240 672 l 1,7,-1
 240 656 l 1,8,-1
 224 656 l 1,9,-1
 224 592 l 1,10,-1
 240 592 l 1,11,-1
 240 576 l 1,0,-1
304 512 m 1,12,-1
 240 512 l 1,13,-1
 240 528 l 1,14,-1
 208 528 l 1,15,-1
 208 544 l 1,16,-1
 192 544 l 1,17,-1
 192 560 l 1,18,-1
 176 560 l 1,19,-1
 176 592 l 1,20,-1
 160 592 l 1,21,-1
 160 656 l 1,22,-1
 176 656 l 1,23,-1
 176 688 l 1,24,-1
 192 688 l 1,25,-1
 192 704 l 1,26,-1
 208 704 l 1,27,-1
 208 720 l 1,28,-1
 240 720 l 1,29,-1
 240 736 l 1,30,-1
 304 736 l 1,31,-1
 304 720 l 1,32,-1
 336 720 l 1,33,-1
 336 704 l 1,34,-1
 352 704 l 1,35,-1
 352 688 l 1,36,-1
 368 688 l 1,37,-1
 368 656 l 1,38,-1
 384 656 l 1,39,-1
 384 592 l 1,40,-1
 368 592 l 1,41,-1
 368 560 l 1,42,-1
 352 560 l 1,43,-1
 352 544 l 1,44,-1
 336 544 l 1,45,-1
 336 528 l 1,46,-1
 304 528 l 1,47,-1
 304 512 l 1,12,-1
160 64 m 1,48,-1
 384 64 l 1,49,-1
 384 224 l 1,50,-1
 160 224 l 1,51,-1
 160 208 l 1,52,-1
 144 208 l 1,53,-1
 144 192 l 1,54,-1
 128 192 l 1,55,-1
 128 96 l 1,56,-1
 144 96 l 1,57,-1
 144 80 l 1,58,-1
 160 80 l 1,59,-1
 160 64 l 1,48,-1
448 0 m 1,60,-1
 144 0 l 1,61,-1
 144 16 l 1,62,-1
 112 16 l 1,63,-1
 112 32 l 1,64,-1
 96 32 l 1,65,-1
 96 48 l 1,66,-1
 80 48 l 1,67,-1
 80 80 l 1,68,-1
 64 80 l 1,69,-1
 64 208 l 1,70,-1
 80 208 l 1,71,-1
 80 240 l 1,72,-1
 96 240 l 1,73,-1
 96 256 l 1,74,-1
 112 256 l 1,75,-1
 112 272 l 1,76,-1
 144 272 l 1,77,-1
 144 288 l 1,78,-1
 384 288 l 1,79,-1
 384 352 l 1,80,-1
 368 352 l 1,81,-1
 368 368 l 1,82,-1
 352 368 l 1,83,-1
 352 384 l 1,84,-1
 96 384 l 1,85,-1
 96 448 l 1,86,-1
 368 448 l 1,87,-1
 368 432 l 1,88,-1
 400 432 l 1,89,-1
 400 416 l 1,90,-1
 416 416 l 1,91,-1
 416 400 l 1,92,-1
 432 400 l 1,93,-1
 432 368 l 1,94,-1
 448 368 l 1,95,-1
 448 0 l 1,60,-1
EndSplineSet
EndChar

StartChar: LATIN
Encoding: 230 230 169
Width: 512
GlyphClass: 1
Flags: W
HStem: 0 80<144 160 208 224 304 320> 0 64<160 208 320 448> 192 64<288 384> 224 64<160 224> 368 80<192 208 304 320> 384 64<96 192 320 384>
VStem: 64 80<80 96 192 208> 64 64<96 192> 80 80<64 80 208 224> 224 64<96 192 288 352> 384 64<256 384>
LayerCount: 2
Fore
SplineSet
288 256 m 1,0,-1
 384 256 l 1,1,-1
 384 384 l 1,2,-1
 320 384 l 1,3,-1
 320 368 l 1,4,-1
 304 368 l 1,5,-1
 304 352 l 1,6,-1
 288 352 l 1,7,-1
 288 256 l 1,0,-1
160 64 m 1,8,-1
 208 64 l 1,9,-1
 208 80 l 1,10,-1
 224 80 l 1,11,-1
 224 224 l 1,12,-1
 160 224 l 1,13,-1
 160 208 l 1,14,-1
 144 208 l 1,15,-1
 144 192 l 1,16,-1
 128 192 l 1,17,-1
 128 96 l 1,18,-1
 144 96 l 1,19,-1
 144 80 l 1,20,-1
 160 80 l 1,21,-1
 160 64 l 1,8,-1
448 0 m 1,22,-1
 288 0 l 1,23,-1
 288 16 l 1,24,-1
 272 16 l 1,25,-1
 272 32 l 1,26,-1
 240 32 l 1,27,-1
 240 16 l 1,28,-1
 224 16 l 1,29,-1
 224 0 l 1,30,-1
 144 0 l 1,31,-1
 144 16 l 1,32,-1
 112 16 l 1,33,-1
 112 32 l 1,34,-1
 96 32 l 1,35,-1
 96 48 l 1,36,-1
 80 48 l 1,37,-1
 80 80 l 1,38,-1
 64 80 l 1,39,-1
 64 208 l 1,40,-1
 80 208 l 1,41,-1
 80 240 l 1,42,-1
 96 240 l 1,43,-1
 96 256 l 1,44,-1
 112 256 l 1,45,-1
 112 272 l 1,46,-1
 144 272 l 1,47,-1
 144 288 l 1,48,-1
 224 288 l 1,49,-1
 224 352 l 1,50,-1
 208 352 l 1,51,-1
 208 368 l 1,52,-1
 192 368 l 1,53,-1
 192 384 l 1,54,-1
 96 384 l 1,55,-1
 96 448 l 1,56,-1
 224 448 l 1,57,-1
 224 432 l 1,58,-1
 240 432 l 1,59,-1
 240 416 l 1,60,-1
 272 416 l 1,61,-1
 272 432 l 1,62,-1
 288 432 l 1,63,-1
 288 448 l 1,64,-1
 448 448 l 1,65,-1
 448 192 l 1,66,-1
 288 192 l 1,67,-1
 288 96 l 1,68,-1
 304 96 l 1,69,-1
 304 80 l 1,70,-1
 320 80 l 1,71,-1
 320 64 l 1,72,-1
 448 64 l 1,73,-1
 448 0 l 1,22,-1
EndSplineSet
EndChar

StartChar: LATIN
Encoding: 231 231 170
Width: 512
GlyphClass: 1
Flags: W
HStem: -192 64<192 224> 0 64<160 256 320 448> 384 64<160 448>
VStem: 64 80<80 96 352 368> 64 64<96 352> 80 80<64 80 368 384> 192 48<-192 -176> 256 64<-96 0>
LayerCount: 2
Fore
SplineSet
240 -192 m 1,0,-1
 192 -192 l 1,1,-1
 192 -128 l 1,2,-1
 224 -128 l 1,3,-1
 224 -112 l 1,4,-1
 240 -112 l 1,5,-1
 240 -96 l 1,6,-1
 256 -96 l 1,7,-1
 256 0 l 1,8,-1
 144 0 l 1,9,-1
 144 16 l 1,10,-1
 112 16 l 1,11,-1
 112 32 l 1,12,-1
 96 32 l 1,13,-1
 96 48 l 1,14,-1
 80 48 l 1,15,-1
 80 80 l 1,16,-1
 64 80 l 1,17,-1
 64 368 l 1,18,-1
 80 368 l 1,19,-1
 80 400 l 1,20,-1
 96 400 l 1,21,-1
 96 416 l 1,22,-1
 112 416 l 1,23,-1
 112 432 l 1,24,-1
 144 432 l 1,25,-1
 144 448 l 1,26,-1
 448 448 l 1,27,-1
 448 384 l 1,28,-1
 160 384 l 1,29,-1
 160 368 l 1,30,-1
 144 368 l 1,31,-1
 144 352 l 1,32,-1
 128 352 l 1,33,-1
 128 96 l 1,34,-1
 144 96 l 1,35,-1
 144 80 l 1,36,-1
 160 80 l 1,37,-1
 160 64 l 1,38,-1
 448 64 l 1,39,-1
 448 0 l 1,40,-1
 320 0 l 1,41,-1
 320 -112 l 1,42,-1
 304 -112 l 1,43,-1
 304 -144 l 1,44,-1
 288 -144 l 1,45,-1
 288 -160 l 1,46,-1
 272 -160 l 1,47,-1
 272 -176 l 1,48,-1
 240 -176 l 1,49,-1
 240 -192 l 1,0,-1
EndSplineSet
EndChar

StartChar: LATIN
Encoding: 232 232 171
Width: 512
GlyphClass: 1
Flags: W
HStem: 0 64<160 448> 192 64<128 384> 384 64<160 384> 512 48<336 352>
VStem: 64 80<80 96 352 368> 64 64<96 192 256 352> 80 80<64 80 368 384> 160 48<688 704> 384 64<256 384>
LayerCount: 2
Fore
SplineSet
352 512 m 1,0,-1
 288 512 l 1,1,-1
 288 528 l 1,2,-1
 272 528 l 1,3,-1
 272 544 l 1,4,-1
 256 544 l 1,5,-1
 256 560 l 1,6,-1
 240 560 l 1,7,-1
 240 576 l 1,8,-1
 224 576 l 1,9,-1
 224 592 l 1,10,-1
 208 592 l 1,11,-1
 208 608 l 1,12,-1
 192 608 l 1,13,-1
 192 624 l 1,14,-1
 176 624 l 1,15,-1
 176 640 l 1,16,-1
 160 640 l 1,17,-1
 160 704 l 1,18,-1
 208 704 l 1,19,-1
 208 688 l 1,20,-1
 224 688 l 1,21,-1
 224 672 l 1,22,-1
 240 672 l 1,23,-1
 240 656 l 1,24,-1
 256 656 l 1,25,-1
 256 640 l 1,26,-1
 272 640 l 1,27,-1
 272 624 l 1,28,-1
 288 624 l 1,29,-1
 288 608 l 1,30,-1
 304 608 l 1,31,-1
 304 592 l 1,32,-1
 320 592 l 1,33,-1
 320 576 l 1,34,-1
 336 576 l 1,35,-1
 336 560 l 1,36,-1
 352 560 l 1,37,-1
 352 512 l 1,0,-1
128 256 m 1,38,-1
 384 256 l 1,39,-1
 384 384 l 1,40,-1
 160 384 l 1,41,-1
 160 368 l 1,42,-1
 144 368 l 1,43,-1
 144 352 l 1,44,-1
 128 352 l 1,45,-1
 128 256 l 1,38,-1
448 0 m 1,46,-1
 144 0 l 1,47,-1
 144 16 l 1,48,-1
 112 16 l 1,49,-1
 112 32 l 1,50,-1
 96 32 l 1,51,-1
 96 48 l 1,52,-1
 80 48 l 1,53,-1
 80 80 l 1,54,-1
 64 80 l 1,55,-1
 64 368 l 1,56,-1
 80 368 l 1,57,-1
 80 400 l 1,58,-1
 96 400 l 1,59,-1
 96 416 l 1,60,-1
 112 416 l 1,61,-1
 112 432 l 1,62,-1
 144 432 l 1,63,-1
 144 448 l 1,64,-1
 448 448 l 1,65,-1
 448 192 l 1,66,-1
 128 192 l 1,67,-1
 128 96 l 1,68,-1
 144 96 l 1,69,-1
 144 80 l 1,70,-1
 160 80 l 1,71,-1
 160 64 l 1,72,-1
 448 64 l 1,73,-1
 448 0 l 1,46,-1
EndSplineSet
EndChar

StartChar: LATIN
Encoding: 233 233 172
Width: 512
GlyphClass: 1
Flags: W
HStem: 0 64<160 448> 192 64<128 384> 384 64<160 384> 512 48<192 208>
VStem: 64 80<80 96 352 368> 64 64<96 192 256 352> 80 80<64 80 368 384> 336 48<688 704> 384 64<256 384>
LayerCount: 2
Fore
SplineSet
256 512 m 1,0,-1
 192 512 l 1,1,-1
 192 560 l 1,2,-1
 208 560 l 1,3,-1
 208 576 l 1,4,-1
 224 576 l 1,5,-1
 224 592 l 1,6,-1
 240 592 l 1,7,-1
 240 608 l 1,8,-1
 256 608 l 1,9,-1
 256 624 l 1,10,-1
 272 624 l 1,11,-1
 272 640 l 1,12,-1
 288 640 l 1,13,-1
 288 656 l 1,14,-1
 304 656 l 1,15,-1
 304 672 l 1,16,-1
 320 672 l 1,17,-1
 320 688 l 1,18,-1
 336 688 l 1,19,-1
 336 704 l 1,20,-1
 384 704 l 1,21,-1
 384 640 l 1,22,-1
 368 640 l 1,23,-1
 368 624 l 1,24,-1
 352 624 l 1,25,-1
 352 608 l 1,26,-1
 336 608 l 1,27,-1
 336 592 l 1,28,-1
 320 592 l 1,29,-1
 320 576 l 1,30,-1
 304 576 l 1,31,-1
 304 560 l 1,32,-1
 288 560 l 1,33,-1
 288 544 l 1,34,-1
 272 544 l 1,35,-1
 272 528 l 1,36,-1
 256 528 l 1,37,-1
 256 512 l 1,0,-1
128 256 m 1,38,-1
 384 256 l 1,39,-1
 384 384 l 1,40,-1
 160 384 l 1,41,-1
 160 368 l 1,42,-1
 144 368 l 1,43,-1
 144 352 l 1,44,-1
 128 352 l 1,45,-1
 128 256 l 1,38,-1
448 0 m 1,46,-1
 144 0 l 1,47,-1
 144 16 l 1,48,-1
 112 16 l 1,49,-1
 112 32 l 1,50,-1
 96 32 l 1,51,-1
 96 48 l 1,52,-1
 80 48 l 1,53,-1
 80 80 l 1,54,-1
 64 80 l 1,55,-1
 64 368 l 1,56,-1
 80 368 l 1,57,-1
 80 400 l 1,58,-1
 96 400 l 1,59,-1
 96 416 l 1,60,-1
 112 416 l 1,61,-1
 112 432 l 1,62,-1
 144 432 l 1,63,-1
 144 448 l 1,64,-1
 448 448 l 1,65,-1
 448 192 l 1,66,-1
 128 192 l 1,67,-1
 128 96 l 1,68,-1
 144 96 l 1,69,-1
 144 80 l 1,70,-1
 160 80 l 1,71,-1
 160 64 l 1,72,-1
 448 64 l 1,73,-1
 448 0 l 1,46,-1
EndSplineSet
EndChar

StartChar: LATIN
Encoding: 234 234 173
Width: 512
GlyphClass: 1
Flags: W
HStem: 0 64<160 448> 192 64<128 384> 384 64<160 384> 512 80<112 128 384 400> 512 64<96 112 400 416> 624 80<240 272>
VStem: 64 64<96 192 256 352> 80 80<64 80 368 384> 96 48<512 528> 368 48<512 528> 384 64<256 384>
LayerCount: 2
Fore
SplineSet
416 512 m 1,0,-1
 368 512 l 1,1,-1
 368 528 l 1,2,-1
 352 528 l 1,3,-1
 352 544 l 1,4,-1
 336 544 l 1,5,-1
 336 560 l 1,6,-1
 320 560 l 1,7,-1
 320 576 l 1,8,-1
 304 576 l 1,9,-1
 304 592 l 1,10,-1
 288 592 l 1,11,-1
 288 608 l 1,12,-1
 272 608 l 1,13,-1
 272 624 l 1,14,-1
 240 624 l 1,15,-1
 240 608 l 1,16,-1
 224 608 l 1,17,-1
 224 592 l 1,18,-1
 208 592 l 1,19,-1
 208 576 l 1,20,-1
 192 576 l 1,21,-1
 192 560 l 1,22,-1
 176 560 l 1,23,-1
 176 544 l 1,24,-1
 160 544 l 1,25,-1
 160 528 l 1,26,-1
 144 528 l 1,27,-1
 144 512 l 1,28,-1
 96 512 l 1,29,-1
 96 576 l 1,30,-1
 112 576 l 1,31,-1
 112 592 l 1,32,-1
 128 592 l 1,33,-1
 128 608 l 1,34,-1
 144 608 l 1,35,-1
 144 624 l 1,36,-1
 160 624 l 1,37,-1
 160 640 l 1,38,-1
 176 640 l 1,39,-1
 176 656 l 1,40,-1
 192 656 l 1,41,-1
 192 672 l 1,42,-1
 208 672 l 1,43,-1
 208 688 l 1,44,-1
 224 688 l 1,45,-1
 224 704 l 1,46,-1
 288 704 l 1,47,-1
 288 688 l 1,48,-1
 304 688 l 1,49,-1
 304 672 l 1,50,-1
 320 672 l 1,51,-1
 320 656 l 1,52,-1
 336 656 l 1,53,-1
 336 640 l 1,54,-1
 352 640 l 1,55,-1
 352 624 l 1,56,-1
 368 624 l 1,57,-1
 368 608 l 1,58,-1
 384 608 l 1,59,-1
 384 592 l 1,60,-1
 400 592 l 1,61,-1
 400 576 l 1,62,-1
 416 576 l 1,63,-1
 416 512 l 1,0,-1
128 256 m 1,64,-1
 384 256 l 1,65,-1
 384 384 l 1,66,-1
 160 384 l 1,67,-1
 160 368 l 1,68,-1
 144 368 l 1,69,-1
 144 352 l 1,70,-1
 128 352 l 1,71,-1
 128 256 l 1,64,-1
448 0 m 1,72,-1
 144 0 l 1,73,-1
 144 16 l 1,74,-1
 112 16 l 1,75,-1
 112 32 l 1,76,-1
 96 32 l 1,77,-1
 96 48 l 1,78,-1
 80 48 l 1,79,-1
 80 80 l 1,80,-1
 64 80 l 1,81,-1
 64 368 l 1,82,-1
 80 368 l 1,83,-1
 80 400 l 1,84,-1
 96 400 l 1,85,-1
 96 416 l 1,86,-1
 112 416 l 1,87,-1
 112 432 l 1,88,-1
 144 432 l 1,89,-1
 144 448 l 1,90,-1
 448 448 l 1,91,-1
 448 192 l 1,92,-1
 128 192 l 1,93,-1
 128 96 l 1,94,-1
 144 96 l 1,95,-1
 144 80 l 1,96,-1
 160 80 l 1,97,-1
 160 64 l 1,98,-1
 448 64 l 1,99,-1
 448 0 l 1,72,-1
EndSplineSet
EndChar

StartChar: LATIN
Encoding: 235 235 174
Width: 512
GlyphClass: 1
Flags: W
HStem: 0 64<160 448> 192 64<128 384> 384 64<160 384> 544 96<128 192 320 384>
VStem: 64 80<80 96 352 368> 64 64<96 192 256 352> 80 80<64 80 368 384> 128 64<544 640> 320 64<544 640> 384 64<256 384>
LayerCount: 2
Fore
SplineSet
192 544 m 1,0,-1
 128 544 l 1,1,-1
 128 640 l 1,2,-1
 192 640 l 1,3,-1
 192 544 l 1,0,-1
384 544 m 1,4,-1
 320 544 l 1,5,-1
 320 640 l 1,6,-1
 384 640 l 1,7,-1
 384 544 l 1,4,-1
128 256 m 1,8,-1
 384 256 l 1,9,-1
 384 384 l 1,10,-1
 160 384 l 1,11,-1
 160 368 l 1,12,-1
 144 368 l 1,13,-1
 144 352 l 1,14,-1
 128 352 l 1,15,-1
 128 256 l 1,8,-1
448 0 m 1,16,-1
 144 0 l 1,17,-1
 144 16 l 1,18,-1
 112 16 l 1,19,-1
 112 32 l 1,20,-1
 96 32 l 1,21,-1
 96 48 l 1,22,-1
 80 48 l 1,23,-1
 80 80 l 1,24,-1
 64 80 l 1,25,-1
 64 368 l 1,26,-1
 80 368 l 1,27,-1
 80 400 l 1,28,-1
 96 400 l 1,29,-1
 96 416 l 1,30,-1
 112 416 l 1,31,-1
 112 432 l 1,32,-1
 144 432 l 1,33,-1
 144 448 l 1,34,-1
 448 448 l 1,35,-1
 448 192 l 1,36,-1
 128 192 l 1,37,-1
 128 96 l 1,38,-1
 144 96 l 1,39,-1
 144 80 l 1,40,-1
 160 80 l 1,41,-1
 160 64 l 1,42,-1
 448 64 l 1,43,-1
 448 0 l 1,16,-1
EndSplineSet
EndChar

StartChar: LATIN
Encoding: 236 236 175
Width: 512
GlyphClass: 1
Flags: W
HStem: 0 64<288 352> 384 64<160 224> 512 48<336 352>
VStem: 160 48<688 704> 224 128<0 64> 224 64<64 384>
LayerCount: 2
Fore
SplineSet
352 512 m 1,0,-1
 288 512 l 1,1,-1
 288 528 l 1,2,-1
 272 528 l 1,3,-1
 272 544 l 1,4,-1
 256 544 l 1,5,-1
 256 560 l 1,6,-1
 240 560 l 1,7,-1
 240 576 l 1,8,-1
 224 576 l 1,9,-1
 224 592 l 1,10,-1
 208 592 l 1,11,-1
 208 608 l 1,12,-1
 192 608 l 1,13,-1
 192 624 l 1,14,-1
 176 624 l 1,15,-1
 176 640 l 1,16,-1
 160 640 l 1,17,-1
 160 704 l 1,18,-1
 208 704 l 1,19,-1
 208 688 l 1,20,-1
 224 688 l 1,21,-1
 224 672 l 1,22,-1
 240 672 l 1,23,-1
 240 656 l 1,24,-1
 256 656 l 1,25,-1
 256 640 l 1,26,-1
 272 640 l 1,27,-1
 272 624 l 1,28,-1
 288 624 l 1,29,-1
 288 608 l 1,30,-1
 304 608 l 1,31,-1
 304 592 l 1,32,-1
 320 592 l 1,33,-1
 320 576 l 1,34,-1
 336 576 l 1,35,-1
 336 560 l 1,36,-1
 352 560 l 1,37,-1
 352 512 l 1,0,-1
352 0 m 1,38,-1
 224 0 l 1,39,-1
 224 384 l 1,40,-1
 160 384 l 1,41,-1
 160 448 l 1,42,-1
 288 448 l 1,43,-1
 288 64 l 1,44,-1
 352 64 l 1,45,-1
 352 0 l 1,38,-1
EndSplineSet
EndChar

StartChar: LATIN
Encoding: 237 237 176
Width: 512
GlyphClass: 1
Flags: W
HStem: 0 64<288 352> 384 64<160 224> 512 48<160 176>
VStem: 160 128<384 448> 224 64<64 384> 304 48<688 704>
LayerCount: 2
Fore
SplineSet
224 512 m 1,0,-1
 160 512 l 1,1,-1
 160 560 l 1,2,-1
 176 560 l 1,3,-1
 176 576 l 1,4,-1
 192 576 l 1,5,-1
 192 592 l 1,6,-1
 208 592 l 1,7,-1
 208 608 l 1,8,-1
 224 608 l 1,9,-1
 224 624 l 1,10,-1
 240 624 l 1,11,-1
 240 640 l 1,12,-1
 256 640 l 1,13,-1
 256 656 l 1,14,-1
 272 656 l 1,15,-1
 272 672 l 1,16,-1
 288 672 l 1,17,-1
 288 688 l 1,18,-1
 304 688 l 1,19,-1
 304 704 l 1,20,-1
 352 704 l 1,21,-1
 352 640 l 1,22,-1
 336 640 l 1,23,-1
 336 624 l 1,24,-1
 320 624 l 1,25,-1
 320 608 l 1,26,-1
 304 608 l 1,27,-1
 304 592 l 1,28,-1
 288 592 l 1,29,-1
 288 576 l 1,30,-1
 272 576 l 1,31,-1
 272 560 l 1,32,-1
 256 560 l 1,33,-1
 256 544 l 1,34,-1
 240 544 l 1,35,-1
 240 528 l 1,36,-1
 224 528 l 1,37,-1
 224 512 l 1,0,-1
352 0 m 1,38,-1
 224 0 l 1,39,-1
 224 384 l 1,40,-1
 160 384 l 1,41,-1
 160 448 l 1,42,-1
 288 448 l 1,43,-1
 288 64 l 1,44,-1
 352 64 l 1,45,-1
 352 0 l 1,38,-1
EndSplineSet
EndChar

StartChar: LATIN
Encoding: 238 238 177
Width: 512
GlyphClass: 1
Flags: W
HStem: 0 64<288 352> 384 64<160 224> 512 80<112 128 384 400> 512 64<96 112 400 416> 624 80<240 272>
VStem: 96 48<512 528> 160 128<384 448> 224 128<0 64> 224 64<64 384 688 704> 368 48<512 528>
LayerCount: 2
Fore
SplineSet
416 512 m 1,0,-1
 368 512 l 1,1,-1
 368 528 l 1,2,-1
 352 528 l 1,3,-1
 352 544 l 1,4,-1
 336 544 l 1,5,-1
 336 560 l 1,6,-1
 320 560 l 1,7,-1
 320 576 l 1,8,-1
 304 576 l 1,9,-1
 304 592 l 1,10,-1
 288 592 l 1,11,-1
 288 608 l 1,12,-1
 272 608 l 1,13,-1
 272 624 l 1,14,-1
 240 624 l 1,15,-1
 240 608 l 1,16,-1
 224 608 l 1,17,-1
 224 592 l 1,18,-1
 208 592 l 1,19,-1
 208 576 l 1,20,-1
 192 576 l 1,21,-1
 192 560 l 1,22,-1
 176 560 l 1,23,-1
 176 544 l 1,24,-1
 160 544 l 1,25,-1
 160 528 l 1,26,-1
 144 528 l 1,27,-1
 144 512 l 1,28,-1
 96 512 l 1,29,-1
 96 576 l 1,30,-1
 112 576 l 1,31,-1
 112 592 l 1,32,-1
 128 592 l 1,33,-1
 128 608 l 1,34,-1
 144 608 l 1,35,-1
 144 624 l 1,36,-1
 160 624 l 1,37,-1
 160 640 l 1,38,-1
 176 640 l 1,39,-1
 176 656 l 1,40,-1
 192 656 l 1,41,-1
 192 672 l 1,42,-1
 208 672 l 1,43,-1
 208 688 l 1,44,-1
 224 688 l 1,45,-1
 224 704 l 1,46,-1
 288 704 l 1,47,-1
 288 688 l 1,48,-1
 304 688 l 1,49,-1
 304 672 l 1,50,-1
 320 672 l 1,51,-1
 320 656 l 1,52,-1
 336 656 l 1,53,-1
 336 640 l 1,54,-1
 352 640 l 1,55,-1
 352 624 l 1,56,-1
 368 624 l 1,57,-1
 368 608 l 1,58,-1
 384 608 l 1,59,-1
 384 592 l 1,60,-1
 400 592 l 1,61,-1
 400 576 l 1,62,-1
 416 576 l 1,63,-1
 416 512 l 1,0,-1
352 0 m 1,64,-1
 224 0 l 1,65,-1
 224 384 l 1,66,-1
 160 384 l 1,67,-1
 160 448 l 1,68,-1
 288 448 l 1,69,-1
 288 64 l 1,70,-1
 352 64 l 1,71,-1
 352 0 l 1,64,-1
EndSplineSet
EndChar

StartChar: LATIN
Encoding: 239 239 178
Width: 512
GlyphClass: 1
Flags: W
HStem: 0 64<288 352> 384 64<160 224> 544 96<128 192 320 384>
VStem: 128 64<544 640> 160 128<384 448> 224 128<0 64> 224 64<64 384> 320 64<544 640>
LayerCount: 2
Fore
SplineSet
192 544 m 1,0,-1
 128 544 l 1,1,-1
 128 640 l 1,2,-1
 192 640 l 1,3,-1
 192 544 l 1,0,-1
384 544 m 1,4,-1
 320 544 l 1,5,-1
 320 640 l 1,6,-1
 384 640 l 1,7,-1
 384 544 l 1,4,-1
352 0 m 1,8,-1
 224 0 l 1,9,-1
 224 384 l 1,10,-1
 160 384 l 1,11,-1
 160 448 l 1,12,-1
 288 448 l 1,13,-1
 288 64 l 1,14,-1
 352 64 l 1,15,-1
 352 0 l 1,8,-1
EndSplineSet
EndChar

StartChar: LATIN
Encoding: 240 240 179
Width: 512
GlyphClass: 1
Flags: W
HStem: 0 80<144 160 352 368> 0 64<160 352> 16 80<128 144 368 384> 384 64<160 272> 592 80<128 144 240 256> 608 64<112 128 256 272> 624 48<96 112 272 288>
VStem: 64 80<80 96 352 368> 64 64<96 352> 80 80<64 80 368 384> 96 80<496 512 640 656> 96 64<480 496 656 672> 352 80<64 80 368 384> 368 80<80 96 352 368> 384 64<96 352>
LayerCount: 2
Fore
SplineSet
160 64 m 1,0,-1
 352 64 l 1,1,-1
 352 80 l 1,2,-1
 368 80 l 1,3,-1
 368 96 l 1,4,-1
 384 96 l 1,5,-1
 384 352 l 1,6,-1
 368 352 l 1,7,-1
 368 368 l 1,8,-1
 352 368 l 1,9,-1
 352 384 l 1,10,-1
 160 384 l 1,11,-1
 160 368 l 1,12,-1
 144 368 l 1,13,-1
 144 352 l 1,14,-1
 128 352 l 1,15,-1
 128 96 l 1,16,-1
 144 96 l 1,17,-1
 144 80 l 1,18,-1
 160 80 l 1,19,-1
 160 64 l 1,0,-1
368 0 m 1,20,-1
 144 0 l 1,21,-1
 144 16 l 1,22,-1
 112 16 l 1,23,-1
 112 32 l 1,24,-1
 96 32 l 1,25,-1
 96 48 l 1,26,-1
 80 48 l 1,27,-1
 80 80 l 1,28,-1
 64 80 l 1,29,-1
 64 368 l 1,30,-1
 80 368 l 1,31,-1
 80 400 l 1,32,-1
 96 400 l 1,33,-1
 96 416 l 1,34,-1
 112 416 l 1,35,-1
 112 432 l 1,36,-1
 144 432 l 1,37,-1
 144 448 l 1,38,-1
 272 448 l 1,39,-1
 272 464 l 1,40,-1
 256 464 l 1,41,-1
 256 480 l 1,42,-1
 240 480 l 1,43,-1
 240 496 l 1,44,-1
 224 496 l 1,45,-1
 224 512 l 1,46,-1
 208 512 l 1,47,-1
 208 528 l 1,48,-1
 192 528 l 1,49,-1
 192 512 l 1,50,-1
 176 512 l 1,51,-1
 176 496 l 1,52,-1
 160 496 l 1,53,-1
 160 480 l 1,54,-1
 96 480 l 1,55,-1
 96 544 l 1,56,-1
 112 544 l 1,57,-1
 112 560 l 1,58,-1
 128 560 l 1,59,-1
 128 576 l 1,60,-1
 144 576 l 1,61,-1
 144 592 l 1,62,-1
 128 592 l 1,63,-1
 128 608 l 1,64,-1
 112 608 l 1,65,-1
 112 624 l 1,66,-1
 96 624 l 1,67,-1
 96 672 l 1,68,-1
 160 672 l 1,69,-1
 160 656 l 1,70,-1
 176 656 l 1,71,-1
 176 640 l 1,72,-1
 208 640 l 1,73,-1
 208 656 l 1,74,-1
 224 656 l 1,75,-1
 224 672 l 1,76,-1
 288 672 l 1,77,-1
 288 624 l 1,78,-1
 272 624 l 1,79,-1
 272 608 l 1,80,-1
 256 608 l 1,81,-1
 256 592 l 1,82,-1
 240 592 l 1,83,-1
 240 576 l 1,84,-1
 256 576 l 1,85,-1
 256 560 l 1,86,-1
 272 560 l 1,87,-1
 272 544 l 1,88,-1
 288 544 l 1,89,-1
 288 528 l 1,90,-1
 304 528 l 1,91,-1
 304 512 l 1,92,-1
 320 512 l 1,93,-1
 320 496 l 1,94,-1
 336 496 l 1,95,-1
 336 480 l 1,96,-1
 352 480 l 1,97,-1
 352 464 l 1,98,-1
 368 464 l 1,99,-1
 368 448 l 1,100,-1
 384 448 l 1,101,-1
 384 432 l 1,102,-1
 400 432 l 1,103,-1
 400 416 l 1,104,-1
 416 416 l 1,105,-1
 416 400 l 1,106,-1
 432 400 l 1,107,-1
 432 368 l 1,108,-1
 448 368 l 1,109,-1
 448 80 l 1,110,-1
 432 80 l 1,111,-1
 432 48 l 1,112,-1
 416 48 l 1,113,-1
 416 32 l 1,114,-1
 400 32 l 1,115,-1
 400 16 l 1,116,-1
 368 16 l 1,117,-1
 368 0 l 1,20,-1
EndSplineSet
EndChar

StartChar: LATIN
Encoding: 241 241 180
Width: 512
GlyphClass: 1
Flags: W
HStem: 0 21G<64 128 384 448> 384 64<128 352> 544 80<288 304 352 368> 544 64<304 352> 560 80<272 288 368 384> 608 80<128 144 208 224> 624 80<144 160 192 208> 640 64<160 192>
VStem: 64 64<0 384 544 608> 368 80<352 368 624 640> 384 64<0 352 640 704>
LayerCount: 2
Fore
SplineSet
368 544 m 1,0,-1
 288 544 l 1,1,-1
 288 560 l 1,2,-1
 256 560 l 1,3,-1
 256 576 l 1,4,-1
 240 576 l 1,5,-1
 240 592 l 1,6,-1
 224 592 l 1,7,-1
 224 608 l 1,8,-1
 208 608 l 1,9,-1
 208 624 l 1,10,-1
 192 624 l 1,11,-1
 192 640 l 1,12,-1
 160 640 l 1,13,-1
 160 624 l 1,14,-1
 144 624 l 1,15,-1
 144 608 l 1,16,-1
 128 608 l 1,17,-1
 128 544 l 1,18,-1
 64 544 l 1,19,-1
 64 640 l 1,20,-1
 80 640 l 1,21,-1
 80 656 l 1,22,-1
 96 656 l 1,23,-1
 96 672 l 1,24,-1
 112 672 l 1,25,-1
 112 688 l 1,26,-1
 144 688 l 1,27,-1
 144 704 l 1,28,-1
 208 704 l 1,29,-1
 208 688 l 1,30,-1
 240 688 l 1,31,-1
 240 672 l 1,32,-1
 256 672 l 1,33,-1
 256 656 l 1,34,-1
 272 656 l 1,35,-1
 272 640 l 1,36,-1
 288 640 l 1,37,-1
 288 624 l 1,38,-1
 304 624 l 1,39,-1
 304 608 l 1,40,-1
 352 608 l 1,41,-1
 352 624 l 1,42,-1
 368 624 l 1,43,-1
 368 640 l 1,44,-1
 384 640 l 1,45,-1
 384 704 l 1,46,-1
 448 704 l 1,47,-1
 448 608 l 1,48,-1
 432 608 l 1,49,-1
 432 592 l 1,50,-1
 416 592 l 1,51,-1
 416 576 l 1,52,-1
 400 576 l 1,53,-1
 400 560 l 1,54,-1
 368 560 l 1,55,-1
 368 544 l 1,0,-1
448 0 m 1,56,-1
 384 0 l 1,57,-1
 384 352 l 1,58,-1
 368 352 l 1,59,-1
 368 368 l 1,60,-1
 352 368 l 1,61,-1
 352 384 l 1,62,-1
 128 384 l 1,63,-1
 128 0 l 1,64,-1
 64 0 l 1,65,-1
 64 448 l 1,66,-1
 368 448 l 1,67,-1
 368 432 l 1,68,-1
 400 432 l 1,69,-1
 400 416 l 1,70,-1
 416 416 l 1,71,-1
 416 400 l 1,72,-1
 432 400 l 1,73,-1
 432 368 l 1,74,-1
 448 368 l 1,75,-1
 448 0 l 1,56,-1
EndSplineSet
EndChar

StartChar: LATIN
Encoding: 242 242 181
Width: 512
GlyphClass: 1
Flags: W
HStem: 0 80<144 160 352 368> 0 64<160 352> 16 80<128 144 368 384> 352 80<128 144 368 384> 368 80<144 160 352 368> 384 64<160 352> 512 48<336 352>
VStem: 64 80<80 96 352 368> 64 64<96 352> 80 80<64 80 368 384> 160 48<688 704> 352 80<64 80 368 384> 368 80<80 96 352 368> 384 64<96 352>
LayerCount: 2
Fore
SplineSet
352 512 m 1,0,-1
 288 512 l 1,1,-1
 288 528 l 1,2,-1
 272 528 l 1,3,-1
 272 544 l 1,4,-1
 256 544 l 1,5,-1
 256 560 l 1,6,-1
 240 560 l 1,7,-1
 240 576 l 1,8,-1
 224 576 l 1,9,-1
 224 592 l 1,10,-1
 208 592 l 1,11,-1
 208 608 l 1,12,-1
 192 608 l 1,13,-1
 192 624 l 1,14,-1
 176 624 l 1,15,-1
 176 640 l 1,16,-1
 160 640 l 1,17,-1
 160 704 l 1,18,-1
 208 704 l 1,19,-1
 208 688 l 1,20,-1
 224 688 l 1,21,-1
 224 672 l 1,22,-1
 240 672 l 1,23,-1
 240 656 l 1,24,-1
 256 656 l 1,25,-1
 256 640 l 1,26,-1
 272 640 l 1,27,-1
 272 624 l 1,28,-1
 288 624 l 1,29,-1
 288 608 l 1,30,-1
 304 608 l 1,31,-1
 304 592 l 1,32,-1
 320 592 l 1,33,-1
 320 576 l 1,34,-1
 336 576 l 1,35,-1
 336 560 l 1,36,-1
 352 560 l 1,37,-1
 352 512 l 1,0,-1
160 64 m 1,38,-1
 352 64 l 1,39,-1
 352 80 l 1,40,-1
 368 80 l 1,41,-1
 368 96 l 1,42,-1
 384 96 l 1,43,-1
 384 352 l 1,44,-1
 368 352 l 1,45,-1
 368 368 l 1,46,-1
 352 368 l 1,47,-1
 352 384 l 1,48,-1
 160 384 l 1,49,-1
 160 368 l 1,50,-1
 144 368 l 1,51,-1
 144 352 l 1,52,-1
 128 352 l 1,53,-1
 128 96 l 1,54,-1
 144 96 l 1,55,-1
 144 80 l 1,56,-1
 160 80 l 1,57,-1
 160 64 l 1,38,-1
368 0 m 1,58,-1
 144 0 l 1,59,-1
 144 16 l 1,60,-1
 112 16 l 1,61,-1
 112 32 l 1,62,-1
 96 32 l 1,63,-1
 96 48 l 1,64,-1
 80 48 l 1,65,-1
 80 80 l 1,66,-1
 64 80 l 1,67,-1
 64 368 l 1,68,-1
 80 368 l 1,69,-1
 80 400 l 1,70,-1
 96 400 l 1,71,-1
 96 416 l 1,72,-1
 112 416 l 1,73,-1
 112 432 l 1,74,-1
 144 432 l 1,75,-1
 144 448 l 1,76,-1
 368 448 l 1,77,-1
 368 432 l 1,78,-1
 400 432 l 1,79,-1
 400 416 l 1,80,-1
 416 416 l 1,81,-1
 416 400 l 1,82,-1
 432 400 l 1,83,-1
 432 368 l 1,84,-1
 448 368 l 1,85,-1
 448 80 l 1,86,-1
 432 80 l 1,87,-1
 432 48 l 1,88,-1
 416 48 l 1,89,-1
 416 32 l 1,90,-1
 400 32 l 1,91,-1
 400 16 l 1,92,-1
 368 16 l 1,93,-1
 368 0 l 1,58,-1
EndSplineSet
EndChar

StartChar: LATIN
Encoding: 243 243 182
Width: 512
GlyphClass: 1
Flags: W
HStem: 0 80<144 160 352 368> 0 64<160 352> 16 80<128 144 368 384> 352 80<128 144 368 384> 368 80<144 160 352 368> 384 64<160 352> 512 48<160 176>
VStem: 64 80<80 96 352 368> 64 64<96 352> 80 80<64 80 368 384> 304 48<688 704> 352 80<64 80 368 384> 368 80<80 96 352 368> 384 64<96 352>
LayerCount: 2
Fore
SplineSet
224 512 m 1,0,-1
 160 512 l 1,1,-1
 160 560 l 1,2,-1
 176 560 l 1,3,-1
 176 576 l 1,4,-1
 192 576 l 1,5,-1
 192 592 l 1,6,-1
 208 592 l 1,7,-1
 208 608 l 1,8,-1
 224 608 l 1,9,-1
 224 624 l 1,10,-1
 240 624 l 1,11,-1
 240 640 l 1,12,-1
 256 640 l 1,13,-1
 256 656 l 1,14,-1
 272 656 l 1,15,-1
 272 672 l 1,16,-1
 288 672 l 1,17,-1
 288 688 l 1,18,-1
 304 688 l 1,19,-1
 304 704 l 1,20,-1
 352 704 l 1,21,-1
 352 640 l 1,22,-1
 336 640 l 1,23,-1
 336 624 l 1,24,-1
 320 624 l 1,25,-1
 320 608 l 1,26,-1
 304 608 l 1,27,-1
 304 592 l 1,28,-1
 288 592 l 1,29,-1
 288 576 l 1,30,-1
 272 576 l 1,31,-1
 272 560 l 1,32,-1
 256 560 l 1,33,-1
 256 544 l 1,34,-1
 240 544 l 1,35,-1
 240 528 l 1,36,-1
 224 528 l 1,37,-1
 224 512 l 1,0,-1
160 64 m 1,38,-1
 352 64 l 1,39,-1
 352 80 l 1,40,-1
 368 80 l 1,41,-1
 368 96 l 1,42,-1
 384 96 l 1,43,-1
 384 352 l 1,44,-1
 368 352 l 1,45,-1
 368 368 l 1,46,-1
 352 368 l 1,47,-1
 352 384 l 1,48,-1
 160 384 l 1,49,-1
 160 368 l 1,50,-1
 144 368 l 1,51,-1
 144 352 l 1,52,-1
 128 352 l 1,53,-1
 128 96 l 1,54,-1
 144 96 l 1,55,-1
 144 80 l 1,56,-1
 160 80 l 1,57,-1
 160 64 l 1,38,-1
368 0 m 1,58,-1
 144 0 l 1,59,-1
 144 16 l 1,60,-1
 112 16 l 1,61,-1
 112 32 l 1,62,-1
 96 32 l 1,63,-1
 96 48 l 1,64,-1
 80 48 l 1,65,-1
 80 80 l 1,66,-1
 64 80 l 1,67,-1
 64 368 l 1,68,-1
 80 368 l 1,69,-1
 80 400 l 1,70,-1
 96 400 l 1,71,-1
 96 416 l 1,72,-1
 112 416 l 1,73,-1
 112 432 l 1,74,-1
 144 432 l 1,75,-1
 144 448 l 1,76,-1
 368 448 l 1,77,-1
 368 432 l 1,78,-1
 400 432 l 1,79,-1
 400 416 l 1,80,-1
 416 416 l 1,81,-1
 416 400 l 1,82,-1
 432 400 l 1,83,-1
 432 368 l 1,84,-1
 448 368 l 1,85,-1
 448 80 l 1,86,-1
 432 80 l 1,87,-1
 432 48 l 1,88,-1
 416 48 l 1,89,-1
 416 32 l 1,90,-1
 400 32 l 1,91,-1
 400 16 l 1,92,-1
 368 16 l 1,93,-1
 368 0 l 1,58,-1
EndSplineSet
EndChar

StartChar: LATIN
Encoding: 244 244 183
Width: 512
GlyphClass: 1
Flags: W
HStem: 0 80<144 160 352 368> 0 64<160 352> 16 80<128 144 368 384> 352 80<128 144 368 384> 368 80<144 160 352 368> 384 64<160 352> 512 80<112 128 384 400> 512 64<96 112 400 416> 624 80<240 272>
VStem: 64 64<96 352> 80 80<64 80 368 384> 96 48<512 528> 352 80<64 80 368 384> 368 48<512 528> 384 64<96 352>
LayerCount: 2
Fore
SplineSet
416 512 m 1,0,-1
 368 512 l 1,1,-1
 368 528 l 1,2,-1
 352 528 l 1,3,-1
 352 544 l 1,4,-1
 336 544 l 1,5,-1
 336 560 l 1,6,-1
 320 560 l 1,7,-1
 320 576 l 1,8,-1
 304 576 l 1,9,-1
 304 592 l 1,10,-1
 288 592 l 1,11,-1
 288 608 l 1,12,-1
 272 608 l 1,13,-1
 272 624 l 1,14,-1
 240 624 l 1,15,-1
 240 608 l 1,16,-1
 224 608 l 1,17,-1
 224 592 l 1,18,-1
 208 592 l 1,19,-1
 208 576 l 1,20,-1
 192 576 l 1,21,-1
 192 560 l 1,22,-1
 176 560 l 1,23,-1
 176 544 l 1,24,-1
 160 544 l 1,25,-1
 160 528 l 1,26,-1
 144 528 l 1,27,-1
 144 512 l 1,28,-1
 96 512 l 1,29,-1
 96 576 l 1,30,-1
 112 576 l 1,31,-1
 112 592 l 1,32,-1
 128 592 l 1,33,-1
 128 608 l 1,34,-1
 144 608 l 1,35,-1
 144 624 l 1,36,-1
 160 624 l 1,37,-1
 160 640 l 1,38,-1
 176 640 l 1,39,-1
 176 656 l 1,40,-1
 192 656 l 1,41,-1
 192 672 l 1,42,-1
 208 672 l 1,43,-1
 208 688 l 1,44,-1
 224 688 l 1,45,-1
 224 704 l 1,46,-1
 288 704 l 1,47,-1
 288 688 l 1,48,-1
 304 688 l 1,49,-1
 304 672 l 1,50,-1
 320 672 l 1,51,-1
 320 656 l 1,52,-1
 336 656 l 1,53,-1
 336 640 l 1,54,-1
 352 640 l 1,55,-1
 352 624 l 1,56,-1
 368 624 l 1,57,-1
 368 608 l 1,58,-1
 384 608 l 1,59,-1
 384 592 l 1,60,-1
 400 592 l 1,61,-1
 400 576 l 1,62,-1
 416 576 l 1,63,-1
 416 512 l 1,0,-1
160 64 m 1,64,-1
 352 64 l 1,65,-1
 352 80 l 1,66,-1
 368 80 l 1,67,-1
 368 96 l 1,68,-1
 384 96 l 1,69,-1
 384 352 l 1,70,-1
 368 352 l 1,71,-1
 368 368 l 1,72,-1
 352 368 l 1,73,-1
 352 384 l 1,74,-1
 160 384 l 1,75,-1
 160 368 l 1,76,-1
 144 368 l 1,77,-1
 144 352 l 1,78,-1
 128 352 l 1,79,-1
 128 96 l 1,80,-1
 144 96 l 1,81,-1
 144 80 l 1,82,-1
 160 80 l 1,83,-1
 160 64 l 1,64,-1
368 0 m 1,84,-1
 144 0 l 1,85,-1
 144 16 l 1,86,-1
 112 16 l 1,87,-1
 112 32 l 1,88,-1
 96 32 l 1,89,-1
 96 48 l 1,90,-1
 80 48 l 1,91,-1
 80 80 l 1,92,-1
 64 80 l 1,93,-1
 64 368 l 1,94,-1
 80 368 l 1,95,-1
 80 400 l 1,96,-1
 96 400 l 1,97,-1
 96 416 l 1,98,-1
 112 416 l 1,99,-1
 112 432 l 1,100,-1
 144 432 l 1,101,-1
 144 448 l 1,102,-1
 368 448 l 1,103,-1
 368 432 l 1,104,-1
 400 432 l 1,105,-1
 400 416 l 1,106,-1
 416 416 l 1,107,-1
 416 400 l 1,108,-1
 432 400 l 1,109,-1
 432 368 l 1,110,-1
 448 368 l 1,111,-1
 448 80 l 1,112,-1
 432 80 l 1,113,-1
 432 48 l 1,114,-1
 416 48 l 1,115,-1
 416 32 l 1,116,-1
 400 32 l 1,117,-1
 400 16 l 1,118,-1
 368 16 l 1,119,-1
 368 0 l 1,84,-1
EndSplineSet
EndChar

StartChar: LATIN
Encoding: 245 245 184
Width: 512
GlyphClass: 1
Flags: W
HStem: 0 80<144 160 352 368> 0 64<160 352> 16 80<128 144 368 384> 352 80<128 144 368 384> 368 80<144 160 352 368> 384 64<160 352> 544 80<288 304 352 368> 544 64<304 352> 560 80<272 288 368 384> 608 80<128 144 208 224> 624 80<144 160 192 208> 640 64<160 192>
VStem: 64 80<80 96 352 368 608 624> 64 64<96 352 544 608> 80 80<64 80 368 384> 352 80<64 80 368 384> 368 80<80 96 352 368 624 640> 384 64<96 352 640 704>
LayerCount: 2
Fore
SplineSet
368 544 m 1,0,-1
 288 544 l 1,1,-1
 288 560 l 1,2,-1
 256 560 l 1,3,-1
 256 576 l 1,4,-1
 240 576 l 1,5,-1
 240 592 l 1,6,-1
 224 592 l 1,7,-1
 224 608 l 1,8,-1
 208 608 l 1,9,-1
 208 624 l 1,10,-1
 192 624 l 1,11,-1
 192 640 l 1,12,-1
 160 640 l 1,13,-1
 160 624 l 1,14,-1
 144 624 l 1,15,-1
 144 608 l 1,16,-1
 128 608 l 1,17,-1
 128 544 l 1,18,-1
 64 544 l 1,19,-1
 64 640 l 1,20,-1
 80 640 l 1,21,-1
 80 656 l 1,22,-1
 96 656 l 1,23,-1
 96 672 l 1,24,-1
 112 672 l 1,25,-1
 112 688 l 1,26,-1
 144 688 l 1,27,-1
 144 704 l 1,28,-1
 208 704 l 1,29,-1
 208 688 l 1,30,-1
 240 688 l 1,31,-1
 240 672 l 1,32,-1
 256 672 l 1,33,-1
 256 656 l 1,34,-1
 272 656 l 1,35,-1
 272 640 l 1,36,-1
 288 640 l 1,37,-1
 288 624 l 1,38,-1
 304 624 l 1,39,-1
 304 608 l 1,40,-1
 352 608 l 1,41,-1
 352 624 l 1,42,-1
 368 624 l 1,43,-1
 368 640 l 1,44,-1
 384 640 l 1,45,-1
 384 704 l 1,46,-1
 448 704 l 1,47,-1
 448 608 l 1,48,-1
 432 608 l 1,49,-1
 432 592 l 1,50,-1
 416 592 l 1,51,-1
 416 576 l 1,52,-1
 400 576 l 1,53,-1
 400 560 l 1,54,-1
 368 560 l 1,55,-1
 368 544 l 1,0,-1
160 64 m 1,56,-1
 352 64 l 1,57,-1
 352 80 l 1,58,-1
 368 80 l 1,59,-1
 368 96 l 1,60,-1
 384 96 l 1,61,-1
 384 352 l 1,62,-1
 368 352 l 1,63,-1
 368 368 l 1,64,-1
 352 368 l 1,65,-1
 352 384 l 1,66,-1
 160 384 l 1,67,-1
 160 368 l 1,68,-1
 144 368 l 1,69,-1
 144 352 l 1,70,-1
 128 352 l 1,71,-1
 128 96 l 1,72,-1
 144 96 l 1,73,-1
 144 80 l 1,74,-1
 160 80 l 1,75,-1
 160 64 l 1,56,-1
368 0 m 1,76,-1
 144 0 l 1,77,-1
 144 16 l 1,78,-1
 112 16 l 1,79,-1
 112 32 l 1,80,-1
 96 32 l 1,81,-1
 96 48 l 1,82,-1
 80 48 l 1,83,-1
 80 80 l 1,84,-1
 64 80 l 1,85,-1
 64 368 l 1,86,-1
 80 368 l 1,87,-1
 80 400 l 1,88,-1
 96 400 l 1,89,-1
 96 416 l 1,90,-1
 112 416 l 1,91,-1
 112 432 l 1,92,-1
 144 432 l 1,93,-1
 144 448 l 1,94,-1
 368 448 l 1,95,-1
 368 432 l 1,96,-1
 400 432 l 1,97,-1
 400 416 l 1,98,-1
 416 416 l 1,99,-1
 416 400 l 1,100,-1
 432 400 l 1,101,-1
 432 368 l 1,102,-1
 448 368 l 1,103,-1
 448 80 l 1,104,-1
 432 80 l 1,105,-1
 432 48 l 1,106,-1
 416 48 l 1,107,-1
 416 32 l 1,108,-1
 400 32 l 1,109,-1
 400 16 l 1,110,-1
 368 16 l 1,111,-1
 368 0 l 1,76,-1
EndSplineSet
EndChar

StartChar: LATIN
Encoding: 246 246 185
Width: 512
GlyphClass: 1
Flags: W
HStem: 0 80<144 160 352 368> 0 64<160 352> 16 80<128 144 368 384> 352 80<128 144 368 384> 368 80<144 160 352 368> 384 64<160 352> 544 96<128 192 320 384>
VStem: 64 80<80 96 352 368> 64 64<96 352> 80 80<64 80 368 384> 128 64<544 640> 320 64<544 640> 352 80<64 80 368 384> 368 80<80 96 352 368> 384 64<96 352>
LayerCount: 2
Fore
SplineSet
192 544 m 1,0,-1
 128 544 l 1,1,-1
 128 640 l 1,2,-1
 192 640 l 1,3,-1
 192 544 l 1,0,-1
384 544 m 1,4,-1
 320 544 l 1,5,-1
 320 640 l 1,6,-1
 384 640 l 1,7,-1
 384 544 l 1,4,-1
160 64 m 1,8,-1
 352 64 l 1,9,-1
 352 80 l 1,10,-1
 368 80 l 1,11,-1
 368 96 l 1,12,-1
 384 96 l 1,13,-1
 384 352 l 1,14,-1
 368 352 l 1,15,-1
 368 368 l 1,16,-1
 352 368 l 1,17,-1
 352 384 l 1,18,-1
 160 384 l 1,19,-1
 160 368 l 1,20,-1
 144 368 l 1,21,-1
 144 352 l 1,22,-1
 128 352 l 1,23,-1
 128 96 l 1,24,-1
 144 96 l 1,25,-1
 144 80 l 1,26,-1
 160 80 l 1,27,-1
 160 64 l 1,8,-1
368 0 m 1,28,-1
 144 0 l 1,29,-1
 144 16 l 1,30,-1
 112 16 l 1,31,-1
 112 32 l 1,32,-1
 96 32 l 1,33,-1
 96 48 l 1,34,-1
 80 48 l 1,35,-1
 80 80 l 1,36,-1
 64 80 l 1,37,-1
 64 368 l 1,38,-1
 80 368 l 1,39,-1
 80 400 l 1,40,-1
 96 400 l 1,41,-1
 96 416 l 1,42,-1
 112 416 l 1,43,-1
 112 432 l 1,44,-1
 144 432 l 1,45,-1
 144 448 l 1,46,-1
 368 448 l 1,47,-1
 368 432 l 1,48,-1
 400 432 l 1,49,-1
 400 416 l 1,50,-1
 416 416 l 1,51,-1
 416 400 l 1,52,-1
 432 400 l 1,53,-1
 432 368 l 1,54,-1
 448 368 l 1,55,-1
 448 80 l 1,56,-1
 432 80 l 1,57,-1
 432 48 l 1,58,-1
 416 48 l 1,59,-1
 416 32 l 1,60,-1
 400 32 l 1,61,-1
 400 16 l 1,62,-1
 368 16 l 1,63,-1
 368 0 l 1,28,-1
EndSplineSet
EndChar

StartChar: DIVISION
Encoding: 247 247 186
Width: 512
GlyphClass: 1
Flags: W
HStem: 96 96<224 288> 256 64<96 416> 384 96<224 288>
VStem: 224 64<96 192 384 480>
CounterMasks: 1 e0
LayerCount: 2
Fore
SplineSet
288 384 m 1,0,-1
 224 384 l 1,1,-1
 224 480 l 1,2,-1
 288 480 l 1,3,-1
 288 384 l 1,0,-1
416 256 m 1,4,-1
 96 256 l 1,5,-1
 96 320 l 1,6,-1
 416 320 l 1,7,-1
 416 256 l 1,4,-1
288 96 m 1,8,-1
 224 96 l 1,9,-1
 224 192 l 1,10,-1
 288 192 l 1,11,-1
 288 96 l 1,8,-1
EndSplineSet
EndChar

StartChar: LATIN
Encoding: 248 248 187
Width: 512
GlyphClass: 1
Flags: W
HStem: 0 64<48 64 160 352> 0 48<32 48> 384 64<160 352 448 464> 400 48<464 480>
VStem: 32 48<0 16> 64 64<144 352> 384 64<96 288> 432 48<432 448>
LayerCount: 2
Fore
SplineSet
144 144 m 1,0,-1
 144 160 l 1,1,-1
 160 160 l 1,2,-1
 160 176 l 1,3,-1
 176 176 l 1,4,-1
 176 192 l 1,5,-1
 192 192 l 1,6,-1
 192 208 l 1,7,-1
 208 208 l 1,8,-1
 208 224 l 1,9,-1
 224 224 l 1,10,-1
 224 240 l 1,11,-1
 240 240 l 1,12,-1
 240 256 l 1,13,-1
 256 256 l 1,14,-1
 256 272 l 1,15,-1
 272 272 l 1,16,-1
 272 288 l 1,17,-1
 288 288 l 1,18,-1
 288 304 l 1,19,-1
 304 304 l 1,20,-1
 304 320 l 1,21,-1
 320 320 l 1,22,-1
 320 336 l 1,23,-1
 336 336 l 1,24,-1
 336 352 l 1,25,-1
 352 352 l 1,26,-1
 352 384 l 1,27,-1
 160 384 l 1,28,-1
 160 368 l 1,29,-1
 144 368 l 1,30,-1
 144 352 l 1,31,-1
 128 352 l 1,32,-1
 128 144 l 1,33,-1
 144 144 l 1,0,-1
160 64 m 1,34,-1
 352 64 l 1,35,-1
 352 80 l 1,36,-1
 368 80 l 1,37,-1
 368 96 l 1,38,-1
 384 96 l 1,39,-1
 384 288 l 1,40,-1
 368 288 l 1,41,-1
 368 272 l 1,42,-1
 352 272 l 1,43,-1
 352 256 l 1,44,-1
 336 256 l 1,45,-1
 336 240 l 1,46,-1
 320 240 l 1,47,-1
 320 224 l 1,48,-1
 304 224 l 1,49,-1
 304 208 l 1,50,-1
 288 208 l 1,51,-1
 288 192 l 1,52,-1
 272 192 l 1,53,-1
 272 176 l 1,54,-1
 256 176 l 1,55,-1
 256 160 l 1,56,-1
 240 160 l 1,57,-1
 240 144 l 1,58,-1
 224 144 l 1,59,-1
 224 128 l 1,60,-1
 208 128 l 1,61,-1
 208 112 l 1,62,-1
 192 112 l 1,63,-1
 192 96 l 1,64,-1
 176 96 l 1,65,-1
 176 80 l 1,66,-1
 160 80 l 1,67,-1
 160 64 l 1,34,-1
368 0 m 1,68,-1
 144 0 l 1,69,-1
 144 16 l 1,70,-1
 112 16 l 1,71,-1
 112 32 l 1,72,-1
 96 32 l 1,73,-1
 96 16 l 1,74,-1
 80 16 l 1,75,-1
 80 0 l 1,76,-1
 32 0 l 1,77,-1
 32 48 l 1,78,-1
 48 48 l 1,79,-1
 48 64 l 1,80,-1
 64 64 l 1,81,-1
 64 368 l 1,82,-1
 80 368 l 1,83,-1
 80 400 l 1,84,-1
 96 400 l 1,85,-1
 96 416 l 1,86,-1
 112 416 l 1,87,-1
 112 432 l 1,88,-1
 144 432 l 1,89,-1
 144 448 l 1,90,-1
 368 448 l 1,91,-1
 368 432 l 1,92,-1
 400 432 l 1,93,-1
 400 416 l 1,94,-1
 416 416 l 1,95,-1
 416 432 l 1,96,-1
 432 432 l 1,97,-1
 432 448 l 1,98,-1
 480 448 l 1,99,-1
 480 400 l 1,100,-1
 464 400 l 1,101,-1
 464 384 l 1,102,-1
 448 384 l 1,103,-1
 448 80 l 1,104,-1
 432 80 l 1,105,-1
 432 48 l 1,106,-1
 416 48 l 1,107,-1
 416 32 l 1,108,-1
 400 32 l 1,109,-1
 400 16 l 1,110,-1
 368 16 l 1,111,-1
 368 0 l 1,68,-1
EndSplineSet
EndChar

StartChar: LATIN
Encoding: 249 249 188
Width: 512
GlyphClass: 1
Flags: W
HStem: 0 64<160 384> 428 20G<64 128 384 448> 512 48<336 352>
VStem: 64 64<96 448> 160 48<688 704> 384 64<64 448>
LayerCount: 2
Fore
SplineSet
352 512 m 1,0,-1
 288 512 l 1,1,-1
 288 528 l 1,2,-1
 272 528 l 1,3,-1
 272 544 l 1,4,-1
 256 544 l 1,5,-1
 256 560 l 1,6,-1
 240 560 l 1,7,-1
 240 576 l 1,8,-1
 224 576 l 1,9,-1
 224 592 l 1,10,-1
 208 592 l 1,11,-1
 208 608 l 1,12,-1
 192 608 l 1,13,-1
 192 624 l 1,14,-1
 176 624 l 1,15,-1
 176 640 l 1,16,-1
 160 640 l 1,17,-1
 160 704 l 1,18,-1
 208 704 l 1,19,-1
 208 688 l 1,20,-1
 224 688 l 1,21,-1
 224 672 l 1,22,-1
 240 672 l 1,23,-1
 240 656 l 1,24,-1
 256 656 l 1,25,-1
 256 640 l 1,26,-1
 272 640 l 1,27,-1
 272 624 l 1,28,-1
 288 624 l 1,29,-1
 288 608 l 1,30,-1
 304 608 l 1,31,-1
 304 592 l 1,32,-1
 320 592 l 1,33,-1
 320 576 l 1,34,-1
 336 576 l 1,35,-1
 336 560 l 1,36,-1
 352 560 l 1,37,-1
 352 512 l 1,0,-1
448 0 m 1,38,-1
 144 0 l 1,39,-1
 144 16 l 1,40,-1
 112 16 l 1,41,-1
 112 32 l 1,42,-1
 96 32 l 1,43,-1
 96 48 l 1,44,-1
 80 48 l 1,45,-1
 80 80 l 1,46,-1
 64 80 l 1,47,-1
 64 448 l 1,48,-1
 128 448 l 1,49,-1
 128 96 l 1,50,-1
 144 96 l 1,51,-1
 144 80 l 1,52,-1
 160 80 l 1,53,-1
 160 64 l 1,54,-1
 384 64 l 1,55,-1
 384 448 l 1,56,-1
 448 448 l 1,57,-1
 448 0 l 1,38,-1
EndSplineSet
EndChar

StartChar: LATIN
Encoding: 250 250 189
Width: 512
GlyphClass: 1
Flags: W
HStem: 0 64<160 384> 428 20G<64 128 384 448> 512 48<160 176>
VStem: 64 64<96 448> 304 48<688 704> 384 64<64 448>
LayerCount: 2
Fore
SplineSet
224 512 m 1,0,-1
 160 512 l 1,1,-1
 160 560 l 1,2,-1
 176 560 l 1,3,-1
 176 576 l 1,4,-1
 192 576 l 1,5,-1
 192 592 l 1,6,-1
 208 592 l 1,7,-1
 208 608 l 1,8,-1
 224 608 l 1,9,-1
 224 624 l 1,10,-1
 240 624 l 1,11,-1
 240 640 l 1,12,-1
 256 640 l 1,13,-1
 256 656 l 1,14,-1
 272 656 l 1,15,-1
 272 672 l 1,16,-1
 288 672 l 1,17,-1
 288 688 l 1,18,-1
 304 688 l 1,19,-1
 304 704 l 1,20,-1
 352 704 l 1,21,-1
 352 640 l 1,22,-1
 336 640 l 1,23,-1
 336 624 l 1,24,-1
 320 624 l 1,25,-1
 320 608 l 1,26,-1
 304 608 l 1,27,-1
 304 592 l 1,28,-1
 288 592 l 1,29,-1
 288 576 l 1,30,-1
 272 576 l 1,31,-1
 272 560 l 1,32,-1
 256 560 l 1,33,-1
 256 544 l 1,34,-1
 240 544 l 1,35,-1
 240 528 l 1,36,-1
 224 528 l 1,37,-1
 224 512 l 1,0,-1
448 0 m 1,38,-1
 144 0 l 1,39,-1
 144 16 l 1,40,-1
 112 16 l 1,41,-1
 112 32 l 1,42,-1
 96 32 l 1,43,-1
 96 48 l 1,44,-1
 80 48 l 1,45,-1
 80 80 l 1,46,-1
 64 80 l 1,47,-1
 64 448 l 1,48,-1
 128 448 l 1,49,-1
 128 96 l 1,50,-1
 144 96 l 1,51,-1
 144 80 l 1,52,-1
 160 80 l 1,53,-1
 160 64 l 1,54,-1
 384 64 l 1,55,-1
 384 448 l 1,56,-1
 448 448 l 1,57,-1
 448 0 l 1,38,-1
EndSplineSet
EndChar

StartChar: LATIN
Encoding: 251 251 190
Width: 512
GlyphClass: 1
Flags: W
HStem: 0 64<160 384> 428 20G<64 128 384 448> 512 80<112 128 384 400> 512 64<96 112 400 416> 624 80<240 272>
VStem: 64 64<96 448> 96 48<512 528> 368 48<512 528> 384 64<64 448>
LayerCount: 2
Fore
SplineSet
416 512 m 1,0,-1
 368 512 l 1,1,-1
 368 528 l 1,2,-1
 352 528 l 1,3,-1
 352 544 l 1,4,-1
 336 544 l 1,5,-1
 336 560 l 1,6,-1
 320 560 l 1,7,-1
 320 576 l 1,8,-1
 304 576 l 1,9,-1
 304 592 l 1,10,-1
 288 592 l 1,11,-1
 288 608 l 1,12,-1
 272 608 l 1,13,-1
 272 624 l 1,14,-1
 240 624 l 1,15,-1
 240 608 l 1,16,-1
 224 608 l 1,17,-1
 224 592 l 1,18,-1
 208 592 l 1,19,-1
 208 576 l 1,20,-1
 192 576 l 1,21,-1
 192 560 l 1,22,-1
 176 560 l 1,23,-1
 176 544 l 1,24,-1
 160 544 l 1,25,-1
 160 528 l 1,26,-1
 144 528 l 1,27,-1
 144 512 l 1,28,-1
 96 512 l 1,29,-1
 96 576 l 1,30,-1
 112 576 l 1,31,-1
 112 592 l 1,32,-1
 128 592 l 1,33,-1
 128 608 l 1,34,-1
 144 608 l 1,35,-1
 144 624 l 1,36,-1
 160 624 l 1,37,-1
 160 640 l 1,38,-1
 176 640 l 1,39,-1
 176 656 l 1,40,-1
 192 656 l 1,41,-1
 192 672 l 1,42,-1
 208 672 l 1,43,-1
 208 688 l 1,44,-1
 224 688 l 1,45,-1
 224 704 l 1,46,-1
 288 704 l 1,47,-1
 288 688 l 1,48,-1
 304 688 l 1,49,-1
 304 672 l 1,50,-1
 320 672 l 1,51,-1
 320 656 l 1,52,-1
 336 656 l 1,53,-1
 336 640 l 1,54,-1
 352 640 l 1,55,-1
 352 624 l 1,56,-1
 368 624 l 1,57,-1
 368 608 l 1,58,-1
 384 608 l 1,59,-1
 384 592 l 1,60,-1
 400 592 l 1,61,-1
 400 576 l 1,62,-1
 416 576 l 1,63,-1
 416 512 l 1,0,-1
448 0 m 1,64,-1
 144 0 l 1,65,-1
 144 16 l 1,66,-1
 112 16 l 1,67,-1
 112 32 l 1,68,-1
 96 32 l 1,69,-1
 96 48 l 1,70,-1
 80 48 l 1,71,-1
 80 80 l 1,72,-1
 64 80 l 1,73,-1
 64 448 l 1,74,-1
 128 448 l 1,75,-1
 128 96 l 1,76,-1
 144 96 l 1,77,-1
 144 80 l 1,78,-1
 160 80 l 1,79,-1
 160 64 l 1,80,-1
 384 64 l 1,81,-1
 384 448 l 1,82,-1
 448 448 l 1,83,-1
 448 0 l 1,64,-1
EndSplineSet
EndChar

StartChar: LATIN
Encoding: 252 252 191
Width: 512
GlyphClass: 1
Flags: W
HStem: 0 64<160 384> 428 20G<64 128 384 448> 544 96<128 192 320 384>
VStem: 64 64<96 448> 128 64<544 640> 320 64<544 640> 384 64<64 448>
LayerCount: 2
Fore
SplineSet
192 544 m 1,0,-1
 128 544 l 1,1,-1
 128 640 l 1,2,-1
 192 640 l 1,3,-1
 192 544 l 1,0,-1
384 544 m 1,4,-1
 320 544 l 1,5,-1
 320 640 l 1,6,-1
 384 640 l 1,7,-1
 384 544 l 1,4,-1
448 0 m 1,8,-1
 144 0 l 1,9,-1
 144 16 l 1,10,-1
 112 16 l 1,11,-1
 112 32 l 1,12,-1
 96 32 l 1,13,-1
 96 48 l 1,14,-1
 80 48 l 1,15,-1
 80 80 l 1,16,-1
 64 80 l 1,17,-1
 64 448 l 1,18,-1
 128 448 l 1,19,-1
 128 96 l 1,20,-1
 144 96 l 1,21,-1
 144 80 l 1,22,-1
 160 80 l 1,23,-1
 160 64 l 1,24,-1
 384 64 l 1,25,-1
 384 448 l 1,26,-1
 448 448 l 1,27,-1
 448 0 l 1,8,-1
EndSplineSet
EndChar

StartChar: LATIN
Encoding: 253 253 192
Width: 512
GlyphClass: 1
Flags: W
HStem: -192 64<64 352> 0 64<160 384> 428 20G<64 128 384 448> 512 48<160 176>
VStem: 64 64<96 448> 304 48<688 704> 384 64<-96 0 64 448>
LayerCount: 2
Fore
SplineSet
224 512 m 1,0,-1
 160 512 l 1,1,-1
 160 560 l 1,2,-1
 176 560 l 1,3,-1
 176 576 l 1,4,-1
 192 576 l 1,5,-1
 192 592 l 1,6,-1
 208 592 l 1,7,-1
 208 608 l 1,8,-1
 224 608 l 1,9,-1
 224 624 l 1,10,-1
 240 624 l 1,11,-1
 240 640 l 1,12,-1
 256 640 l 1,13,-1
 256 656 l 1,14,-1
 272 656 l 1,15,-1
 272 672 l 1,16,-1
 288 672 l 1,17,-1
 288 688 l 1,18,-1
 304 688 l 1,19,-1
 304 704 l 1,20,-1
 352 704 l 1,21,-1
 352 640 l 1,22,-1
 336 640 l 1,23,-1
 336 624 l 1,24,-1
 320 624 l 1,25,-1
 320 608 l 1,26,-1
 304 608 l 1,27,-1
 304 592 l 1,28,-1
 288 592 l 1,29,-1
 288 576 l 1,30,-1
 272 576 l 1,31,-1
 272 560 l 1,32,-1
 256 560 l 1,33,-1
 256 544 l 1,34,-1
 240 544 l 1,35,-1
 240 528 l 1,36,-1
 224 528 l 1,37,-1
 224 512 l 1,0,-1
368 -192 m 1,38,-1
 64 -192 l 1,39,-1
 64 -128 l 1,40,-1
 352 -128 l 1,41,-1
 352 -112 l 1,42,-1
 368 -112 l 1,43,-1
 368 -96 l 1,44,-1
 384 -96 l 1,45,-1
 384 0 l 1,46,-1
 144 0 l 1,47,-1
 144 16 l 1,48,-1
 112 16 l 1,49,-1
 112 32 l 1,50,-1
 96 32 l 1,51,-1
 96 48 l 1,52,-1
 80 48 l 1,53,-1
 80 80 l 1,54,-1
 64 80 l 1,55,-1
 64 448 l 1,56,-1
 128 448 l 1,57,-1
 128 96 l 1,58,-1
 144 96 l 1,59,-1
 144 80 l 1,60,-1
 160 80 l 1,61,-1
 160 64 l 1,62,-1
 384 64 l 1,63,-1
 384 448 l 1,64,-1
 448 448 l 1,65,-1
 448 -112 l 1,66,-1
 432 -112 l 1,67,-1
 432 -144 l 1,68,-1
 416 -144 l 1,69,-1
 416 -160 l 1,70,-1
 400 -160 l 1,71,-1
 400 -176 l 1,72,-1
 368 -176 l 1,73,-1
 368 -192 l 1,38,-1
EndSplineSet
EndChar

StartChar: LATIN
Encoding: 254 254 193
Width: 512
GlyphClass: 1
Flags: W
HStem: -192 21G<64 128> 0 64<128 352> 384 64<128 352> 620 20G<64 128>
VStem: 64 64<-192 0 64 384 448 640> 352 80<64 80 368 384> 368 80<80 96 352 368> 384 64<96 352>
LayerCount: 2
Fore
SplineSet
128 64 m 1,0,-1
 352 64 l 1,1,-1
 352 80 l 1,2,-1
 368 80 l 1,3,-1
 368 96 l 1,4,-1
 384 96 l 1,5,-1
 384 352 l 1,6,-1
 368 352 l 1,7,-1
 368 368 l 1,8,-1
 352 368 l 1,9,-1
 352 384 l 1,10,-1
 128 384 l 1,11,-1
 128 64 l 1,0,-1
128 -192 m 1,12,-1
 64 -192 l 1,13,-1
 64 640 l 1,14,-1
 128 640 l 1,15,-1
 128 448 l 1,16,-1
 368 448 l 1,17,-1
 368 432 l 1,18,-1
 400 432 l 1,19,-1
 400 416 l 1,20,-1
 416 416 l 1,21,-1
 416 400 l 1,22,-1
 432 400 l 1,23,-1
 432 368 l 1,24,-1
 448 368 l 1,25,-1
 448 80 l 1,26,-1
 432 80 l 1,27,-1
 432 48 l 1,28,-1
 416 48 l 1,29,-1
 416 32 l 1,30,-1
 400 32 l 1,31,-1
 400 16 l 1,32,-1
 368 16 l 1,33,-1
 368 0 l 1,34,-1
 128 0 l 1,35,-1
 128 -192 l 1,12,-1
EndSplineSet
EndChar

StartChar: LATIN
Encoding: 255 255 194
Width: 512
GlyphClass: 1
Flags: W
HStem: -192 64<64 352> 0 64<160 384> 428 20G<64 128 384 448> 544 96<128 192 320 384>
VStem: 64 64<96 448> 128 64<544 640> 320 64<544 640> 384 64<-96 0 64 448>
LayerCount: 2
Fore
SplineSet
192 544 m 1,0,-1
 128 544 l 1,1,-1
 128 640 l 1,2,-1
 192 640 l 1,3,-1
 192 544 l 1,0,-1
384 544 m 1,4,-1
 320 544 l 1,5,-1
 320 640 l 1,6,-1
 384 640 l 1,7,-1
 384 544 l 1,4,-1
368 -192 m 1,8,-1
 64 -192 l 1,9,-1
 64 -128 l 1,10,-1
 352 -128 l 1,11,-1
 352 -112 l 1,12,-1
 368 -112 l 1,13,-1
 368 -96 l 1,14,-1
 384 -96 l 1,15,-1
 384 0 l 1,16,-1
 144 0 l 1,17,-1
 144 16 l 1,18,-1
 112 16 l 1,19,-1
 112 32 l 1,20,-1
 96 32 l 1,21,-1
 96 48 l 1,22,-1
 80 48 l 1,23,-1
 80 80 l 1,24,-1
 64 80 l 1,25,-1
 64 448 l 1,26,-1
 128 448 l 1,27,-1
 128 96 l 1,28,-1
 144 96 l 1,29,-1
 144 80 l 1,30,-1
 160 80 l 1,31,-1
 160 64 l 1,32,-1
 384 64 l 1,33,-1
 384 448 l 1,34,-1
 448 448 l 1,35,-1
 448 -112 l 1,36,-1
 432 -112 l 1,37,-1
 432 -144 l 1,38,-1
 416 -144 l 1,39,-1
 416 -160 l 1,40,-1
 400 -160 l 1,41,-1
 400 -176 l 1,42,-1
 368 -176 l 1,43,-1
 368 -192 l 1,8,-1
EndSplineSet
EndChar

StartChar: LATIN
Encoding: 257 257 195
Width: 512
GlyphClass: 1
Flags: W
HStem: 0 64<160 384> 224 64<160 384> 384 64<96 352> 512 64<128 384>
VStem: 64 80<80 96 192 208> 64 64<96 192> 80 80<64 80 208 224> 384 64<64 224 288 352>
LayerCount: 2
Fore
SplineSet
384 512 m 1,0,-1
 128 512 l 1,1,-1
 128 576 l 1,2,-1
 384 576 l 1,3,-1
 384 512 l 1,0,-1
160 64 m 1,4,-1
 384 64 l 1,5,-1
 384 224 l 1,6,-1
 160 224 l 1,7,-1
 160 208 l 1,8,-1
 144 208 l 1,9,-1
 144 192 l 1,10,-1
 128 192 l 1,11,-1
 128 96 l 1,12,-1
 144 96 l 1,13,-1
 144 80 l 1,14,-1
 160 80 l 1,15,-1
 160 64 l 1,4,-1
448 0 m 1,16,-1
 144 0 l 1,17,-1
 144 16 l 1,18,-1
 112 16 l 1,19,-1
 112 32 l 1,20,-1
 96 32 l 1,21,-1
 96 48 l 1,22,-1
 80 48 l 1,23,-1
 80 80 l 1,24,-1
 64 80 l 1,25,-1
 64 208 l 1,26,-1
 80 208 l 1,27,-1
 80 240 l 1,28,-1
 96 240 l 1,29,-1
 96 256 l 1,30,-1
 112 256 l 1,31,-1
 112 272 l 1,32,-1
 144 272 l 1,33,-1
 144 288 l 1,34,-1
 384 288 l 1,35,-1
 384 352 l 1,36,-1
 368 352 l 1,37,-1
 368 368 l 1,38,-1
 352 368 l 1,39,-1
 352 384 l 1,40,-1
 96 384 l 1,41,-1
 96 448 l 1,42,-1
 368 448 l 1,43,-1
 368 432 l 1,44,-1
 400 432 l 1,45,-1
 400 416 l 1,46,-1
 416 416 l 1,47,-1
 416 400 l 1,48,-1
 432 400 l 1,49,-1
 432 368 l 1,50,-1
 448 368 l 1,51,-1
 448 0 l 1,16,-1
EndSplineSet
EndChar

StartChar: LATIN
Encoding: 259 259 196
Width: 512
GlyphClass: 1
Flags: W
HStem: 0 64<160 384> 224 64<160 384> 384 64<96 352> 512 64<208 304> 528 64<192 208 304 320> 560 80<144 160 352 368> 592 48<128 144 368 384>
VStem: 64 80<80 96 192 208> 64 64<96 192> 80 80<64 80 208 224> 128 64<592 640> 320 64<592 640> 384 64<64 224 288 352>
LayerCount: 2
Fore
SplineSet
304 512 m 1,0,-1
 208 512 l 1,1,-1
 208 528 l 1,2,-1
 176 528 l 1,3,-1
 176 544 l 1,4,-1
 160 544 l 1,5,-1
 160 560 l 1,6,-1
 144 560 l 1,7,-1
 144 592 l 1,8,-1
 128 592 l 1,9,-1
 128 640 l 1,10,-1
 192 640 l 1,11,-1
 192 592 l 1,12,-1
 208 592 l 1,13,-1
 208 576 l 1,14,-1
 304 576 l 1,15,-1
 304 592 l 1,16,-1
 320 592 l 1,17,-1
 320 640 l 1,18,-1
 384 640 l 1,19,-1
 384 592 l 1,20,-1
 368 592 l 1,21,-1
 368 560 l 1,22,-1
 352 560 l 1,23,-1
 352 544 l 1,24,-1
 336 544 l 1,25,-1
 336 528 l 1,26,-1
 304 528 l 1,27,-1
 304 512 l 1,0,-1
160 64 m 1,28,-1
 384 64 l 1,29,-1
 384 224 l 1,30,-1
 160 224 l 1,31,-1
 160 208 l 1,32,-1
 144 208 l 1,33,-1
 144 192 l 1,34,-1
 128 192 l 1,35,-1
 128 96 l 1,36,-1
 144 96 l 1,37,-1
 144 80 l 1,38,-1
 160 80 l 1,39,-1
 160 64 l 1,28,-1
448 0 m 1,40,-1
 144 0 l 1,41,-1
 144 16 l 1,42,-1
 112 16 l 1,43,-1
 112 32 l 1,44,-1
 96 32 l 1,45,-1
 96 48 l 1,46,-1
 80 48 l 1,47,-1
 80 80 l 1,48,-1
 64 80 l 1,49,-1
 64 208 l 1,50,-1
 80 208 l 1,51,-1
 80 240 l 1,52,-1
 96 240 l 1,53,-1
 96 256 l 1,54,-1
 112 256 l 1,55,-1
 112 272 l 1,56,-1
 144 272 l 1,57,-1
 144 288 l 1,58,-1
 384 288 l 1,59,-1
 384 352 l 1,60,-1
 368 352 l 1,61,-1
 368 368 l 1,62,-1
 352 368 l 1,63,-1
 352 384 l 1,64,-1
 96 384 l 1,65,-1
 96 448 l 1,66,-1
 368 448 l 1,67,-1
 368 432 l 1,68,-1
 400 432 l 1,69,-1
 400 416 l 1,70,-1
 416 416 l 1,71,-1
 416 400 l 1,72,-1
 432 400 l 1,73,-1
 432 368 l 1,74,-1
 448 368 l 1,75,-1
 448 0 l 1,40,-1
EndSplineSet
EndChar

StartChar: LATIN
Encoding: 260 260 197
Width: 512
GlyphClass: 1
Flags: W
HStem: -160 64<368 480> -48 48<352 368> -32 32<368 384> 0 21G<64 128> 288 64<128 384> 544 80<128 144 368 384> 560 80<144 160 352 368> 576 64<160 352>
VStem: 64 64<0 288 352 544> 288 80<-96 -80 -48 -32> 288 64<-80 -48> 384 64<0 288 352 544>
LayerCount: 2
Fore
SplineSet
128 352 m 1,0,-1
 384 352 l 1,1,-1
 384 544 l 1,2,-1
 368 544 l 1,3,-1
 368 560 l 1,4,-1
 352 560 l 1,5,-1
 352 576 l 1,6,-1
 160 576 l 1,7,-1
 160 560 l 1,8,-1
 144 560 l 1,9,-1
 144 544 l 1,10,-1
 128 544 l 1,11,-1
 128 352 l 1,0,-1
480 -160 m 1,12,-1
 320 -160 l 1,13,-1
 320 -144 l 1,14,-1
 304 -144 l 1,15,-1
 304 -128 l 1,16,-1
 288 -128 l 1,17,-1
 288 -32 l 1,18,-1
 304 -32 l 1,19,-1
 304 -16 l 1,20,-1
 320 -16 l 1,21,-1
 320 0 l 1,22,-1
 384 0 l 1,23,-1
 384 288 l 1,24,-1
 128 288 l 1,25,-1
 128 0 l 1,26,-1
 64 0 l 1,27,-1
 64 560 l 1,28,-1
 80 560 l 1,29,-1
 80 592 l 1,30,-1
 96 592 l 1,31,-1
 96 608 l 1,32,-1
 112 608 l 1,33,-1
 112 624 l 1,34,-1
 144 624 l 1,35,-1
 144 640 l 1,36,-1
 368 640 l 1,37,-1
 368 624 l 1,38,-1
 400 624 l 1,39,-1
 400 608 l 1,40,-1
 416 608 l 1,41,-1
 416 592 l 1,42,-1
 432 592 l 1,43,-1
 432 560 l 1,44,-1
 448 560 l 1,45,-1
 448 -32 l 1,46,-1
 368 -32 l 1,47,-1
 368 -48 l 1,48,-1
 352 -48 l 1,49,-1
 352 -80 l 1,50,-1
 368 -80 l 1,51,-1
 368 -96 l 1,52,-1
 480 -96 l 1,53,-1
 480 -160 l 1,12,-1
EndSplineSet
EndChar

StartChar: LATIN
Encoding: 261 261 198
Width: 512
GlyphClass: 1
Flags: W
HStem: -160 64<368 480> 0 64<160 320> 224 64<160 384> 384 64<96 352>
VStem: 64 80<80 96 192 208> 64 64<96 192> 80 80<64 80 208 224> 288 80<-96 -80 -48 -32> 288 64<-80 -48> 384 64<64 224 288 352>
LayerCount: 2
Fore
SplineSet
160 64 m 1,0,-1
 384 64 l 1,1,-1
 384 224 l 1,2,-1
 160 224 l 1,3,-1
 160 208 l 1,4,-1
 144 208 l 1,5,-1
 144 192 l 1,6,-1
 128 192 l 1,7,-1
 128 96 l 1,8,-1
 144 96 l 1,9,-1
 144 80 l 1,10,-1
 160 80 l 1,11,-1
 160 64 l 1,0,-1
480 -160 m 1,12,-1
 320 -160 l 1,13,-1
 320 -144 l 1,14,-1
 304 -144 l 1,15,-1
 304 -128 l 1,16,-1
 288 -128 l 1,17,-1
 288 -32 l 1,18,-1
 304 -32 l 1,19,-1
 304 -16 l 1,20,-1
 320 -16 l 1,21,-1
 320 0 l 1,22,-1
 144 0 l 1,23,-1
 144 16 l 1,24,-1
 112 16 l 1,25,-1
 112 32 l 1,26,-1
 96 32 l 1,27,-1
 96 48 l 1,28,-1
 80 48 l 1,29,-1
 80 80 l 1,30,-1
 64 80 l 1,31,-1
 64 208 l 1,32,-1
 80 208 l 1,33,-1
 80 240 l 1,34,-1
 96 240 l 1,35,-1
 96 256 l 1,36,-1
 112 256 l 1,37,-1
 112 272 l 1,38,-1
 144 272 l 1,39,-1
 144 288 l 1,40,-1
 384 288 l 1,41,-1
 384 352 l 1,42,-1
 368 352 l 1,43,-1
 368 368 l 1,44,-1
 352 368 l 1,45,-1
 352 384 l 1,46,-1
 96 384 l 1,47,-1
 96 448 l 1,48,-1
 368 448 l 1,49,-1
 368 432 l 1,50,-1
 400 432 l 1,51,-1
 400 416 l 1,52,-1
 416 416 l 1,53,-1
 416 400 l 1,54,-1
 432 400 l 1,55,-1
 432 368 l 1,56,-1
 448 368 l 1,57,-1
 448 -16 l 1,58,-1
 400 -16 l 1,59,-1
 400 -32 l 1,60,-1
 368 -32 l 1,61,-1
 368 -48 l 1,62,-1
 352 -48 l 1,63,-1
 352 -80 l 1,64,-1
 368 -80 l 1,65,-1
 368 -96 l 1,66,-1
 480 -96 l 1,67,-1
 480 -160 l 1,12,-1
EndSplineSet
EndChar

StartChar: LATIN
Encoding: 262 262 199
Width: 512
GlyphClass: 1
Flags: W
HStem: 0 64<160 448> 576 64<160 448> 672 48<224 240> 672 32<208 224> 752 48<352 368> 768 32<368 384>
VStem: 64 80<80 96 544 560> 64 64<96 544> 80 80<64 80 560 576>
LayerCount: 2
Fore
SplineSet
288 672 m 1,0,-1
 208 672 l 1,1,-1
 208 704 l 1,2,-1
 224 704 l 1,3,-1
 224 720 l 1,4,-1
 240 720 l 1,5,-1
 240 736 l 1,6,-1
 256 736 l 1,7,-1
 256 752 l 1,8,-1
 272 752 l 1,9,-1
 272 768 l 1,10,-1
 288 768 l 1,11,-1
 288 784 l 1,12,-1
 304 784 l 1,13,-1
 304 800 l 1,14,-1
 384 800 l 1,15,-1
 384 768 l 1,16,-1
 368 768 l 1,17,-1
 368 752 l 1,18,-1
 352 752 l 1,19,-1
 352 736 l 1,20,-1
 336 736 l 1,21,-1
 336 720 l 1,22,-1
 320 720 l 1,23,-1
 320 704 l 1,24,-1
 304 704 l 1,25,-1
 304 688 l 1,26,-1
 288 688 l 1,27,-1
 288 672 l 1,0,-1
448 0 m 1,28,-1
 144 0 l 1,29,-1
 144 16 l 1,30,-1
 112 16 l 1,31,-1
 112 32 l 1,32,-1
 96 32 l 1,33,-1
 96 48 l 1,34,-1
 80 48 l 1,35,-1
 80 80 l 1,36,-1
 64 80 l 1,37,-1
 64 560 l 1,38,-1
 80 560 l 1,39,-1
 80 592 l 1,40,-1
 96 592 l 1,41,-1
 96 608 l 1,42,-1
 112 608 l 1,43,-1
 112 624 l 1,44,-1
 144 624 l 1,45,-1
 144 640 l 1,46,-1
 448 640 l 1,47,-1
 448 576 l 1,48,-1
 160 576 l 1,49,-1
 160 560 l 1,50,-1
 144 560 l 1,51,-1
 144 544 l 1,52,-1
 128 544 l 1,53,-1
 128 96 l 1,54,-1
 144 96 l 1,55,-1
 144 80 l 1,56,-1
 160 80 l 1,57,-1
 160 64 l 1,58,-1
 448 64 l 1,59,-1
 448 0 l 1,28,-1
EndSplineSet
EndChar

StartChar: LATIN
Encoding: 263 263 200
Width: 512
GlyphClass: 1
Flags: W
HStem: 0 64<160 448> 384 64<160 448> 512 48<192 208>
VStem: 64 80<80 96 352 368> 64 64<96 352> 80 80<64 80 368 384> 336 48<688 704>
LayerCount: 2
Fore
SplineSet
256 512 m 1,0,-1
 192 512 l 1,1,-1
 192 560 l 1,2,-1
 208 560 l 1,3,-1
 208 576 l 1,4,-1
 224 576 l 1,5,-1
 224 592 l 1,6,-1
 240 592 l 1,7,-1
 240 608 l 1,8,-1
 256 608 l 1,9,-1
 256 624 l 1,10,-1
 272 624 l 1,11,-1
 272 640 l 1,12,-1
 288 640 l 1,13,-1
 288 656 l 1,14,-1
 304 656 l 1,15,-1
 304 672 l 1,16,-1
 320 672 l 1,17,-1
 320 688 l 1,18,-1
 336 688 l 1,19,-1
 336 704 l 1,20,-1
 384 704 l 1,21,-1
 384 640 l 1,22,-1
 368 640 l 1,23,-1
 368 624 l 1,24,-1
 352 624 l 1,25,-1
 352 608 l 1,26,-1
 336 608 l 1,27,-1
 336 592 l 1,28,-1
 320 592 l 1,29,-1
 320 576 l 1,30,-1
 304 576 l 1,31,-1
 304 560 l 1,32,-1
 288 560 l 1,33,-1
 288 544 l 1,34,-1
 272 544 l 1,35,-1
 272 528 l 1,36,-1
 256 528 l 1,37,-1
 256 512 l 1,0,-1
448 0 m 1,38,-1
 144 0 l 1,39,-1
 144 16 l 1,40,-1
 112 16 l 1,41,-1
 112 32 l 1,42,-1
 96 32 l 1,43,-1
 96 48 l 1,44,-1
 80 48 l 1,45,-1
 80 80 l 1,46,-1
 64 80 l 1,47,-1
 64 368 l 1,48,-1
 80 368 l 1,49,-1
 80 400 l 1,50,-1
 96 400 l 1,51,-1
 96 416 l 1,52,-1
 112 416 l 1,53,-1
 112 432 l 1,54,-1
 144 432 l 1,55,-1
 144 448 l 1,56,-1
 448 448 l 1,57,-1
 448 384 l 1,58,-1
 160 384 l 1,59,-1
 160 368 l 1,60,-1
 144 368 l 1,61,-1
 144 352 l 1,62,-1
 128 352 l 1,63,-1
 128 96 l 1,64,-1
 144 96 l 1,65,-1
 144 80 l 1,66,-1
 160 80 l 1,67,-1
 160 64 l 1,68,-1
 448 64 l 1,69,-1
 448 0 l 1,38,-1
EndSplineSet
EndChar

StartChar: LATIN
Encoding: 264 264 201
Width: 512
GlyphClass: 1
Flags: W
HStem: 0 64<160 448> 576 64<160 448> 704 80<176 192 320 336> 704 64<160 176 336 352> 704 48<144 160 352 368> 704 32<128 144 368 384> 752 80<240 272>
VStem: 64 80<80 96 544 560> 64 64<96 544> 80 80<64 80 560 576>
LayerCount: 2
Fore
SplineSet
384 704 m 1,0,-1
 304 704 l 1,1,-1
 304 720 l 1,2,-1
 288 720 l 1,3,-1
 288 736 l 1,4,-1
 272 736 l 1,5,-1
 272 752 l 1,6,-1
 240 752 l 1,7,-1
 240 736 l 1,8,-1
 224 736 l 1,9,-1
 224 720 l 1,10,-1
 208 720 l 1,11,-1
 208 704 l 1,12,-1
 128 704 l 1,13,-1
 128 736 l 1,14,-1
 144 736 l 1,15,-1
 144 752 l 1,16,-1
 160 752 l 1,17,-1
 160 768 l 1,18,-1
 176 768 l 1,19,-1
 176 784 l 1,20,-1
 192 784 l 1,21,-1
 192 800 l 1,22,-1
 208 800 l 1,23,-1
 208 816 l 1,24,-1
 224 816 l 1,25,-1
 224 832 l 1,26,-1
 288 832 l 1,27,-1
 288 816 l 1,28,-1
 304 816 l 1,29,-1
 304 800 l 1,30,-1
 320 800 l 1,31,-1
 320 784 l 1,32,-1
 336 784 l 1,33,-1
 336 768 l 1,34,-1
 352 768 l 1,35,-1
 352 752 l 1,36,-1
 368 752 l 1,37,-1
 368 736 l 1,38,-1
 384 736 l 1,39,-1
 384 704 l 1,0,-1
448 0 m 1,40,-1
 144 0 l 1,41,-1
 144 16 l 1,42,-1
 112 16 l 1,43,-1
 112 32 l 1,44,-1
 96 32 l 1,45,-1
 96 48 l 1,46,-1
 80 48 l 1,47,-1
 80 80 l 1,48,-1
 64 80 l 1,49,-1
 64 560 l 1,50,-1
 80 560 l 1,51,-1
 80 592 l 1,52,-1
 96 592 l 1,53,-1
 96 608 l 1,54,-1
 112 608 l 1,55,-1
 112 624 l 1,56,-1
 144 624 l 1,57,-1
 144 640 l 1,58,-1
 448 640 l 1,59,-1
 448 576 l 1,60,-1
 160 576 l 1,61,-1
 160 560 l 1,62,-1
 144 560 l 1,63,-1
 144 544 l 1,64,-1
 128 544 l 1,65,-1
 128 96 l 1,66,-1
 144 96 l 1,67,-1
 144 80 l 1,68,-1
 160 80 l 1,69,-1
 160 64 l 1,70,-1
 448 64 l 1,71,-1
 448 0 l 1,40,-1
EndSplineSet
EndChar

StartChar: LATIN
Encoding: 265 265 202
Width: 512
GlyphClass: 1
Flags: W
HStem: 0 64<160 448> 384 64<160 448> 512 80<112 128 384 400> 512 64<96 112 400 416> 624 80<240 272>
VStem: 64 64<96 352> 80 80<64 80 368 384> 96 48<512 528> 368 48<512 528>
LayerCount: 2
Fore
SplineSet
416 512 m 1,0,-1
 368 512 l 1,1,-1
 368 528 l 1,2,-1
 352 528 l 1,3,-1
 352 544 l 1,4,-1
 336 544 l 1,5,-1
 336 560 l 1,6,-1
 320 560 l 1,7,-1
 320 576 l 1,8,-1
 304 576 l 1,9,-1
 304 592 l 1,10,-1
 288 592 l 1,11,-1
 288 608 l 1,12,-1
 272 608 l 1,13,-1
 272 624 l 1,14,-1
 240 624 l 1,15,-1
 240 608 l 1,16,-1
 224 608 l 1,17,-1
 224 592 l 1,18,-1
 208 592 l 1,19,-1
 208 576 l 1,20,-1
 192 576 l 1,21,-1
 192 560 l 1,22,-1
 176 560 l 1,23,-1
 176 544 l 1,24,-1
 160 544 l 1,25,-1
 160 528 l 1,26,-1
 144 528 l 1,27,-1
 144 512 l 1,28,-1
 96 512 l 1,29,-1
 96 576 l 1,30,-1
 112 576 l 1,31,-1
 112 592 l 1,32,-1
 128 592 l 1,33,-1
 128 608 l 1,34,-1
 144 608 l 1,35,-1
 144 624 l 1,36,-1
 160 624 l 1,37,-1
 160 640 l 1,38,-1
 176 640 l 1,39,-1
 176 656 l 1,40,-1
 192 656 l 1,41,-1
 192 672 l 1,42,-1
 208 672 l 1,43,-1
 208 688 l 1,44,-1
 224 688 l 1,45,-1
 224 704 l 1,46,-1
 288 704 l 1,47,-1
 288 688 l 1,48,-1
 304 688 l 1,49,-1
 304 672 l 1,50,-1
 320 672 l 1,51,-1
 320 656 l 1,52,-1
 336 656 l 1,53,-1
 336 640 l 1,54,-1
 352 640 l 1,55,-1
 352 624 l 1,56,-1
 368 624 l 1,57,-1
 368 608 l 1,58,-1
 384 608 l 1,59,-1
 384 592 l 1,60,-1
 400 592 l 1,61,-1
 400 576 l 1,62,-1
 416 576 l 1,63,-1
 416 512 l 1,0,-1
448 0 m 1,64,-1
 144 0 l 1,65,-1
 144 16 l 1,66,-1
 112 16 l 1,67,-1
 112 32 l 1,68,-1
 96 32 l 1,69,-1
 96 48 l 1,70,-1
 80 48 l 1,71,-1
 80 80 l 1,72,-1
 64 80 l 1,73,-1
 64 368 l 1,74,-1
 80 368 l 1,75,-1
 80 400 l 1,76,-1
 96 400 l 1,77,-1
 96 416 l 1,78,-1
 112 416 l 1,79,-1
 112 432 l 1,80,-1
 144 432 l 1,81,-1
 144 448 l 1,82,-1
 448 448 l 1,83,-1
 448 384 l 1,84,-1
 160 384 l 1,85,-1
 160 368 l 1,86,-1
 144 368 l 1,87,-1
 144 352 l 1,88,-1
 128 352 l 1,89,-1
 128 96 l 1,90,-1
 144 96 l 1,91,-1
 144 80 l 1,92,-1
 160 80 l 1,93,-1
 160 64 l 1,94,-1
 448 64 l 1,95,-1
 448 0 l 1,64,-1
EndSplineSet
EndChar

StartChar: LATIN
Encoding: 266 266 203
Width: 512
GlyphClass: 1
Flags: W
HStem: 0 64<160 448> 576 64<160 448> 704 96<224 288>
VStem: 64 80<80 96 544 560> 64 64<96 544> 80 80<64 80 560 576> 224 64<704 800>
LayerCount: 2
Fore
SplineSet
288 704 m 1,0,-1
 224 704 l 1,1,-1
 224 800 l 1,2,-1
 288 800 l 1,3,-1
 288 704 l 1,0,-1
448 0 m 1,4,-1
 144 0 l 1,5,-1
 144 16 l 1,6,-1
 112 16 l 1,7,-1
 112 32 l 1,8,-1
 96 32 l 1,9,-1
 96 48 l 1,10,-1
 80 48 l 1,11,-1
 80 80 l 1,12,-1
 64 80 l 1,13,-1
 64 560 l 1,14,-1
 80 560 l 1,15,-1
 80 592 l 1,16,-1
 96 592 l 1,17,-1
 96 608 l 1,18,-1
 112 608 l 1,19,-1
 112 624 l 1,20,-1
 144 624 l 1,21,-1
 144 640 l 1,22,-1
 448 640 l 1,23,-1
 448 576 l 1,24,-1
 160 576 l 1,25,-1
 160 560 l 1,26,-1
 144 560 l 1,27,-1
 144 544 l 1,28,-1
 128 544 l 1,29,-1
 128 96 l 1,30,-1
 144 96 l 1,31,-1
 144 80 l 1,32,-1
 160 80 l 1,33,-1
 160 64 l 1,34,-1
 448 64 l 1,35,-1
 448 0 l 1,4,-1
EndSplineSet
EndChar

StartChar: LATIN
Encoding: 267 267 204
Width: 512
GlyphClass: 1
Flags: W
HStem: 0 64<160 448> 384 64<160 448> 544 96<224 288>
VStem: 64 80<80 96 352 368> 64 64<96 352> 80 80<64 80 368 384> 224 64<544 640>
LayerCount: 2
Fore
SplineSet
288 544 m 1,0,-1
 224 544 l 1,1,-1
 224 640 l 1,2,-1
 288 640 l 1,3,-1
 288 544 l 1,0,-1
448 0 m 1,4,-1
 144 0 l 1,5,-1
 144 16 l 1,6,-1
 112 16 l 1,7,-1
 112 32 l 1,8,-1
 96 32 l 1,9,-1
 96 48 l 1,10,-1
 80 48 l 1,11,-1
 80 80 l 1,12,-1
 64 80 l 1,13,-1
 64 368 l 1,14,-1
 80 368 l 1,15,-1
 80 400 l 1,16,-1
 96 400 l 1,17,-1
 96 416 l 1,18,-1
 112 416 l 1,19,-1
 112 432 l 1,20,-1
 144 432 l 1,21,-1
 144 448 l 1,22,-1
 448 448 l 1,23,-1
 448 384 l 1,24,-1
 160 384 l 1,25,-1
 160 368 l 1,26,-1
 144 368 l 1,27,-1
 144 352 l 1,28,-1
 128 352 l 1,29,-1
 128 96 l 1,30,-1
 144 96 l 1,31,-1
 144 80 l 1,32,-1
 160 80 l 1,33,-1
 160 64 l 1,34,-1
 448 64 l 1,35,-1
 448 0 l 1,4,-1
EndSplineSet
EndChar

StartChar: LATIN
Encoding: 268 268 205
Width: 512
GlyphClass: 1
Flags: W
HStem: 0 64<160 448> 576 64<160 448> 704 80<240 272> 752 80<176 192 320 336> 768 64<160 176 336 352> 784 48<144 160 352 368> 800 32<128 144 368 384>
VStem: 64 80<80 96 544 560> 64 64<96 544> 80 80<64 80 560 576>
LayerCount: 2
Fore
SplineSet
288 704 m 1,0,-1
 224 704 l 1,1,-1
 224 720 l 1,2,-1
 208 720 l 1,3,-1
 208 736 l 1,4,-1
 192 736 l 1,5,-1
 192 752 l 1,6,-1
 176 752 l 1,7,-1
 176 768 l 1,8,-1
 160 768 l 1,9,-1
 160 784 l 1,10,-1
 144 784 l 1,11,-1
 144 800 l 1,12,-1
 128 800 l 1,13,-1
 128 832 l 1,14,-1
 208 832 l 1,15,-1
 208 816 l 1,16,-1
 224 816 l 1,17,-1
 224 800 l 1,18,-1
 240 800 l 1,19,-1
 240 784 l 1,20,-1
 272 784 l 1,21,-1
 272 800 l 1,22,-1
 288 800 l 1,23,-1
 288 816 l 1,24,-1
 304 816 l 1,25,-1
 304 832 l 1,26,-1
 384 832 l 1,27,-1
 384 800 l 1,28,-1
 368 800 l 1,29,-1
 368 784 l 1,30,-1
 352 784 l 1,31,-1
 352 768 l 1,32,-1
 336 768 l 1,33,-1
 336 752 l 1,34,-1
 320 752 l 1,35,-1
 320 736 l 1,36,-1
 304 736 l 1,37,-1
 304 720 l 1,38,-1
 288 720 l 1,39,-1
 288 704 l 1,0,-1
448 0 m 1,40,-1
 144 0 l 1,41,-1
 144 16 l 1,42,-1
 112 16 l 1,43,-1
 112 32 l 1,44,-1
 96 32 l 1,45,-1
 96 48 l 1,46,-1
 80 48 l 1,47,-1
 80 80 l 1,48,-1
 64 80 l 1,49,-1
 64 560 l 1,50,-1
 80 560 l 1,51,-1
 80 592 l 1,52,-1
 96 592 l 1,53,-1
 96 608 l 1,54,-1
 112 608 l 1,55,-1
 112 624 l 1,56,-1
 144 624 l 1,57,-1
 144 640 l 1,58,-1
 448 640 l 1,59,-1
 448 576 l 1,60,-1
 160 576 l 1,61,-1
 160 560 l 1,62,-1
 144 560 l 1,63,-1
 144 544 l 1,64,-1
 128 544 l 1,65,-1
 128 96 l 1,66,-1
 144 96 l 1,67,-1
 144 80 l 1,68,-1
 160 80 l 1,69,-1
 160 64 l 1,70,-1
 448 64 l 1,71,-1
 448 0 l 1,40,-1
EndSplineSet
EndChar

StartChar: LATIN
Encoding: 269 269 206
Width: 512
GlyphClass: 1
Flags: W
HStem: 0 64<160 448> 384 64<160 448> 512 80<240 272> 624 80<112 128 384 400> 640 64<96 112 400 416>
VStem: 64 64<96 352> 80 80<64 80 368 384> 96 48<688 704> 368 48<688 704>
LayerCount: 2
Fore
SplineSet
288 512 m 1,0,-1
 224 512 l 1,1,-1
 224 528 l 1,2,-1
 208 528 l 1,3,-1
 208 544 l 1,4,-1
 192 544 l 1,5,-1
 192 560 l 1,6,-1
 176 560 l 1,7,-1
 176 576 l 1,8,-1
 160 576 l 1,9,-1
 160 592 l 1,10,-1
 144 592 l 1,11,-1
 144 608 l 1,12,-1
 128 608 l 1,13,-1
 128 624 l 1,14,-1
 112 624 l 1,15,-1
 112 640 l 1,16,-1
 96 640 l 1,17,-1
 96 704 l 1,18,-1
 144 704 l 1,19,-1
 144 688 l 1,20,-1
 160 688 l 1,21,-1
 160 672 l 1,22,-1
 176 672 l 1,23,-1
 176 656 l 1,24,-1
 192 656 l 1,25,-1
 192 640 l 1,26,-1
 208 640 l 1,27,-1
 208 624 l 1,28,-1
 224 624 l 1,29,-1
 224 608 l 1,30,-1
 240 608 l 1,31,-1
 240 592 l 1,32,-1
 272 592 l 1,33,-1
 272 608 l 1,34,-1
 288 608 l 1,35,-1
 288 624 l 1,36,-1
 304 624 l 1,37,-1
 304 640 l 1,38,-1
 320 640 l 1,39,-1
 320 656 l 1,40,-1
 336 656 l 1,41,-1
 336 672 l 1,42,-1
 352 672 l 1,43,-1
 352 688 l 1,44,-1
 368 688 l 1,45,-1
 368 704 l 1,46,-1
 416 704 l 1,47,-1
 416 640 l 1,48,-1
 400 640 l 1,49,-1
 400 624 l 1,50,-1
 384 624 l 1,51,-1
 384 608 l 1,52,-1
 368 608 l 1,53,-1
 368 592 l 1,54,-1
 352 592 l 1,55,-1
 352 576 l 1,56,-1
 336 576 l 1,57,-1
 336 560 l 1,58,-1
 320 560 l 1,59,-1
 320 544 l 1,60,-1
 304 544 l 1,61,-1
 304 528 l 1,62,-1
 288 528 l 1,63,-1
 288 512 l 1,0,-1
448 0 m 1,64,-1
 144 0 l 1,65,-1
 144 16 l 1,66,-1
 112 16 l 1,67,-1
 112 32 l 1,68,-1
 96 32 l 1,69,-1
 96 48 l 1,70,-1
 80 48 l 1,71,-1
 80 80 l 1,72,-1
 64 80 l 1,73,-1
 64 368 l 1,74,-1
 80 368 l 1,75,-1
 80 400 l 1,76,-1
 96 400 l 1,77,-1
 96 416 l 1,78,-1
 112 416 l 1,79,-1
 112 432 l 1,80,-1
 144 432 l 1,81,-1
 144 448 l 1,82,-1
 448 448 l 1,83,-1
 448 384 l 1,84,-1
 160 384 l 1,85,-1
 160 368 l 1,86,-1
 144 368 l 1,87,-1
 144 352 l 1,88,-1
 128 352 l 1,89,-1
 128 96 l 1,90,-1
 144 96 l 1,91,-1
 144 80 l 1,92,-1
 160 80 l 1,93,-1
 160 64 l 1,94,-1
 448 64 l 1,95,-1
 448 0 l 1,64,-1
EndSplineSet
EndChar

StartChar: LATIN
Encoding: 270 270 207
Width: 512
GlyphClass: 1
Flags: W
HStem: 0 64<128 352> 576 64<128 352> 704 80<240 272> 752 80<176 192 320 336> 768 64<160 176 336 352> 784 48<144 160 352 368> 800 32<128 144 368 384>
VStem: 64 64<64 576> 352 80<64 80 560 576> 368 80<80 96 544 560> 384 64<96 544>
LayerCount: 2
Fore
SplineSet
288 704 m 1,0,-1
 224 704 l 1,1,-1
 224 720 l 1,2,-1
 208 720 l 1,3,-1
 208 736 l 1,4,-1
 192 736 l 1,5,-1
 192 752 l 1,6,-1
 176 752 l 1,7,-1
 176 768 l 1,8,-1
 160 768 l 1,9,-1
 160 784 l 1,10,-1
 144 784 l 1,11,-1
 144 800 l 1,12,-1
 128 800 l 1,13,-1
 128 832 l 1,14,-1
 208 832 l 1,15,-1
 208 816 l 1,16,-1
 224 816 l 1,17,-1
 224 800 l 1,18,-1
 240 800 l 1,19,-1
 240 784 l 1,20,-1
 272 784 l 1,21,-1
 272 800 l 1,22,-1
 288 800 l 1,23,-1
 288 816 l 1,24,-1
 304 816 l 1,25,-1
 304 832 l 1,26,-1
 384 832 l 1,27,-1
 384 800 l 1,28,-1
 368 800 l 1,29,-1
 368 784 l 1,30,-1
 352 784 l 1,31,-1
 352 768 l 1,32,-1
 336 768 l 1,33,-1
 336 752 l 1,34,-1
 320 752 l 1,35,-1
 320 736 l 1,36,-1
 304 736 l 1,37,-1
 304 720 l 1,38,-1
 288 720 l 1,39,-1
 288 704 l 1,0,-1
128 64 m 1,40,-1
 352 64 l 1,41,-1
 352 80 l 1,42,-1
 368 80 l 1,43,-1
 368 96 l 1,44,-1
 384 96 l 1,45,-1
 384 544 l 1,46,-1
 368 544 l 1,47,-1
 368 560 l 1,48,-1
 352 560 l 1,49,-1
 352 576 l 1,50,-1
 128 576 l 1,51,-1
 128 64 l 1,40,-1
368 0 m 1,52,-1
 64 0 l 1,53,-1
 64 640 l 1,54,-1
 368 640 l 1,55,-1
 368 624 l 1,56,-1
 400 624 l 1,57,-1
 400 608 l 1,58,-1
 416 608 l 1,59,-1
 416 592 l 1,60,-1
 432 592 l 1,61,-1
 432 560 l 1,62,-1
 448 560 l 1,63,-1
 448 80 l 1,64,-1
 432 80 l 1,65,-1
 432 48 l 1,66,-1
 416 48 l 1,67,-1
 416 32 l 1,68,-1
 400 32 l 1,69,-1
 400 16 l 1,70,-1
 368 16 l 1,71,-1
 368 0 l 1,52,-1
EndSplineSet
EndChar

StartChar: LATIN
Encoding: 271 271 208
Width: 512
GlyphClass: 1
Flags: W
HStem: 0 64<160 384> 384 64<160 384> 620 20G<384 448> 704 80<240 272> 752 80<176 192 320 336> 768 64<160 176 336 352> 784 48<144 160 352 368> 800 32<128 144 368 384>
VStem: 64 80<80 96 352 368> 64 64<96 352> 80 80<64 80 368 384> 384 64<64 384 448 640>
LayerCount: 2
Fore
SplineSet
288 704 m 1,0,-1
 224 704 l 1,1,-1
 224 720 l 1,2,-1
 208 720 l 1,3,-1
 208 736 l 1,4,-1
 192 736 l 1,5,-1
 192 752 l 1,6,-1
 176 752 l 1,7,-1
 176 768 l 1,8,-1
 160 768 l 1,9,-1
 160 784 l 1,10,-1
 144 784 l 1,11,-1
 144 800 l 1,12,-1
 128 800 l 1,13,-1
 128 832 l 1,14,-1
 208 832 l 1,15,-1
 208 816 l 1,16,-1
 224 816 l 1,17,-1
 224 800 l 1,18,-1
 240 800 l 1,19,-1
 240 784 l 1,20,-1
 272 784 l 1,21,-1
 272 800 l 1,22,-1
 288 800 l 1,23,-1
 288 816 l 1,24,-1
 304 816 l 1,25,-1
 304 832 l 1,26,-1
 384 832 l 1,27,-1
 384 800 l 1,28,-1
 368 800 l 1,29,-1
 368 784 l 1,30,-1
 352 784 l 1,31,-1
 352 768 l 1,32,-1
 336 768 l 1,33,-1
 336 752 l 1,34,-1
 320 752 l 1,35,-1
 320 736 l 1,36,-1
 304 736 l 1,37,-1
 304 720 l 1,38,-1
 288 720 l 1,39,-1
 288 704 l 1,0,-1
160 64 m 1,40,-1
 384 64 l 1,41,-1
 384 384 l 1,42,-1
 160 384 l 1,43,-1
 160 368 l 1,44,-1
 144 368 l 1,45,-1
 144 352 l 1,46,-1
 128 352 l 1,47,-1
 128 96 l 1,48,-1
 144 96 l 1,49,-1
 144 80 l 1,50,-1
 160 80 l 1,51,-1
 160 64 l 1,40,-1
448 0 m 1,52,-1
 144 0 l 1,53,-1
 144 16 l 1,54,-1
 112 16 l 1,55,-1
 112 32 l 1,56,-1
 96 32 l 1,57,-1
 96 48 l 1,58,-1
 80 48 l 1,59,-1
 80 80 l 1,60,-1
 64 80 l 1,61,-1
 64 368 l 1,62,-1
 80 368 l 1,63,-1
 80 400 l 1,64,-1
 96 400 l 1,65,-1
 96 416 l 1,66,-1
 112 416 l 1,67,-1
 112 432 l 1,68,-1
 144 432 l 1,69,-1
 144 448 l 1,70,-1
 384 448 l 1,71,-1
 384 640 l 1,72,-1
 448 640 l 1,73,-1
 448 0 l 1,52,-1
EndSplineSet
EndChar

StartChar: LATIN
Encoding: 272 272 209
Width: 512
GlyphClass: 1
Flags: W
HStem: 0 64<128 352> 288 64<0 64 128 256> 576 64<128 352>
VStem: 64 64<64 288 352 576> 352 80<64 80 560 576> 368 80<80 96 544 560> 384 64<96 544>
CounterMasks: 1 e0
LayerCount: 2
Fore
SplineSet
128 64 m 1,0,-1
 352 64 l 1,1,-1
 352 80 l 1,2,-1
 368 80 l 1,3,-1
 368 96 l 1,4,-1
 384 96 l 1,5,-1
 384 544 l 1,6,-1
 368 544 l 1,7,-1
 368 560 l 1,8,-1
 352 560 l 1,9,-1
 352 576 l 1,10,-1
 128 576 l 1,11,-1
 128 352 l 1,12,-1
 256 352 l 1,13,-1
 256 288 l 1,14,-1
 128 288 l 1,15,-1
 128 64 l 1,0,-1
368 0 m 1,16,-1
 64 0 l 1,17,-1
 64 288 l 1,18,-1
 0 288 l 1,19,-1
 0 352 l 1,20,-1
 64 352 l 1,21,-1
 64 640 l 1,22,-1
 368 640 l 1,23,-1
 368 624 l 1,24,-1
 400 624 l 1,25,-1
 400 608 l 1,26,-1
 416 608 l 1,27,-1
 416 592 l 1,28,-1
 432 592 l 1,29,-1
 432 560 l 1,30,-1
 448 560 l 1,31,-1
 448 80 l 1,32,-1
 432 80 l 1,33,-1
 432 48 l 1,34,-1
 416 48 l 1,35,-1
 416 32 l 1,36,-1
 400 32 l 1,37,-1
 400 16 l 1,38,-1
 368 16 l 1,39,-1
 368 0 l 1,16,-1
EndSplineSet
EndChar

StartChar: LATIN
Encoding: 273 273 210
Width: 512
GlyphClass: 1
Flags: W
HStem: 0 64<160 384> 384 64<160 384> 512 64<256 384 448 512> 620 20G<384 448>
VStem: 64 80<80 96 352 368> 64 64<96 352> 80 80<64 80 368 384> 384 64<64 384 448 512 576 640>
LayerCount: 2
Fore
SplineSet
160 64 m 1,0,-1
 384 64 l 1,1,-1
 384 384 l 1,2,-1
 160 384 l 1,3,-1
 160 368 l 1,4,-1
 144 368 l 1,5,-1
 144 352 l 1,6,-1
 128 352 l 1,7,-1
 128 96 l 1,8,-1
 144 96 l 1,9,-1
 144 80 l 1,10,-1
 160 80 l 1,11,-1
 160 64 l 1,0,-1
448 0 m 1,12,-1
 144 0 l 1,13,-1
 144 16 l 1,14,-1
 112 16 l 1,15,-1
 112 32 l 1,16,-1
 96 32 l 1,17,-1
 96 48 l 1,18,-1
 80 48 l 1,19,-1
 80 80 l 1,20,-1
 64 80 l 1,21,-1
 64 368 l 1,22,-1
 80 368 l 1,23,-1
 80 400 l 1,24,-1
 96 400 l 1,25,-1
 96 416 l 1,26,-1
 112 416 l 1,27,-1
 112 432 l 1,28,-1
 144 432 l 1,29,-1
 144 448 l 1,30,-1
 384 448 l 1,31,-1
 384 512 l 1,32,-1
 256 512 l 1,33,-1
 256 576 l 1,34,-1
 384 576 l 1,35,-1
 384 640 l 1,36,-1
 448 640 l 1,37,-1
 448 576 l 1,38,-1
 512 576 l 1,39,-1
 512 512 l 1,40,-1
 448 512 l 1,41,-1
 448 0 l 1,12,-1
EndSplineSet
EndChar

StartChar: LATIN
Encoding: 274 274 211
Width: 512
GlyphClass: 1
Flags: W
HStem: 0 64<160 448> 288 64<128 352> 576 64<160 448> 704 64<128 384>
VStem: 64 80<80 96 544 560> 64 64<96 288 352 544> 80 80<64 80 560 576>
LayerCount: 2
Fore
SplineSet
384 704 m 1,0,-1
 128 704 l 1,1,-1
 128 768 l 1,2,-1
 384 768 l 1,3,-1
 384 704 l 1,0,-1
448 0 m 1,4,-1
 144 0 l 1,5,-1
 144 16 l 1,6,-1
 112 16 l 1,7,-1
 112 32 l 1,8,-1
 96 32 l 1,9,-1
 96 48 l 1,10,-1
 80 48 l 1,11,-1
 80 80 l 1,12,-1
 64 80 l 1,13,-1
 64 560 l 1,14,-1
 80 560 l 1,15,-1
 80 592 l 1,16,-1
 96 592 l 1,17,-1
 96 608 l 1,18,-1
 112 608 l 1,19,-1
 112 624 l 1,20,-1
 144 624 l 1,21,-1
 144 640 l 1,22,-1
 448 640 l 1,23,-1
 448 576 l 1,24,-1
 160 576 l 1,25,-1
 160 560 l 1,26,-1
 144 560 l 1,27,-1
 144 544 l 1,28,-1
 128 544 l 1,29,-1
 128 352 l 1,30,-1
 352 352 l 1,31,-1
 352 288 l 1,32,-1
 128 288 l 1,33,-1
 128 96 l 1,34,-1
 144 96 l 1,35,-1
 144 80 l 1,36,-1
 160 80 l 1,37,-1
 160 64 l 1,38,-1
 448 64 l 1,39,-1
 448 0 l 1,4,-1
EndSplineSet
EndChar

